<?xml version="1.0" standalone="no"?>
<!DOCTYPE svg PUBLIC "-//W3C//DTD SVG 1.1//EN" "http://www.w3.org/Graphics/SVG/1.1/DTD/svg11.dtd" >
<svg xmlns="http://www.w3.org/2000/svg" xmlns:xlink="http://www.w3.org/1999/xlink" version="1.1">
<metadata>
Created by FontForge 20201107 at Sat Aug  4 06:22:48 2018
 By Jimmy Wärting
Copyright \(c\) 2014 by Commercial Type, Inc.. All rights reserved. |DCNT
</metadata>
<defs>
<font id="DrukWideCyr-Bold" horiz-adv-x="706" >
  <font-face 
    font-family="Druk Wide Cyr"
    font-weight="700"
    font-stretch="normal"
    units-per-em="1000"
    panose-1="0 0 0 0 0 0 0 0 0 0"
    ascent="800"
    descent="-200"
    x-height="538"
    cap-height="744"
    bbox="-114 -299 2647 1201"
    underline-thickness="84"
    underline-position="-20"
    stemh="180"
    stemv="223"
    unicode-range="U+000D-FB04"
  />
<missing-glyph horiz-adv-x="304" 
 />
    <glyph glyph-name="f_i" unicode="fi" horiz-adv-x="872" 
d="M832 744v-161h-272v161h272zM832 538v-538h-272v538h272zM507 744v-144h-81c-31 0 -37 -12 -37 -39v-23h118v-165h-118v-373h-270v373h-106v165h106v53c0 85 45 153 197 153h191z" />
    <glyph glyph-name="f_l" unicode="fl" horiz-adv-x="872" 
d="M507 744v-144h-81c-31 0 -37 -12 -37 -39v-23h118v-165h-118v-373h-270v373h-106v165h106v53c0 85 45 153 197 153h191zM832 744v-744h-272v744h272z" />
    <glyph glyph-name="f_f" unicode="ff" horiz-adv-x="972" 
d="M389 0h-270v373h-106v165h106v53c0 85 45 153 197 153h193v-144h-83c-31 0 -37 -12 -37 -39v-23h172v53c0 85 45 153 197 153h194v-144h-84c-31 0 -37 -12 -37 -39v-23h121v-165h-121v-373h-270v373h-172v-373z" />
    <glyph glyph-name="emdash.alt" unicode="&#x2014;&#x2014;" horiz-adv-x="2680" 
d="M2647 369v-142h-2614v142h2614z" />
    <glyph glyph-name=".notdef" horiz-adv-x="304" 
 />
    <glyph glyph-name="NULL" horiz-adv-x="0" 
 />
    <glyph glyph-name="NULL" horiz-adv-x="0" 
 />
    <glyph glyph-name="CR" unicode="&#xd;" horiz-adv-x="304" 
 />
    <glyph glyph-name="space" unicode=" " horiz-adv-x="304" 
 />
    <glyph glyph-name="exclam" unicode="!" horiz-adv-x="381" 
d="M16 744h349l-92 -504h-166zM332 195v-195h-283v195h283z" />
    <glyph glyph-name="quotedbl" unicode="&#x22;" horiz-adv-x="542" 
d="M510 744v-262h-217v262h217zM248 744v-262h-216v262h216z" />
    <glyph glyph-name="numbersign" unicode="#" horiz-adv-x="835" 
d="M468 327l35 124h-138l-35 -124h138zM377 0l57 203h-138l-57 -203h-166l57 203h-127l34 124h127l34 124h-127l35 124h127l47 169h167l-48 -169h139l47 169h167l-48 -169h128l-35 -124h-127l-35 -124h128l-35 -124h-128l-57 -203h-166z" />
    <glyph glyph-name="dollar" unicode="$" horiz-adv-x="1007" 
d="M310 539v-2c0 -27 19 -51 134 -59v119c-124 -5 -134 -29 -134 -58zM693 225v4c0 35 -19 59 -152 67v-145c135 5 152 43 152 74zM541 -75h-97v62c-390 5 -431 168 -431 263v11h292c0 -39 20 -95 139 -108v146l-70 3c-276 8 -351 107 -351 221v9c0 120 82 221 421 221v59
h97v-59c344 -5 425 -115 425 -231v-9h-289c-3 30 -16 72 -136 83v-122l73 -3c273 -8 378 -72 378 -218v-14c0 -128 -70 -252 -451 -252v-62z" />
    <glyph glyph-name="percent" unicode="%" horiz-adv-x="1451" 
d="M342 321h-22c-256 0 -297 133 -297 210v16c0 77 42 205 297 205h22c255 0 296 -128 296 -205v-16c0 -77 -41 -210 -296 -210zM1025 744h215l-816 -744h-215zM330 453c85 0 115 42 115 82v6c0 43 -27 81 -115 81c-86 0 -114 -38 -114 -81v-5c0 -41 30 -83 114 -83z
M1132 -8h-24c-254 0 -296 133 -296 210v16c0 78 42 206 297 206h22c255 0 297 -128 297 -206v-16c0 -77 -41 -210 -296 -210zM1120 124c85 0 115 42 115 82v7c0 43 -30 80 -115 80c-88 0 -115 -37 -115 -80v-5c0 -43 30 -84 115 -84z" />
    <glyph glyph-name="ampersand" unicode="&#x26;" horiz-adv-x="1144" 
d="M412 577c0 -35 30 -59 102 -108c72 23 123 50 123 94c0 39 -25 66 -120 66c-84 0 -105 -23 -105 -52zM500 139c51 0 96 4 133 12l-281 185c-29 -15 -56 -40 -56 -81v-3c0 -55 52 -113 204 -113zM1151 170l-70 -181c-124 0 -203 18 -275 55c-72 -32 -174 -58 -326 -58
c-367 0 -468 107 -468 219v10c0 100 83 161 243 186c-71 53 -100 109 -100 169v8c0 89 58 182 338 182h56c275 0 321 -99 321 -171v-5c0 -80 -60 -147 -255 -182l195 -131c39 64 46 135 46 180h245c-1 -93 -40 -187 -112 -267c45 -11 94 -14 162 -14z" />
    <glyph glyph-name="quotesingle" unicode="'" horiz-adv-x="281" 
d="M249 744v-262h-217v262h217z" />
    <glyph glyph-name="parenleft" unicode="(" horiz-adv-x="361" 
d="M27 341c0 208 98 363 205 467h136c-76 -121 -131 -280 -131 -467s56 -349 131 -472h-136c-109 107 -205 260 -205 472z" />
    <glyph glyph-name="parenright" unicode=")" horiz-adv-x="361" 
d="M129 -131h-135c73 124 130 285 130 472s-55 346 -130 467h135c107 -104 205 -259 205 -467c0 -212 -95 -365 -205 -472z" />
    <glyph glyph-name="asterisk" unicode="*" horiz-adv-x="470" 
d="M288 629l98 84l68 -127l-135 -34l135 -36l-68 -127l-99 81l31 -116h-166l33 116l-100 -81l-69 127l134 36l-134 34l69 127l98 -84l-31 115h166z" />
    <glyph glyph-name="plus" unicode="+" horiz-adv-x="626" 
d="M596 233h-192v-176h-183v176h-191v151h191v175h183v-175h192v-151z" />
    <glyph glyph-name="comma" unicode="," horiz-adv-x="344" 
d="M255 -111h-147c19 35 37 78 42 111h-119v195h282v-159c0 -49 -34 -112 -58 -147z" />
    <glyph glyph-name="hyphen" unicode="-" horiz-adv-x="396" 
d="M33 390h330v-186h-330v186z" />
    <glyph glyph-name="period" unicode="." horiz-adv-x="344" 
d="M313 195v-195h-282v195h282z" />
    <glyph glyph-name="slash" unicode="/" horiz-adv-x="491" 
d="M503 808l-340 -939h-201l339 939h202z" />
    <glyph glyph-name="zero" unicode="0" horiz-adv-x="1136" 
d="M1113 388v-30c0 -135 -64 -372 -522 -372h-45c-459 0 -523 237 -523 372v30c0 137 64 370 523 370h45c458 0 522 -233 522 -370zM818 369v13c0 77 -50 176 -250 176c-205 0 -251 -99 -251 -176v-12c0 -77 50 -182 251 -182c200 0 250 104 250 181z" />
    <glyph glyph-name="one" unicode="1" horiz-adv-x="531" 
d="M198 440h-180v155c133 8 201 63 236 149h226v-744h-282v440z" />
    <glyph glyph-name="two" unicode="2" horiz-adv-x="1011" 
d="M981 0h-956v87c0 101 12 272 399 356c47 11 105 22 144 29c94 19 104 33 104 56c0 26 -22 49 -163 49c-171 0 -179 -68 -182 -97h-290v7c0 94 37 271 442 271h43c375 0 448 -109 448 -231v-4c0 -124 -71 -182 -339 -225l-160 -27c-171 -29 -199 -63 -199 -84h446v88h263
v-275z" />
    <glyph glyph-name="three" unicode="3" horiz-adv-x="1028" 
d="M531 -14h-48c-426 0 -471 196 -471 280v9h293c3 -17 12 -102 199 -102s203 43 203 72c0 28 -18 52 -92 52h-249v178h242c69 0 84 20 84 43v1c0 26 -13 57 -197 57s-186 -63 -188 -78h-291v10c0 75 36 250 456 250h43c428 0 471 -110 471 -192v-6
c0 -74 -71 -116 -131 -127c72 -16 158 -65 158 -182v-7c0 -123 -78 -258 -482 -258z" />
    <glyph glyph-name="four" unicode="4" horiz-adv-x="1014" 
d="M13 303l520 445h312v-414h155v-192h-155v-142h-283v142h-549v161zM562 334v222l-260 -222h260z" />
    <glyph glyph-name="five" unicode="5" horiz-adv-x="982" 
d="M526 -14h-48c-415 0 -448 171 -448 244v7h295c3 -11 17 -67 176 -67c144 0 168 44 168 85v4c0 40 -24 84 -168 84c-157 0 -176 -51 -178 -58h-279v459h868v-181h-587v-121c16 13 87 66 263 66h9c300 0 367 -114 367 -247v-6c0 -123 -71 -269 -438 -269z" />
    <glyph glyph-name="six" unicode="6" horiz-adv-x="1042" 
d="M552 -15h-45c-416 0 -483 218 -483 374v24c0 155 74 375 480 375h42c366 0 445 -140 445 -237v-4h-288c-6 9 -27 59 -173 59c-189 0 -218 -107 -218 -161v-5c21 15 91 70 309 70h12c312 0 391 -103 391 -225v-9c0 -115 -60 -261 -472 -261zM338 245v-3
c0 -35 32 -77 197 -77c168 0 194 41 194 75v3c0 36 -26 75 -194 75c-165 0 -197 -37 -197 -73z" />
    <glyph glyph-name="seven" unicode="7" horiz-adv-x="981" 
d="M31 744h930v-167c-32 -37 -105 -113 -178 -213c-107 -144 -122 -238 -122 -358v-6h-318v89c0 107 37 179 184 312c104 92 165 140 168 157h-389v-144h-275v330z" />
    <glyph glyph-name="eight" unicode="8" horiz-adv-x="1019" 
d="M985 558v-9c0 -91 -86 -145 -166 -156c94 -16 184 -72 184 -169v-11c0 -90 -47 -228 -472 -228h-43c-432 0 -472 138 -472 228v11c0 95 91 153 184 169c-83 13 -167 64 -167 156v9c0 76 35 200 455 200h44c419 0 453 -124 453 -200zM690 531v3c0 27 -16 60 -181 60
c-168 0 -181 -33 -181 -60v-3c0 -29 17 -62 181 -62s181 33 181 62zM710 231v3c0 33 -23 66 -201 66c-179 0 -200 -33 -200 -66v-3c0 -30 24 -69 200 -69c178 0 201 39 201 69z" />
    <glyph glyph-name="nine" unicode="9" horiz-adv-x="1042" 
d="M704 500v2c0 35 -32 75 -197 75c-167 0 -194 -39 -194 -75v-2c0 -35 27 -75 194 -75s197 40 197 75zM543 -15h-43c-363 0 -449 142 -449 236v5h287c5 -12 29 -60 175 -60c188 0 217 110 217 162v4c-20 -15 -91 -71 -296 -71h-13c-309 0 -403 109 -403 234v9
c0 116 58 254 463 254h45c415 0 492 -200 492 -371v-24c0 -157 -67 -378 -475 -378z" />
    <glyph glyph-name="colon" unicode=":" horiz-adv-x="346" 
d="M314 495v-195h-282v195h282zM314 195v-195h-282v195h282z" />
    <glyph glyph-name="semicolon" unicode=";" horiz-adv-x="346" 
d="M314 495v-195h-282v195h282zM256 -111h-147c19 35 37 78 42 111h-119v195h282v-159c0 -49 -34 -112 -58 -147z" />
    <glyph glyph-name="less" unicode="&#x3c;" horiz-adv-x="548" 
d="M516 63l-486 155v170l486 156v-162l-319 -80l319 -78v-161z" />
    <glyph glyph-name="equal" unicode="=" horiz-adv-x="593" 
d="M34 478h525v-140h-525v140zM34 280h525v-139h-525v139z" />
    <glyph glyph-name="greater" unicode="&#x3e;" horiz-adv-x="541" 
d="M32 63v161l315 78l-315 80v162l479 -156v-170z" />
    <glyph glyph-name="question" unicode="?" horiz-adv-x="907" 
d="M542 249h-272v67c0 71 18 115 156 147l99 23c74 16 88 34 88 54c0 24 -9 45 -150 45c-168 0 -170 -55 -173 -86h-275v12c0 92 10 243 418 243h53c350 0 406 -112 406 -212v-7c0 -90 -47 -162 -189 -197l-101 -24c-53 -13 -60 -28 -60 -60v-5zM549 195v-195h-281v195h281z
" />
    <glyph glyph-name="at" unicode="@" horiz-adv-x="1333" 
d="M674 -157c-552 0 -651 232 -651 448v12c0 223 110 438 640 438h14c613 0 633 -239 633 -386v-11c0 -139 -68 -306 -335 -306h-17c-137 0 -174 48 -190 77c-21 -21 -88 -77 -225 -77h-14c-212 0 -263 139 -247 256l7 54c11 86 69 194 241 194h15c147 0 213 -54 242 -80
l9 71h265l-46 -358c-3 -25 7 -37 32 -37c69 0 126 76 126 212v3c0 132 -7 286 -496 286h-14c-422 0 -495 -155 -495 -338v-11c0 -166 73 -344 506 -344c332 0 450 59 504 86l41 -103c-48 -24 -180 -86 -545 -86zM765 280l2 16c9 71 -31 106 -110 106
c-76 0 -100 -46 -105 -91l-3 -23c-8 -53 16 -108 94 -108c86 0 114 46 122 100z" />
    <glyph glyph-name="A" unicode="A" horiz-adv-x="1107" 
d="M663 306l-125 256l-122 -256h247zM812 0l-58 120h-425l-57 -120h-288l368 744h382l389 -744h-311z" />
    <glyph glyph-name="B" unicode="B" horiz-adv-x="1078" 
d="M48 0v744h700c217 0 275 -84 275 -169v-11c0 -93 -79 -135 -128 -146c66 -16 171 -60 171 -191v-12c0 -117 -71 -215 -314 -215h-704zM662 575h-330v-105h330c59 0 76 24 76 52v2c0 29 -17 51 -76 51zM680 303h-348v-128h348c74 0 88 35 88 64v3c0 32 -15 61 -88 61z" />
    <glyph glyph-name="C" unicode="C" horiz-adv-x="1126" 
d="M588 -14h-39c-457 0 -526 233 -526 374v29c0 142 62 369 526 369h39c452 0 518 -205 518 -301v-13h-295c-6 20 -29 114 -245 114c-205 0 -249 -91 -249 -174v-12c0 -80 50 -185 250 -185c219 0 241 105 245 122h294v-16c0 -97 -70 -307 -518 -307z" />
    <glyph glyph-name="D" unicode="D" horiz-adv-x="1133" 
d="M48 0v744h528c429 0 537 -177 537 -352v-30c0 -169 -93 -362 -536 -362h-529zM332 549v-352h211c248 0 275 109 275 174v6c0 65 -27 172 -275 172h-211z" />
    <glyph glyph-name="E" unicode="E" horiz-adv-x="913" 
d="M48 744h823v-182h-543v-93h532v-181h-532v-102h551v-186h-831v744z" />
    <glyph glyph-name="F" unicode="F" horiz-adv-x="890" 
d="M48 744h807v-182h-526v-93h515v-183h-515v-286h-281v744z" />
    <glyph glyph-name="G" unicode="G" horiz-adv-x="1159" 
d="M548 -14h-23c-407 0 -502 218 -502 375v28c0 160 88 369 527 369h39c456 0 518 -183 522 -287v-1h-296c-5 19 -31 94 -241 94c-200 0 -257 -86 -257 -184v-11c0 -95 71 -188 255 -188c192 0 254 69 254 93h-261v145h551v-419h-179c-5 24 -21 76 -35 103
c-29 -32 -122 -117 -354 -117z" />
    <glyph glyph-name="H" unicode="H" horiz-adv-x="1128" 
d="M48 0v744h284v-263h465v263h283v-744h-283v283h-465v-283h-284z" />
    <glyph glyph-name="I" unicode="I" horiz-adv-x="379" 
d="M331 744v-744h-283v744h283z" />
    <glyph glyph-name="J" unicode="J" horiz-adv-x="948" 
d="M482 -11h-61c-353 0 -414 207 -414 335v6h279c3 -29 16 -128 164 -128h8c120 0 165 71 165 167v375h284v-381c0 -155 -57 -374 -425 -374z" />
    <glyph glyph-name="K" unicode="K" horiz-adv-x="1046" 
d="M332 0h-284v744h284v-294l366 294h353l-433 -338l447 -406h-370l-363 333v-333z" />
    <glyph glyph-name="L" unicode="L" horiz-adv-x="875" 
d="M48 744h284v-531h516v-213h-800v744z" />
    <glyph glyph-name="M" unicode="M" horiz-adv-x="1320" 
d="M48 0v744h390l228 -418l232 418h374v-744h-281v464l-261 -464h-145l-260 464v-464h-277z" />
    <glyph glyph-name="N" unicode="N" horiz-adv-x="1128" 
d="M48 744h318l432 -423v423h282v-744h-284l-466 451v-451h-282v744z" />
    <glyph glyph-name="O" unicode="O" horiz-adv-x="1176" 
d="M566 758h45c480 0 542 -229 542 -369v-30c0 -139 -61 -373 -542 -373h-45c-482 0 -543 234 -543 373v30c0 140 61 369 543 369zM859 368v14c0 79 -51 176 -271 176c-224 0 -271 -97 -271 -176v-12c0 -78 51 -183 271 -183s271 101 271 181z" />
    <glyph glyph-name="P" unicode="P" horiz-adv-x="1037" 
d="M668 233h-336v-233h-284v744h620c275 0 353 -109 353 -246v-16c0 -135 -81 -249 -353 -249zM332 558v-139h302c65 0 94 27 94 68v3c0 43 -27 68 -94 68h-302z" />
    <glyph glyph-name="Q" unicode="Q" horiz-adv-x="1176" 
d="M481 -155v144c-401 28 -458 238 -458 370v30c0 142 62 369 543 369h45c478 0 542 -227 542 -369v-30c0 -124 -53 -330 -414 -366l128 -148h-386zM859 368v14c0 81 -51 176 -271 176c-224 0 -271 -94 -271 -176v-12c0 -80 51 -183 271 -183s271 101 271 181z" />
    <glyph glyph-name="R" unicode="R" horiz-adv-x="1070" 
d="M332 563v-128h326c63 0 86 28 86 64v1c0 35 -22 63 -86 63h-326zM332 255v-255h-284v744h676c217 0 313 -70 313 -191v-11c0 -108 -94 -153 -150 -166c92 -21 153 -81 153 -177v-110c0 -52 7 -71 14 -84v-5h-290c-7 8 -9 18 -9 39v87c0 85 -39 129 -151 129h-272z" />
    <glyph glyph-name="S" unicode="S" horiz-adv-x="1036" 
d="M559 -14h-91c-411 0 -454 167 -454 264v10h312c3 -40 24 -105 186 -105h9c159 0 182 34 182 70v1c0 38 -19 62 -175 67l-138 4c-288 8 -365 109 -365 224v9c0 121 81 227 428 227h89c368 0 452 -117 452 -235v-8h-309c-3 27 -19 79 -180 79h-10c-149 0 -164 -26 -164 -55
v-1c0 -30 22 -54 162 -57l134 -3c283 -8 393 -74 393 -224v-14c0 -125 -70 -253 -461 -253z" />
    <glyph glyph-name="T" unicode="T" horiz-adv-x="977" 
d="M346 0v541h-321v203h926v-203h-321v-541h-284z" />
    <glyph glyph-name="U" unicode="U" horiz-adv-x="1104" 
d="M40 389v355h285v-333c0 -91 40 -200 228 -200c185 0 227 109 227 200v333h284v-355c0 -144 -69 -401 -490 -401h-40c-433 0 -494 257 -494 401z" />
    <glyph glyph-name="V" unicode="V" horiz-adv-x="1076" 
d="M740 0h-377l-376 744h322l250 -519l235 519h295z" />
    <glyph glyph-name="W" unicode="W" horiz-adv-x="1535" 
d="M624 0h-346l-290 744h316l169 -491l149 491h320l151 -483l164 483h291l-290 -744h-329l-155 470z" />
    <glyph glyph-name="X" unicode="X" horiz-adv-x="1083" 
d="M331 0h-342l341 382l-330 362h363l189 -219l190 219h337l-322 -359l337 -385h-349l-208 233z" />
    <glyph glyph-name="Y" unicode="Y" horiz-adv-x="1049" 
d="M387 0v280l-407 464h340l217 -257l221 257h311l-398 -466v-278h-284z" />
    <glyph glyph-name="Z" unicode="Z" horiz-adv-x="954" 
d="M35 744h885v-151l-488 -390h493v-203h-896v152l474 396h-468v196z" />
    <glyph glyph-name="bracketleft" unicode="[" horiz-adv-x="374" 
d="M48 -131v939h312v-118h-111v-702h111v-119h-312z" />
    <glyph glyph-name="backslash" unicode="\" horiz-adv-x="491" 
d="M329 -131l-340 939h203l337 -939h-200z" />
    <glyph glyph-name="bracketright" unicode="]" horiz-adv-x="374" 
d="M14 -131v119h111v702h-111v118h312v-939h-312z" />
    <glyph glyph-name="asciicircum" unicode="^" horiz-adv-x="737" 
d="M495 424l-128 176l-130 -176h-235l238 320h258l237 -320h-240z" />
    <glyph glyph-name="underscore" unicode="_" horiz-adv-x="847" 
d="M1 -162v142h845v-142h-845z" />
    <glyph glyph-name="grave" unicode="`" 
d="M532 583h-247l-111 161h270z" />
    <glyph glyph-name="a" unicode="a" horiz-adv-x="846" 
d="M521 231v23l-180 -32c-47 -8 -66 -19 -66 -46v-1c0 -25 18 -55 85 -55c100 0 161 55 161 111zM526 72c-26 -26 -95 -82 -252 -82h-11c-180 0 -249 85 -249 173v12c0 90 58 143 218 156l259 23c23 3 30 11 30 26c0 20 -11 41 -117 41h-4c-115 0 -118 -38 -121 -55h-252v6
c0 72 22 180 345 180h56c336 0 359 -100 359 -173v-199c0 -15 4 -23 23 -23h29v-157h-226c-47 0 -79 25 -87 72z" />
    <glyph glyph-name="b" unicode="b" horiz-adv-x="935" 
d="M40 744h272v-279c22 16 103 83 261 83h21c244 0 320 -127 320 -266v-21c0 -138 -85 -271 -330 -271h-20c-150 0 -233 63 -257 81c-7 -19 -11 -48 -14 -71h-253v744zM312 272v-4c0 -61 54 -128 163 -128h6c121 0 157 68 157 128v4c0 64 -36 128 -157 128h-6
c-112 0 -163 -64 -163 -128z" />
    <glyph glyph-name="c" unicode="c" horiz-adv-x="887" 
d="M475 -15h-60c-345 0 -396 166 -396 278v18c0 111 50 272 395 272h62c359 0 396 -166 396 -240v-3h-278c-3 20 -21 93 -149 93h-4c-116 0 -146 -64 -146 -125v-5c0 -65 32 -136 146 -136h4c127 0 146 76 149 97h278v-2c0 -73 -29 -247 -397 -247z" />
    <glyph glyph-name="d" unicode="d" horiz-adv-x="932" 
d="M620 269v5c0 60 -55 124 -169 124h-5c-118 0 -151 -64 -151 -124v-5c0 -59 40 -127 152 -127h4c116 0 169 67 169 127zM620 744h272v-744h-271v78c-18 -20 -91 -88 -259 -88h-17c-235 0 -326 129 -326 272v21c0 137 84 265 318 265h19c166 0 239 -59 264 -78v274z" />
    <glyph glyph-name="e" unicode="e" horiz-adv-x="888" 
d="M444 421c-103 0 -142 -33 -155 -81h310c-11 51 -52 81 -155 81zM869 196v-2c0 -75 -46 -209 -397 -209h-53c-331 0 -400 151 -400 277v20c0 124 64 271 397 271h55c351 0 400 -164 400 -293v-30h-585c8 -56 54 -99 163 -99h1c129 0 149 53 151 65h268z" />
    <glyph glyph-name="f" unicode="f" horiz-adv-x="530" 
d="M510 744v-144h-84c-31 0 -37 -12 -37 -39v-23h121v-165h-121v-373h-270v373h-106v165h106v53c0 85 45 153 197 153h194z" />
    <glyph glyph-name="g" unicode="g" horiz-adv-x="942" 
d="M456 396h-6c-120 0 -156 -55 -156 -108v-5c0 -56 39 -114 156 -114h6c120 0 172 58 172 114v3c0 57 -52 110 -172 110zM506 -195h-77c-336 0 -377 136 -377 192v3h273c3 -13 16 -45 140 -45h3c132 0 163 69 163 137v11c-24 -24 -91 -80 -262 -80h-16
c-247 0 -334 125 -334 256v18c0 125 79 251 316 251h22c175 0 244 -55 273 -79v69h272v-448c0 -109 -59 -285 -396 -285z" />
    <glyph glyph-name="h" unicode="h" horiz-adv-x="897" 
d="M40 0v744h272v-300c23 23 109 106 276 106h6c201 0 264 -119 264 -204v-346h-273v257c0 72 -37 124 -130 124c-92 0 -143 -55 -143 -131v-250h-272z" />
    <glyph glyph-name="i" unicode="i" horiz-adv-x="352" 
d="M312 744v-161h-272v161h272zM312 538v-538h-272v538h272z" />
    <glyph glyph-name="j" unicode="j" horiz-adv-x="352" 
d="M312 744v-161h-272v161h272zM-28 -27h36c24 0 32 6 32 37v528h272v-578c0 -110 -52 -148 -112 -148h-228v161z" />
    <glyph glyph-name="k" unicode="k" horiz-adv-x="807" 
d="M312 0h-272v744h272v-416l184 210h293l-219 -238l251 -300h-309l-200 242v-242z" />
    <glyph glyph-name="l" unicode="l" horiz-adv-x="352" 
d="M312 744v-744h-272v744h272z" />
    <glyph glyph-name="m" unicode="m" horiz-adv-x="1382" 
d="M312 0h-272v538h270v-96c24 24 104 108 267 108h6c125 0 190 -53 222 -111c43 40 132 111 282 111h7c192 0 249 -120 249 -204v-346h-272v258c0 69 -29 123 -111 123c-85 0 -132 -57 -132 -130v-251h-273v258c0 69 -29 123 -111 123c-85 0 -132 -57 -132 -130v-251z" />
    <glyph glyph-name="n" unicode="n" horiz-adv-x="897" 
d="M40 0v538h270v-95c27 25 110 107 278 107h6c201 0 264 -119 264 -204v-346h-273v257c0 72 -37 124 -130 124c-92 0 -143 -55 -143 -131v-250h-272z" />
    <glyph glyph-name="o" unicode="o" horiz-adv-x="927" 
d="M501 -15h-74c-344 0 -408 163 -408 279v16c0 114 62 273 407 273h76c357 0 406 -160 406 -272v-18c0 -115 -45 -278 -407 -278zM465 401h-1c-134 0 -169 -67 -169 -126v-4c0 -59 34 -133 169 -133h1c133 0 168 77 168 133v4c0 59 -35 126 -168 126z" />
    <glyph glyph-name="p" unicode="p" horiz-adv-x="933" 
d="M312 272v-4c0 -60 50 -128 167 -128h5c121 0 154 70 154 128v4c0 62 -33 127 -154 127h-5c-119 0 -167 -64 -167 -127zM40 538h272v-75c21 19 104 85 262 85h21c247 0 319 -128 319 -263v-21c0 -133 -77 -274 -327 -274h-19c-153 0 -237 59 -256 76v-254h-272v726z" />
    <glyph glyph-name="q" unicode="q" horiz-adv-x="931" 
d="M641 538h251v-726h-272v261c-25 -25 -100 -83 -260 -83h-14c-243 0 -327 134 -327 273v21c0 133 82 264 319 264h18c165 0 242 -61 268 -82c8 19 16 51 17 72zM620 270v5c0 60 -55 123 -170 123h-5c-117 0 -150 -64 -150 -124v-5c0 -58 36 -128 151 -128h5
c116 0 169 68 169 129z" />
    <glyph glyph-name="r" unicode="r" horiz-adv-x="790" 
d="M310 538v-99c21 31 91 111 225 111h12c178 0 226 -123 226 -238v-54h-264v19c0 60 -26 110 -97 110c-64 0 -100 -48 -100 -116v-271h-272v538h270z" />
    <glyph glyph-name="s" unicode="s" horiz-adv-x="814" 
d="M427 -15h-55c-324 0 -359 121 -359 191v7h277c0 -20 10 -66 111 -66h2c96 0 111 22 111 45v2c0 26 -14 41 -103 44l-114 3c-227 8 -278 89 -278 169v6c0 88 56 167 353 167h53c289 0 353 -82 353 -167v-7h-272c-3 18 -10 50 -108 50h-1c-88 0 -105 -13 -105 -37v-1
c0 -21 17 -37 100 -40l113 -3c243 -8 293 -64 293 -171v-7c0 -99 -55 -185 -371 -185z" />
    <glyph glyph-name="t" unicode="t" horiz-adv-x="514" 
d="M489 0h-230c-93 0 -143 50 -143 153v220h-103v165h103v157h270v-157h103v-165h-103v-159c0 -33 6 -47 45 -47h58v-167z" />
    <glyph glyph-name="u" unicode="u" horiz-adv-x="887" 
d="M847 538v-538h-270v96c-26 -26 -108 -108 -273 -108h-7c-200 0 -258 123 -258 210v340h273v-257c0 -69 33 -124 124 -124s140 58 140 131v250h271z" />
    <glyph glyph-name="v" unicode="v" horiz-adv-x="837" 
d="M244 0l-255 538h291l148 -350l141 350h279l-245 -538h-359z" />
    <glyph glyph-name="w" unicode="w" horiz-adv-x="1219" 
d="M509 0h-307l-212 538h283l105 -339l103 339h280l105 -338l103 338h260l-200 -538h-304l-108 326z" />
    <glyph glyph-name="x" unicode="x" horiz-adv-x="848" 
d="M287 0h-297l248 277l-243 261h309l123 -141l120 141h299l-237 -257l250 -281h-303l-135 158z" />
    <glyph glyph-name="y" unicode="y" horiz-adv-x="827" 
d="M119 -188v166h122c20 0 25 8 25 17v1c0 11 -8 26 -23 54l-254 488h290l150 -346l139 346h270l-259 -561c-52 -113 -110 -165 -207 -165h-253z" />
    <glyph glyph-name="z" unicode="z" horiz-adv-x="752" 
d="M730 0h-708v146l358 233h-358v159h707v-143l-369 -230h370v-165z" />
    <glyph glyph-name="braceleft" unicode="{" horiz-adv-x="393" 
d="M380 -131h-156c-117 0 -179 34 -179 114c0 82 86 205 86 256c0 29 -15 43 -44 43h-68v118h68c31 0 44 14 44 35c0 55 -86 171 -86 252c0 79 54 121 179 121h156v-118h-85c-30 0 -45 -12 -45 -36c0 -43 66 -150 66 -209c0 -56 -28 -87 -105 -103c77 -15 105 -43 105 -90
c0 -64 -66 -177 -66 -220c0 -29 18 -44 53 -44h77v-119z" />
    <glyph glyph-name="bar" unicode="|" horiz-adv-x="371" 
d="M279 808v-939h-187v939h187z" />
    <glyph glyph-name="braceright" unicode="}" horiz-adv-x="393" 
d="M14 -131v119h76c35 0 53 15 53 44c0 43 -65 156 -65 220c0 47 27 75 104 90c-77 16 -104 47 -104 103c0 59 65 166 65 209c0 24 -15 36 -45 36h-84v118h155c125 0 179 -42 179 -121c0 -81 -85 -197 -85 -252c0 -21 12 -35 43 -35h68v-118h-68c-31 0 -43 -15 -43 -43
c0 -51 85 -174 85 -256c0 -80 -62 -114 -179 -114h-155z" />
    <glyph glyph-name="asciitilde" unicode="~" horiz-adv-x="694" 
d="M516 243c-79 0 -124 24 -196 64c-49 27 -63 36 -81 36c-17 0 -23 -11 -23 -30v-87h-193v148c0 76 33 168 157 168c80 0 124 -26 193 -63c43 -23 66 -37 83 -37c15 0 22 10 22 31v88h193v-172c0 -69 -39 -146 -155 -146z" />
    <glyph glyph-name="exclamdown" unicode="&#xa1;" horiz-adv-x="360" 
d="M348 -206h-349l92 504h166zM32 343v195h283v-195h-283z" />
    <glyph glyph-name="cent" unicode="&#xa2;" horiz-adv-x="901" 
d="M502 -77h-102v62c-333 4 -381 170 -381 278v18c0 108 48 267 381 272v61h102v-61c347 -4 383 -168 383 -240v-3h-277c-3 19 -18 74 -106 90v-260c88 16 103 75 106 94h277v-2c0 -71 -27 -243 -383 -247v-62zM295 278v-5c0 -56 24 -116 105 -132v259
c-82 -13 -105 -70 -105 -122z" />
    <glyph glyph-name="sterling" unicode="&#xa3;" horiz-adv-x="960" 
d="M933 261v-261h-917v165h57c64 0 101 18 101 69v2c0 23 -6 50 -15 79h-143v113h106c-9 31 -15 61 -15 92v7c0 104 62 226 378 226h41c365 0 391 -158 391 -262v-9h-278c-3 36 -13 100 -128 100c-108 0 -131 -50 -131 -104c0 -15 2 -31 6 -50h352v-113h-332
c2 -13 3 -26 3 -37c0 -64 -43 -97 -77 -113h311v96h290z" />
    <glyph glyph-name="yen" unicode="&#xa5;" horiz-adv-x="1016" 
d="M371 0v158h-258v88h258v48h-258v88h192l-325 362h335l207 -245l210 245h305l-316 -362h193v-88h-258v-48h258v-88h-258v-158h-285z" />
    <glyph glyph-name="section" unicode="&#xa7;" horiz-adv-x="956" 
d="M644 198c17 11 32 28 32 53c0 31 -16 58 -99 71c-176 27 -235 40 -273 48c-16 -8 -33 -26 -33 -53c0 -31 17 -59 102 -72c174 -30 232 -39 271 -47zM499 -209h-55c-368 0 -395 144 -395 227v4h269c3 -30 11 -88 155 -88h5c100 0 121 22 121 49v2c0 28 -11 48 -117 64
l-204 30c-205 29 -265 106 -265 194v10c0 82 66 128 149 144c-63 33 -86 82 -86 141v10c0 108 82 180 381 180h56c343 0 375 -113 375 -210v-3h-267c-3 24 -10 74 -139 74h-7c-112 0 -129 -16 -129 -43v-2c0 -25 13 -40 109 -56l235 -34c200 -29 251 -92 251 -185v-10
c0 -90 -83 -129 -149 -145c53 -28 83 -75 83 -142v-9c0 -100 -68 -202 -376 -202z" />
    <glyph glyph-name="dieresis" unicode="&#xa8;" 
d="M613 744v-161h-238v161h238zM329 744v-161h-237v161h237z" />
    <glyph glyph-name="copyright" unicode="&#xa9;" horiz-adv-x="1185" 
d="M604 -12h-23c-444 0 -558 179 -558 371v28c0 188 112 369 557 369h24c446 0 558 -182 558 -369v-28c0 -193 -114 -371 -558 -371zM157 381v-17c0 -153 94 -282 425 -282h21c331 0 425 129 425 282v17c0 164 -94 282 -425 282h-21c-331 0 -425 -118 -425 -282zM611 147
h-21c-296 0 -342 132 -342 217v23c0 87 43 213 341 213h20c299 0 335 -124 335 -184v-7h-223c-3 11 -17 61 -125 61c-103 0 -127 -42 -127 -89v-7c0 -45 25 -96 128 -96c108 0 122 56 124 68h223v-10c0 -63 -37 -189 -333 -189z" />
    <glyph glyph-name="ordfeminine" unicode="&#xaa;" horiz-adv-x="609" 
d="M261 471c64 0 101 35 101 72v11l-111 -20c-29 -6 -43 -17 -43 -32c0 -17 14 -31 53 -31zM372 436c-20 -20 -68 -57 -176 -57h-8c-133 0 -174 57 -174 115v7c0 61 49 94 166 105l161 14c16 3 21 6 21 17c0 13 -9 25 -72 25h-6c-68 0 -73 -22 -73 -33h-188v4
c0 45 9 118 244 118h39c232 0 251 -65 251 -113v-126c0 -9 2 -16 15 -16h22v-110h-164c-31 0 -53 17 -58 50z" />
    <glyph glyph-name="guillemotleft" unicode="&#xab;" horiz-adv-x="570" 
d="M201 287l116 -173h-185l-121 173l121 170h187zM442 287l110 -173h-185l-116 173l119 170h186z" />
    <glyph glyph-name="registered" unicode="&#xae;" horiz-adv-x="672" 
d="M320 756h35c251 0 300 -114 300 -203v-14c0 -94 -66 -203 -301 -203h-34c-246 0 -303 109 -303 203v14c0 89 52 203 303 203zM336 395h3c217 0 237 86 237 154c0 67 -20 147 -237 147h-3c-220 0 -240 -77 -240 -150c0 -68 20 -151 240 -151zM294 565h71c19 0 25 8 25 19
s-6 17 -25 17h-71v-36zM294 509v-69h-113v214h222c80 0 99 -26 99 -55v-1c0 -31 -27 -45 -51 -48c35 -7 53 -26 53 -51v-35c0 -12 2 -16 6 -21v-3h-115c-3 3 -5 5 -5 14v23c0 23 -7 32 -32 32h-64z" />
    <glyph glyph-name="macron" unicode="&#xaf;" 
d="M127 593v129h452v-129h-452z" />
    <glyph glyph-name="degree" unicode="&#xb0;" horiz-adv-x="430" 
d="M215 367c-116 0 -205 78 -205 194s89 194 205 194c115 0 205 -78 205 -194s-90 -194 -205 -194zM215 483c48 0 80 31 80 78s-32 79 -80 79c-47 0 -80 -32 -80 -79s33 -78 80 -78z" />
    <glyph glyph-name="acute" unicode="&#xb4;" 
d="M174 583l89 161h268l-111 -161h-246z" />
    <glyph glyph-name="paragraph" unicode="&#xb6;" horiz-adv-x="811" 
d="M323 0v316h-58c-185 0 -254 90 -254 206v19c0 115 50 203 255 203h534v-124h-76v-620h-152v620h-98v-620h-151z" />
    <glyph glyph-name="periodcentered" unicode="&#xb7;" horiz-adv-x="344" 
d="M313 415v-195h-282v195h282z" />
    <glyph glyph-name="cedilla" unicode="&#xb8;" 
d="M169 -259v92h109c28 0 36 9 36 22c0 12 -8 22 -36 22h-71v123h138v-49c160 0 192 -40 192 -102v-3c0 -57 -34 -105 -193 -105h-175z" />
    <glyph glyph-name="ordmasculine" unicode="&#xba;" horiz-adv-x="635" 
d="M342 376h-49c-238 0 -279 108 -279 184v11c0 76 41 180 279 180h50c245 0 278 -104 278 -180v-11c0 -76 -31 -184 -279 -184zM216 567v-2c0 -37 21 -81 101 -81h1c80 0 101 44 101 81v2c0 40 -24 78 -101 78h-1c-77 0 -101 -38 -101 -78z" />
    <glyph glyph-name="guillemotright" unicode="&#xbb;" horiz-adv-x="570" 
d="M128 287l-114 170h186l119 -170l-116 -173h-185zM438 114h-185l116 173l-118 170h187l121 -170z" />
    <glyph glyph-name="questiondown" unicode="&#xbf;" horiz-adv-x="899" 
d="M355 289h272v-67c0 -71 -18 -115 -156 -147l-99 -23c-74 -16 -88 -34 -88 -54c0 -24 9 -45 150 -45c168 0 170 55 173 86h275v-12c0 -92 -10 -243 -418 -243h-53c-350 0 -406 112 -406 212v7c0 90 47 162 189 197l101 24c53 13 60 28 60 60v5zM348 343v195h281v-195h-281
z" />
    <glyph glyph-name="Agrave" unicode="&#xc0;" horiz-adv-x="1107" 
d="M663 306l-125 256l-122 -256h247zM812 0l-58 120h-425l-57 -120h-288l368 744h382l389 -744h-311zM592 944l79 -155h-257l-101 155h279z" />
    <glyph glyph-name="Aacute" unicode="&#xc1;" horiz-adv-x="1107" 
d="M663 306l-125 256l-122 -256h247zM812 0l-58 120h-425l-57 -120h-288l368 744h382l389 -744h-311zM417 789l79 155h279l-101 -155h-257z" />
    <glyph glyph-name="Acircumflex" unicode="&#xc2;" horiz-adv-x="1107" 
d="M663 306l-125 256l-122 -256h247zM812 0l-58 120h-425l-57 -120h-288l368 744h382l389 -744h-311zM683 944l164 -155h-244l-62 58l-61 -58h-241l162 155h282z" />
    <glyph glyph-name="Atilde" unicode="&#xc3;" horiz-adv-x="1107" 
d="M663 306l-125 256l-122 -256h247zM812 0l-58 120h-425l-57 -120h-288l368 744h382l389 -744h-311zM676 793h-5c-45 0 -70 7 -135 29c-31 11 -45 15 -60 15s-18 -10 -18 -21v-29h-161v85c0 41 18 98 113 98h4c46 0 73 -10 137 -29c27 -9 44 -15 59 -15c11 0 17 9 17 20v29
h161v-79c0 -43 -13 -103 -112 -103z" />
    <glyph glyph-name="Adieresis" unicode="&#xc4;" horiz-adv-x="1107" 
d="M663 306l-125 256l-122 -256h247zM812 0l-58 120h-425l-57 -120h-288l368 744h382l389 -744h-311zM812 944v-155h-245v155h245zM519 944v-155h-246v155h246z" />
    <glyph glyph-name="Aring" unicode="&#xc5;" horiz-adv-x="1107" 
d="M663 306l-125 256l-122 -256h247zM812 0l-58 120h-425l-57 -120h-288l368 744h382l389 -744h-311zM344 899c0 65 45 119 200 119s197 -54 197 -119c0 -66 -42 -119 -197 -119c-157 0 -200 54 -200 119zM467 900c0 -28 22 -46 77 -46c53 0 75 18 75 46c0 27 -22 44 -75 44
c-55 0 -77 -17 -77 -44z" />
    <glyph glyph-name="AE" unicode="&#xc6;" horiz-adv-x="1516" 
d="M668 302v266l-191 -266h191zM668 0v116h-325l-83 -116h-286l540 744h960v-182h-526v-93h516v-181h-516v-102h534v-186h-814z" />
    <glyph glyph-name="Ccedilla" unicode="&#xc7;" horiz-adv-x="1126" 
d="M588 -14h-39c-457 0 -526 233 -526 374v29c0 142 62 369 526 369h39c452 0 518 -205 518 -301v-13h-295c-6 20 -29 114 -245 114c-205 0 -249 -91 -249 -174v-12c0 -80 50 -185 250 -185c219 0 241 105 245 122h294v-16c0 -97 -70 -307 -518 -307zM390 -259v92h109
c28 0 36 9 36 22c0 12 -8 22 -36 22h-71v123h138v-49c160 0 192 -40 192 -102v-3c0 -57 -34 -105 -193 -105h-175z" />
    <glyph glyph-name="Egrave" unicode="&#xc8;" horiz-adv-x="913" 
d="M48 744h823v-182h-543v-93h532v-181h-532v-102h551v-186h-831v744zM539 944l79 -155h-257l-101 155h279z" />
    <glyph glyph-name="Eacute" unicode="&#xc9;" horiz-adv-x="913" 
d="M48 744h823v-182h-543v-93h532v-181h-532v-102h551v-186h-831v744zM329 789l79 155h279l-101 -155h-257z" />
    <glyph glyph-name="Ecircumflex" unicode="&#xca;" horiz-adv-x="913" 
d="M48 744h823v-182h-543v-93h532v-181h-532v-102h551v-186h-831v744zM610 944l164 -155h-244l-62 58l-61 -58h-241l162 155h282z" />
    <glyph glyph-name="Edieresis" unicode="&#xcb;" horiz-adv-x="913" 
d="M48 744h823v-182h-543v-93h532v-181h-532v-102h551v-186h-831v744zM738 944v-155h-245v155h245zM445 944v-155h-246v155h246z" />
    <glyph glyph-name="Igrave" unicode="&#xcc;" horiz-adv-x="379" 
d="M331 744v-744h-283v744h283zM240 944l79 -155h-257l-101 155h279z" />
    <glyph glyph-name="Iacute" unicode="&#xcd;" horiz-adv-x="379" 
d="M331 744v-744h-283v744h283zM64 789l79 155h279l-101 -155h-257z" />
    <glyph glyph-name="Icircumflex" unicode="&#xce;" horiz-adv-x="379" 
d="M331 744v-744h-283v744h283zM330 944l164 -155h-244l-62 58l-61 -58h-241l162 155h282z" />
    <glyph glyph-name="Idieresis" unicode="&#xcf;" horiz-adv-x="379" 
d="M331 744v-744h-283v744h283zM459 944v-155h-245v155h245zM166 944v-155h-246v155h246z" />
    <glyph glyph-name="Ntilde" unicode="&#xd1;" horiz-adv-x="1128" 
d="M48 744h318l432 -423v423h282v-744h-284l-466 451v-451h-282v744zM701 793h-5c-45 0 -70 7 -135 29c-31 11 -45 15 -60 15s-18 -10 -18 -21v-29h-161v85c0 41 18 98 113 98h4c46 0 73 -10 137 -29c27 -9 44 -15 59 -15c11 0 17 9 17 20v29h161v-79
c0 -43 -13 -103 -112 -103z" />
    <glyph glyph-name="Ograve" unicode="&#xd2;" horiz-adv-x="1176" 
d="M566 758h45c480 0 542 -229 542 -369v-30c0 -139 -61 -373 -542 -373h-45c-482 0 -543 234 -543 373v30c0 140 61 369 543 369zM859 368v14c0 79 -51 176 -271 176c-224 0 -271 -97 -271 -176v-12c0 -78 51 -183 271 -183s271 101 271 181zM638 944l79 -155h-257
l-101 155h279z" />
    <glyph glyph-name="Oacute" unicode="&#xd3;" horiz-adv-x="1176" 
d="M566 758h45c480 0 542 -229 542 -369v-30c0 -139 -61 -373 -542 -373h-45c-482 0 -543 234 -543 373v30c0 140 61 369 543 369zM859 368v14c0 79 -51 176 -271 176c-224 0 -271 -97 -271 -176v-12c0 -78 51 -183 271 -183s271 101 271 181zM462 789l79 155h279l-101 -155
h-257z" />
    <glyph glyph-name="Ocircumflex" unicode="&#xd4;" horiz-adv-x="1176" 
d="M566 758h45c480 0 542 -229 542 -369v-30c0 -139 -61 -373 -542 -373h-45c-482 0 -543 234 -543 373v30c0 140 61 369 543 369zM859 368v14c0 79 -51 176 -271 176c-224 0 -271 -97 -271 -176v-12c0 -78 51 -183 271 -183s271 101 271 181zM729 944l164 -155h-244l-62 58
l-61 -58h-241l162 155h282z" />
    <glyph glyph-name="Otilde" unicode="&#xd5;" horiz-adv-x="1176" 
d="M566 758h45c480 0 542 -229 542 -369v-30c0 -139 -61 -373 -542 -373h-45c-482 0 -543 234 -543 373v30c0 140 61 369 543 369zM859 368v14c0 79 -51 176 -271 176c-224 0 -271 -97 -271 -176v-12c0 -78 51 -183 271 -183s271 101 271 181zM720 795h-5
c-45 0 -70 7 -135 29c-31 11 -45 15 -60 15s-18 -10 -18 -21v-29h-161v85c0 41 18 98 113 98h4c46 0 73 -10 137 -29c27 -9 44 -15 59 -15c11 0 17 9 17 20v29h161v-79c0 -43 -13 -103 -112 -103z" />
    <glyph glyph-name="Odieresis" unicode="&#xd6;" horiz-adv-x="1176" 
d="M566 758h45c480 0 542 -229 542 -369v-30c0 -139 -61 -373 -542 -373h-45c-482 0 -543 234 -543 373v30c0 140 61 369 543 369zM859 368v14c0 79 -51 176 -271 176c-224 0 -271 -97 -271 -176v-12c0 -78 51 -183 271 -183s271 101 271 181zM857 944v-155h-245v155h245z
M564 944v-155h-246v155h246z" />
    <glyph glyph-name="Oslash" unicode="&#xd8;" horiz-adv-x="1181" 
d="M614 -13h-46c-125 0 -224 16 -300 47l-44 -34h-230c13 11 28 22 44 34c27 20 61 47 96 74c-83 71 -112 159 -112 250v30c0 142 61 369 546 369h46c124 0 218 -17 294 -46l43 33h231l-138 -107c81 -68 115 -154 115 -249v-30c0 -139 -64 -371 -545 -371zM313 383v-13
c0 -35 8 -69 31 -100l364 285c-32 4 -71 6 -118 6c-227 0 -277 -94 -277 -178zM590 185c223 0 278 98 278 184v14c0 33 -8 68 -29 97l-369 -288c33 -4 73 -7 120 -7z" />
    <glyph glyph-name="Ugrave" unicode="&#xd9;" horiz-adv-x="1104" 
d="M40 389v355h285v-333c0 -91 40 -200 228 -200c185 0 227 109 227 200v333h284v-355c0 -144 -69 -401 -490 -401h-40c-433 0 -494 257 -494 401zM613 943l79 -155h-257l-101 155h279z" />
    <glyph glyph-name="Uacute" unicode="&#xda;" horiz-adv-x="1104" 
d="M40 389v355h285v-333c0 -91 40 -200 228 -200c185 0 227 109 227 200v333h284v-355c0 -144 -69 -401 -490 -401h-40c-433 0 -494 257 -494 401zM412 789l79 155h279l-101 -155h-257z" />
    <glyph glyph-name="Ucircumflex" unicode="&#xdb;" horiz-adv-x="1104" 
d="M40 389v355h285v-333c0 -91 40 -200 228 -200c185 0 227 109 227 200v333h284v-355c0 -144 -69 -401 -490 -401h-40c-433 0 -494 257 -494 401zM691 944l164 -155h-244l-62 58l-61 -58h-241l162 155h282z" />
    <glyph glyph-name="Udieresis" unicode="&#xdc;" horiz-adv-x="1104" 
d="M40 389v355h285v-333c0 -91 40 -200 228 -200c185 0 227 109 227 200v333h284v-355c0 -144 -69 -401 -490 -401h-40c-433 0 -494 257 -494 401zM821 944v-155h-245v155h245zM528 944v-155h-246v155h246z" />
    <glyph glyph-name="germandbls" unicode="&#xdf;" horiz-adv-x="916" 
d="M711 435c104 -19 189 -77 189 -195v-12c0 -111 -59 -228 -317 -228h-216v169h130c97 0 117 32 117 69v2c0 37 -20 68 -116 68h-131v170h120c80 0 94 29 94 54v1c0 26 -8 58 -126 58h-21c-98 0 -122 -28 -122 -80v-511h-272v527c0 98 40 217 357 217h78
c341 0 368 -98 368 -172v-7c0 -71 -63 -119 -132 -130z" />
    <glyph glyph-name="agrave" unicode="&#xe0;" horiz-adv-x="846" 
d="M521 231v23l-180 -32c-47 -8 -66 -19 -66 -46v-1c0 -25 18 -55 85 -55c100 0 161 55 161 111zM526 72c-26 -26 -95 -82 -252 -82h-11c-180 0 -249 85 -249 173v12c0 90 58 143 218 156l259 23c23 3 30 11 30 26c0 20 -11 41 -117 41h-4c-115 0 -118 -38 -121 -55h-252v6
c0 72 22 180 345 180h56c336 0 359 -100 359 -173v-199c0 -15 4 -23 23 -23h29v-157h-226c-47 0 -79 25 -87 72zM530 583h-247l-111 161h270z" />
    <glyph glyph-name="aacute" unicode="&#xe1;" horiz-adv-x="846" 
d="M521 231v23l-180 -32c-47 -8 -66 -19 -66 -46v-1c0 -25 18 -55 85 -55c100 0 161 55 161 111zM526 72c-26 -26 -95 -82 -252 -82h-11c-180 0 -249 85 -249 173v12c0 90 58 143 218 156l259 23c23 3 30 11 30 26c0 20 -11 41 -117 41h-4c-115 0 -118 -38 -121 -55h-252v6
c0 72 22 180 345 180h56c336 0 359 -100 359 -173v-199c0 -15 4 -23 23 -23h29v-157h-226c-47 0 -79 25 -87 72zM280 583l89 161h268l-111 -161h-246z" />
    <glyph glyph-name="acircumflex" unicode="&#xe2;" horiz-adv-x="846" 
d="M521 231v23l-180 -32c-47 -8 -66 -19 -66 -46v-1c0 -25 18 -55 85 -55c100 0 161 55 161 111zM526 72c-26 -26 -95 -82 -252 -82h-11c-180 0 -249 85 -249 173v12c0 90 58 143 218 156l259 23c23 3 30 11 30 26c0 20 -11 41 -117 41h-4c-115 0 -118 -38 -121 -55h-252v6
c0 72 22 180 345 180h56c336 0 359 -100 359 -173v-199c0 -15 4 -23 23 -23h29v-157h-226c-47 0 -79 25 -87 72zM542 744l153 -162h-237l-58 66l-58 -66h-233l152 162h281z" />
    <glyph glyph-name="atilde" unicode="&#xe3;" horiz-adv-x="846" 
d="M521 231v23l-180 -32c-47 -8 -66 -19 -66 -46v-1c0 -25 18 -55 85 -55c100 0 161 55 161 111zM526 72c-26 -26 -95 -82 -252 -82h-11c-180 0 -249 85 -249 173v12c0 90 58 143 218 156l259 23c23 3 30 11 30 26c0 20 -11 41 -117 41h-4c-115 0 -118 -38 -121 -55h-252v6
c0 72 22 180 345 180h56c336 0 359 -100 359 -173v-199c0 -15 4 -23 23 -23h29v-157h-226c-47 0 -79 25 -87 72zM529 587h-4c-40 0 -68 8 -132 29c-29 9 -43 14 -56 14s-16 -9 -16 -21v-27h-159v81c0 41 17 97 110 97h4c44 0 67 -7 133 -28c27 -9 40 -15 55 -15
c11 0 15 9 15 20v29h160v-76c0 -43 -13 -103 -110 -103z" />
    <glyph glyph-name="adieresis" unicode="&#xe4;" horiz-adv-x="846" 
d="M521 231v23l-180 -32c-47 -8 -66 -19 -66 -46v-1c0 -25 18 -55 85 -55c100 0 161 55 161 111zM526 72c-26 -26 -95 -82 -252 -82h-11c-180 0 -249 85 -249 173v12c0 90 58 143 218 156l259 23c23 3 30 11 30 26c0 20 -11 41 -117 41h-4c-115 0 -118 -38 -121 -55h-252v6
c0 72 22 180 345 180h56c336 0 359 -100 359 -173v-199c0 -15 4 -23 23 -23h29v-157h-226c-47 0 -79 25 -87 72zM662 744v-161h-238v161h238zM378 744v-161h-237v161h237z" />
    <glyph glyph-name="aring" unicode="&#xe5;" horiz-adv-x="846" 
d="M521 231v23l-180 -32c-47 -8 -66 -19 -66 -46v-1c0 -25 18 -55 85 -55c100 0 161 55 161 111zM526 72c-26 -26 -95 -82 -252 -82h-11c-180 0 -249 85 -249 173v12c0 90 58 143 218 156l259 23c23 3 30 11 30 26c0 20 -11 41 -117 41h-4c-115 0 -118 -38 -121 -55h-252v6
c0 72 22 180 345 180h56c336 0 359 -100 359 -173v-199c0 -15 4 -23 23 -23h29v-157h-226c-47 0 -79 25 -87 72zM203 696c0 64 46 118 198 118s195 -54 195 -118c0 -66 -43 -119 -195 -119c-156 0 -198 54 -198 119zM326 696c0 -27 23 -45 75 -45c51 0 73 18 73 45
s-22 44 -73 44c-52 0 -75 -17 -75 -44z" />
    <glyph glyph-name="ae" unicode="&#xe6;" horiz-adv-x="1381" 
d="M941 421h-2c-103 0 -142 -33 -154 -81h310c-11 51 -53 81 -154 81zM359 119c98 0 158 55 158 112v23l-178 -31c-44 -8 -65 -19 -65 -46v-1c0 -27 20 -57 85 -57zM1362 196v-2c0 -75 -44 -208 -393 -208h-55c-189 0 -287 50 -342 113c-30 -33 -106 -109 -282 -109h-11
c-199 0 -265 85 -265 173v12c0 91 60 144 217 157l263 23c19 3 23 11 23 26v1c0 18 -12 38 -116 38h-5c-112 0 -117 -37 -117 -54h-251v6c0 68 15 180 341 180h55c147 0 215 -26 250 -50c36 23 109 50 237 50h57c353 0 396 -164 396 -292v-30h-582c8 -56 53 -99 162 -99h1
c131 0 151 54 151 65h266z" />
    <glyph glyph-name="ccedilla" unicode="&#xe7;" horiz-adv-x="887" 
d="M475 -15h-60c-345 0 -396 166 -396 278v18c0 111 50 272 395 272h62c359 0 396 -166 396 -240v-3h-278c-3 20 -21 93 -149 93h-4c-116 0 -146 -64 -146 -125v-5c0 -65 32 -136 146 -136h4c127 0 146 76 149 97h278v-2c0 -73 -29 -247 -397 -247zM260 -259v92h109
c28 0 36 9 36 22c0 12 -8 22 -36 22h-71v123h138v-49c160 0 192 -40 192 -102v-3c0 -57 -34 -105 -193 -105h-175z" />
    <glyph glyph-name="egrave" unicode="&#xe8;" horiz-adv-x="888" 
d="M444 421c-103 0 -142 -33 -155 -81h310c-11 51 -52 81 -155 81zM869 196v-2c0 -75 -46 -209 -397 -209h-53c-331 0 -400 151 -400 277v20c0 124 64 271 397 271h55c351 0 400 -164 400 -293v-30h-585c8 -56 54 -99 163 -99h1c129 0 149 53 151 65h268zM566 583h-247
l-111 161h270z" />
    <glyph glyph-name="eacute" unicode="&#xe9;" horiz-adv-x="888" 
d="M444 421c-103 0 -142 -33 -155 -81h310c-11 51 -52 81 -155 81zM869 196v-2c0 -75 -46 -209 -397 -209h-53c-331 0 -400 151 -400 277v20c0 124 64 271 397 271h55c351 0 400 -164 400 -293v-30h-585c8 -56 54 -99 163 -99h1c129 0 149 53 151 65h268zM324 583l89 161
h268l-111 -161h-246z" />
    <glyph glyph-name="ecircumflex" unicode="&#xea;" horiz-adv-x="888" 
d="M444 421c-103 0 -142 -33 -155 -81h310c-11 51 -52 81 -155 81zM869 196v-2c0 -75 -46 -209 -397 -209h-53c-331 0 -400 151 -400 277v20c0 124 64 271 397 271h55c351 0 400 -164 400 -293v-30h-585c8 -56 54 -99 163 -99h1c129 0 149 53 151 65h268zM586 744l153 -162
h-237l-58 66l-58 -66h-233l152 162h281z" />
    <glyph glyph-name="edieresis" unicode="&#xeb;" horiz-adv-x="888" 
d="M444 421c-103 0 -142 -33 -155 -81h310c-11 51 -52 81 -155 81zM869 196v-2c0 -75 -46 -209 -397 -209h-53c-331 0 -400 151 -400 277v20c0 124 64 271 397 271h55c351 0 400 -164 400 -293v-30h-585c8 -56 54 -99 163 -99h1c129 0 149 53 151 65h268zM706 744v-161h-238
v161h238zM422 744v-161h-237v161h237z" />
    <glyph glyph-name="igrave" unicode="&#xec;" horiz-adv-x="352" 
d="M312 538v-538h-272v538h272zM300 583h-247l-111 161h270z" />
    <glyph glyph-name="iacute" unicode="&#xed;" horiz-adv-x="352" 
d="M312 538v-538h-272v538h272zM54 583l89 161h268l-111 -161h-246z" />
    <glyph glyph-name="icircumflex" unicode="&#xee;" horiz-adv-x="352" 
d="M301 744l109 -161h-192l-44 66l-43 -66h-190l109 161h251zM312 538v-538h-272v538h272z" />
    <glyph glyph-name="idieresis" unicode="&#xef;" horiz-adv-x="352" 
d="M383 744v-161h-189v161h189zM157 744v-161h-188v161h188zM312 538v-538h-272v538h272z" />
    <glyph glyph-name="ntilde" unicode="&#xf1;" horiz-adv-x="897" 
d="M40 0v538h270v-95c27 25 110 107 278 107h6c201 0 264 -119 264 -204v-346h-273v257c0 72 -37 124 -130 124c-92 0 -143 -55 -143 -131v-250h-272zM577 585h-4c-40 0 -68 8 -132 29c-29 9 -43 14 -56 14s-16 -9 -16 -21v-27h-159v81c0 41 17 97 110 97h4
c44 0 67 -7 133 -28c27 -9 40 -15 55 -15c11 0 15 9 15 20v29h160v-76c0 -43 -13 -103 -110 -103z" />
    <glyph glyph-name="ograve" unicode="&#xf2;" horiz-adv-x="927" 
d="M501 -15h-74c-344 0 -408 163 -408 279v16c0 114 62 273 407 273h76c357 0 406 -160 406 -272v-18c0 -115 -45 -278 -407 -278zM465 401h-1c-134 0 -169 -67 -169 -126v-4c0 -59 34 -133 169 -133h1c133 0 168 77 168 133v4c0 59 -35 126 -168 126zM587 583h-247
l-111 161h270z" />
    <glyph glyph-name="oacute" unicode="&#xf3;" horiz-adv-x="927" 
d="M501 -15h-74c-344 0 -408 163 -408 279v16c0 114 62 273 407 273h76c357 0 406 -160 406 -272v-18c0 -115 -45 -278 -407 -278zM465 401h-1c-134 0 -169 -67 -169 -126v-4c0 -59 34 -133 169 -133h1c133 0 168 77 168 133v4c0 59 -35 126 -168 126zM340 583l89 161h268
l-111 -161h-246z" />
    <glyph glyph-name="ocircumflex" unicode="&#xf4;" horiz-adv-x="927" 
d="M501 -15h-74c-344 0 -408 163 -408 279v16c0 114 62 273 407 273h76c357 0 406 -160 406 -272v-18c0 -115 -45 -278 -407 -278zM465 401h-1c-134 0 -169 -67 -169 -126v-4c0 -59 34 -133 169 -133h1c133 0 168 77 168 133v4c0 59 -35 126 -168 126zM604 744l153 -162
h-237l-58 66l-58 -66h-233l152 162h281z" />
    <glyph glyph-name="otilde" unicode="&#xf5;" horiz-adv-x="927" 
d="M501 -15h-74c-344 0 -408 163 -408 279v16c0 114 62 273 407 273h76c357 0 406 -160 406 -272v-18c0 -115 -45 -278 -407 -278zM465 401h-1c-134 0 -169 -67 -169 -126v-4c0 -59 34 -133 169 -133h1c133 0 168 77 168 133v4c0 59 -35 126 -168 126zM590 587h-4
c-40 0 -68 8 -132 29c-29 9 -43 14 -56 14s-16 -9 -16 -21v-27h-159v81c0 41 17 97 110 97h4c44 0 67 -7 133 -28c27 -9 40 -15 55 -15c11 0 15 9 15 20v29h160v-76c0 -43 -13 -103 -110 -103z" />
    <glyph glyph-name="odieresis" unicode="&#xf6;" horiz-adv-x="927" 
d="M501 -15h-74c-344 0 -408 163 -408 279v16c0 114 62 273 407 273h76c357 0 406 -160 406 -272v-18c0 -115 -45 -278 -407 -278zM465 401h-1c-134 0 -169 -67 -169 -126v-4c0 -59 34 -133 169 -133h1c133 0 168 77 168 133v4c0 59 -35 126 -168 126zM724 744v-161h-238
v161h238zM440 744v-161h-237v161h237z" />
    <glyph glyph-name="divide" unicode="&#xf7;" horiz-adv-x="614" 
d="M407 592v-160h-200v160h200zM30 384h554v-151h-554v151zM407 183v-160h-200v160h200z" />
    <glyph glyph-name="oslash" unicode="&#xf8;" horiz-adv-x="927" 
d="M499 -15h-74c-92 0 -170 16 -225 39l-37 -24h-177l118 82c-56 43 -85 106 -85 182v16c0 114 64 273 409 273h75c100 0 175 -19 223 -38l34 23h180l-115 -79c55 -46 83 -105 83 -178v-18c0 -115 -48 -278 -409 -278zM289 275v-4c0 -19 3 -38 10 -55l254 176
c-23 7 -52 12 -88 12h-2c-140 0 -174 -69 -174 -129zM464 136h1c140 0 174 77 174 135v4c0 16 -1 33 -8 49l-253 -176c23 -8 51 -12 86 -12z" />
    <glyph glyph-name="ugrave" unicode="&#xf9;" horiz-adv-x="887" 
d="M847 538v-538h-270v96c-26 -26 -108 -108 -273 -108h-7c-200 0 -258 123 -258 210v340h273v-257c0 -69 33 -124 124 -124s140 58 140 131v250h271zM570 583h-247l-111 161h270z" />
    <glyph glyph-name="uacute" unicode="&#xfa;" horiz-adv-x="887" 
d="M847 538v-538h-270v96c-26 -26 -108 -108 -273 -108h-7c-200 0 -258 123 -258 210v340h273v-257c0 -69 33 -124 124 -124s140 58 140 131v250h271zM315 583l89 161h268l-111 -161h-246z" />
    <glyph glyph-name="ucircumflex" unicode="&#xfb;" horiz-adv-x="887" 
d="M847 538v-538h-270v96c-26 -26 -108 -108 -273 -108h-7c-200 0 -258 123 -258 210v340h273v-257c0 -69 33 -124 124 -124s140 58 140 131v250h271zM583 744l153 -162h-237l-58 66l-58 -66h-233l152 162h281z" />
    <glyph glyph-name="udieresis" unicode="&#xfc;" horiz-adv-x="887" 
d="M847 538v-538h-270v96c-26 -26 -108 -108 -273 -108h-7c-200 0 -258 123 -258 210v340h273v-257c0 -69 33 -124 124 -124s140 58 140 131v250h271zM703 744v-161h-238v161h238zM419 744v-161h-237v161h237z" />
    <glyph glyph-name="ydieresis" unicode="&#xff;" horiz-adv-x="827" 
d="M119 -188v166h122c20 0 25 8 25 17v1c0 11 -8 26 -23 54l-254 488h290l150 -346l139 346h270l-259 -561c-52 -113 -110 -165 -207 -165h-253zM685 744v-161h-238v161h238zM401 744v-161h-237v161h237z" />
    <glyph glyph-name="dotlessi" unicode="&#x131;" horiz-adv-x="352" 
d="M312 538v-538h-272v538h272z" />
    <glyph glyph-name="OE" unicode="&#x152;" horiz-adv-x="1696" 
d="M583 557c-220 0 -266 -94 -266 -175v-12c0 -79 50 -182 266 -182s265 100 265 180v14c0 81 -49 175 -265 175zM885 0v70c-45 -37 -149 -83 -324 -83h-37c-436 0 -501 232 -501 371v30c0 141 63 368 501 368h37c179 0 276 -42 324 -74v62h769v-182h-526v-93h516v-181h-516
v-102h534v-186h-777z" />
    <glyph glyph-name="oe" unicode="&#x153;" horiz-adv-x="1501" 
d="M1061 421c-101 0 -141 -33 -154 -81h308c-11 51 -53 81 -154 81zM295 275v-4c0 -59 34 -133 167 -133h1c133 0 167 77 167 133v4c0 59 -34 126 -166 126h-2c-133 0 -167 -67 -167 -126zM773 66c-51 -47 -141 -81 -296 -81h-56c-340 0 -402 163 -402 279v16
c0 114 60 273 401 273h58c152 0 241 -34 294 -79c52 45 138 78 282 78h39c347 0 391 -164 391 -292v-30h-580c8 -56 54 -99 161 -99h1c129 0 149 53 151 65h266v-2c0 -72 -41 -208 -389 -208h-36c-144 0 -230 33 -285 80z" />
    <glyph glyph-name="Ydieresis" unicode="&#x178;" horiz-adv-x="1049" 
d="M387 0v280l-407 464h340l217 -257l221 257h311l-398 -466v-278h-284zM804 944v-155h-245v155h245zM511 944v-155h-246v155h246z" />
    <glyph glyph-name="circumflex" unicode="&#x2c6;" 
d="M493 744l153 -162h-237l-58 66l-58 -66h-233l152 162h281z" />
    <glyph glyph-name="caron" unicode="&#x2c7;" 
d="M213 583l-153 161h236l58 -65l58 65h234l-152 -161h-281z" />
    <glyph glyph-name="breve" unicode="&#x2d8;" 
d="M595 744v-2c0 -54 -47 -165 -221 -165h-40c-191 0 -223 111 -223 165v2h181c0 -13 8 -48 63 -48c52 0 62 35 62 48h178z" />
    <glyph glyph-name="dotaccent" unicode="&#x2d9;" 
d="M488 744v-161h-271v161h271z" />
    <glyph glyph-name="ring" unicode="&#x2da;" 
d="M157 695c0 64 46 118 198 118s195 -54 195 -118c0 -66 -43 -119 -195 -119c-156 0 -198 54 -198 119zM280 695c0 -27 23 -45 75 -45c51 0 73 18 73 45s-22 44 -73 44c-52 0 -75 -17 -75 -44z" />
    <glyph glyph-name="ogonek" unicode="&#x2db;" 
d="M196 -116v3c0 55 69 84 193 113h114c-35 -23 -60 -41 -60 -61c0 -14 11 -21 33 -21h27v-106h-160c-104 0 -147 25 -147 72z" />
    <glyph glyph-name="tilde" unicode="&#x2dc;" 
d="M481 585h-4c-40 0 -68 8 -132 29c-29 9 -43 14 -56 14s-16 -9 -16 -21v-27h-159v81c0 41 17 97 110 97h4c44 0 67 -7 133 -28c27 -9 40 -15 55 -15c11 0 15 9 15 20v29h160v-76c0 -43 -13 -103 -110 -103z" />
    <glyph glyph-name="hungarumlaut" unicode="&#x2dd;" 
d="M340 583l63 161h237l-69 -161h-231zM67 583l56 161h236l-62 -161h-230z" />
    <glyph glyph-name="endash" unicode="&#x2013;" horiz-adv-x="920" 
d="M33 369h854v-142h-854v142z" />
    <glyph glyph-name="emdash" unicode="&#x2014;" horiz-adv-x="1373" 
d="M33 369h1307v-142h-1307v142z" />
    <glyph glyph-name="quoteleft" unicode="&#x2018;" horiz-adv-x="328" 
d="M87 744h139c-17 -31 -35 -75 -40 -104h112v-165h-267v134c0 45 32 103 56 135z" />
    <glyph glyph-name="quoteright" unicode="&#x2019;" horiz-adv-x="328" 
d="M242 475h-140c17 31 36 75 40 104h-111v165h267v-134c0 -45 -32 -103 -56 -135z" />
    <glyph glyph-name="quotesinglbase" unicode="&#x201a;" horiz-adv-x="328" 
d="M242 -104h-140c17 31 36 75 40 104h-111v165h267v-133c0 -46 -32 -104 -56 -136z" />
    <glyph glyph-name="quotedblleft" unicode="&#x201c;" horiz-adv-x="631" 
d="M87 744h139c-17 -31 -35 -75 -40 -104h112v-165h-267v134c0 45 32 103 56 135zM390 744h139c-17 -31 -35 -75 -40 -104h112v-165h-267v134c0 45 32 103 56 135z" />
    <glyph glyph-name="quotedblright" unicode="&#x201d;" horiz-adv-x="631" 
d="M242 475h-140c17 31 36 75 40 104h-111v165h267v-134c0 -45 -32 -103 -56 -135zM545 475h-140c17 31 36 75 40 104h-111v165h267v-134c0 -45 -32 -103 -56 -135z" />
    <glyph glyph-name="quotedblbase" unicode="&#x201e;" horiz-adv-x="631" 
d="M545 -104h-140c17 31 36 75 40 104h-111v165h267v-133c0 -46 -32 -104 -56 -136zM242 -104h-140c17 31 36 75 40 104h-111v165h267v-133c0 -46 -32 -104 -56 -136z" />
    <glyph glyph-name="dagger" unicode="&#x2020;" horiz-adv-x="587" 
d="M166 0v413h-143v182h143v149h254v-149h144v-182h-144v-413h-254z" />
    <glyph glyph-name="daggerdbl" unicode="&#x2021;" horiz-adv-x="590" 
d="M171 141h-145v171h145v124h-145v172h145v136h249v-136h144v-172h-144v-124h144v-171h-144v-141h-249v141z" />
    <glyph glyph-name="bullet" unicode="&#x2022;" horiz-adv-x="468" 
d="M444 330c0 -120 -90 -204 -210 -204c-119 0 -210 84 -210 204c0 119 91 203 210 203c120 0 210 -84 210 -203z" />
    <glyph glyph-name="ellipsis" unicode="&#x2026;" horiz-adv-x="1012" 
d="M313 195v-195h-282v195h282zM647 195v-195h-282v195h282zM981 195v-195h-282v195h282z" />
    <glyph glyph-name="perthousand" unicode="&#x2030;" horiz-adv-x="2095" 
d="M342 321h-22c-256 0 -297 133 -297 210v16c0 77 42 205 297 205h22c255 0 296 -128 296 -205v-16c0 -77 -41 -210 -296 -210zM1025 744h215l-816 -744h-215zM330 453c85 0 115 42 115 82v6c0 43 -27 81 -115 81c-86 0 -114 -38 -114 -81v-5c0 -41 30 -83 114 -83z
M1132 -8h-24c-254 0 -296 133 -296 210v16c0 78 42 206 297 206h22c255 0 297 -128 297 -206v-16c0 -77 -41 -210 -296 -210zM1776 -8h-23c-255 0 -297 133 -297 210v16c0 78 42 206 298 206h22c254 0 296 -128 296 -206v-16c0 -77 -41 -210 -296 -210zM1120 124
c85 0 115 42 115 82v7c0 43 -30 80 -115 80c-88 0 -115 -37 -115 -80v-5c0 -43 30 -84 115 -84zM1764 124c85 0 115 42 115 82v7c0 43 -30 80 -115 80c-87 0 -114 -37 -114 -80v-5c0 -43 28 -84 114 -84z" />
    <glyph glyph-name="guilsinglleft" unicode="&#x2039;" horiz-adv-x="351" 
d="M334 114h-196l-127 173l128 170h198l-124 -170z" />
    <glyph glyph-name="guilsinglright" unicode="&#x203a;" horiz-adv-x="351" 
d="M214 114h-197l121 173l-124 170h198l128 -170z" />
    <glyph glyph-name="fraction" unicode="&#x2044;" horiz-adv-x="1015" 
d="M817 744h195l-820 -744h-189z" />
    <glyph glyph-name="Euro" unicode="&#x20ac;" horiz-adv-x="1161" 
d="M645 -14h-40c-332 0 -455 147 -489 279h-105v88h92v48h-92v88h105c35 131 158 269 489 269h40c416 0 495 -202 495 -298v-12h-295c-5 21 -35 116 -225 116c-113 0 -174 -28 -205 -75h292v-88h-317c0 -5 -1 -10 -1 -17v-12c0 -7 1 -12 1 -19h317v-88h-290
c31 -51 93 -84 204 -84c193 0 219 104 224 124h295v-12c0 -99 -77 -307 -495 -307z" />
    <glyph glyph-name="trademark" unicode="&#x2122;" horiz-adv-x="1112" 
d="M444 627h-127v-241h-175v241h-127v117h429v-117zM481 386v358h236l69 -176l70 176h225v-358h-153v223l-94 -223h-108l-94 223v-223h-151z" />
    <glyph glyph-name="uni0192" unicode="&#x192;" horiz-adv-x="544" 
d="M514 320h-124l-26 -510h-270l25 510h-98v166h106l5 105c5 84 44 153 204 153h178v-154h-75c-31 0 -35 -12 -38 -39l-3 -65h116v-166z" />
    <glyph glyph-name="brokenbar" unicode="&#xa6;" horiz-adv-x="371" 
d="M279 808v-425h-187v425h187zM279 328v-459h-187v459h187z" />
    <glyph glyph-name="onequarter" unicode="&#xbc;" horiz-adv-x="1006" 
d="M115 580h-100v93c81 3 116 32 132 71h154v-368h-186v204zM772 744h195l-820 -744h-189zM461 167l256 202h201v-190h75v-107h-75v-72h-185v72h-272v95zM606 179h127v100z" />
    <glyph glyph-name="onehalf" unicode="&#xbd;" horiz-adv-x="1080" 
d="M772 744h195l-820 -744h-189zM115 580h-100v93c81 3 116 32 132 71h154v-368h-186v204zM1062 0h-524v47c0 72 21 138 254 178c71 11 83 22 83 33v1c0 11 -10 22 -70 22c-71 0 -79 -28 -79 -43h-182v4c0 45 18 134 249 134h19c212 0 251 -54 251 -118v-5
c0 -72 -66 -95 -236 -114c-80 -11 -123 -14 -134 -29h369v-110z" />
    <glyph glyph-name="threequarters" unicode="&#xbe;" horiz-adv-x="1197" 
d="M962 744h195l-820 -744h-189zM294 370h-33c-231 0 -253 98 -253 139v5h184c0 -9 7 -40 86 -40c78 0 87 15 87 28v2c0 13 -8 21 -43 21h-112v90h107c33 0 41 8 41 17v2c0 11 -9 22 -84 22c-78 0 -82 -24 -82 -31h-178v5c0 29 12 123 241 123h34c230 0 256 -50 256 -94v-4
c0 -36 -34 -59 -77 -64c52 -8 93 -38 93 -90v-4c0 -60 -38 -127 -267 -127zM653 167l256 202h201v-190h75v-107h-75v-72h-185v72h-272v95zM798 179h127v100z" />
    <glyph glyph-name="Eth" unicode="&#xd0;" horiz-adv-x="1148" 
d="M63 0v296h-61v157h61v291h528c429 0 537 -177 537 -352v-30c0 -169 -93 -362 -536 -362h-529zM347 549v-96h301v-157h-301v-99h211c248 0 275 109 275 174v6c0 65 -27 172 -275 172h-211z" />
    <glyph glyph-name="multiply" unicode="&#xd7;" horiz-adv-x="551" 
d="M431 61l-156 139l-154 -139l-109 118l143 129l-142 126l106 120l155 -139l154 139l110 -118l-144 -129l144 -129z" />
    <glyph glyph-name="Yacute" unicode="&#xdd;" horiz-adv-x="1049" 
d="M387 0v280l-407 464h340l217 -257l221 257h311l-398 -466v-278h-284zM403 789l79 155h279l-101 -155h-257z" />
    <glyph glyph-name="Thorn" unicode="&#xde;" horiz-adv-x="1035" 
d="M661 120h-329v-120h-284v744h284v-112h329c277 0 358 -105 358 -247v-15c0 -136 -81 -250 -358 -250zM332 447v-140h299c63 0 93 26 93 69v3c0 43 -29 68 -93 68h-299z" />
    <glyph glyph-name="eth" unicode="&#xf0;" horiz-adv-x="927" 
d="M487 -15h-55c-328 0 -413 145 -413 270v23c0 131 72 259 313 259h14c104 0 170 -23 221 -48l-132 95l-276 -30v91l166 18l-111 81h327l70 -50l213 23v-91l-102 -11c136 -99 186 -192 186 -313v-20c0 -119 -33 -297 -421 -297zM632 269v4c0 59 -36 126 -168 126h-2
c-133 0 -168 -67 -168 -126v-4c0 -60 35 -131 168 -131h1c134 0 169 71 169 131z" />
    <glyph glyph-name="yacute" unicode="&#xfd;" horiz-adv-x="827" 
d="M119 -188v166h122c20 0 25 8 25 17v1c0 11 -8 26 -23 54l-254 488h290l150 -346l139 346h270l-259 -561c-52 -113 -110 -165 -207 -165h-253zM292 583l89 161h268l-111 -161h-246z" />
    <glyph glyph-name="thorn" unicode="&#xfe;" horiz-adv-x="933" 
d="M312 272v-4c0 -60 50 -128 167 -128h5c121 0 154 70 154 128v4c0 62 -33 127 -154 127h-5c-119 0 -167 -64 -167 -127zM40 744h272v-281c21 18 104 85 262 85h21c247 0 319 -130 319 -263v-21c0 -135 -77 -274 -325 -274h-19c-153 0 -240 58 -258 76v-254h-272v932z" />
    <glyph glyph-name="Lslash" unicode="&#x141;" horiz-adv-x="895" 
d="M68 744h284v-290l303 108v-156l-303 -105v-88h516v-213h-800v203l-69 -24v149l69 24v392z" />
    <glyph glyph-name="lslash" unicode="&#x142;" horiz-adv-x="384" 
d="M327 367v-367h-272v250l-53 -22v150l53 23v343h272v-225l54 24v-153z" />
    <glyph glyph-name="Scaron" unicode="&#x160;" horiz-adv-x="1036" 
d="M559 -14h-91c-411 0 -454 167 -454 264v10h312c3 -40 24 -105 186 -105h9c159 0 182 34 182 70v1c0 38 -19 62 -175 67l-138 4c-288 8 -365 109 -365 224v9c0 121 81 227 428 227h89c368 0 452 -117 452 -235v-8h-309c-3 27 -19 79 -180 79h-10c-149 0 -164 -26 -164 -55
v-1c0 -30 22 -54 162 -57l134 -3c283 -8 393 -74 393 -224v-14c0 -125 -70 -253 -461 -253zM368 789l-165 155h244l62 -58l61 58h241l-161 -155h-282z" />
    <glyph glyph-name="scaron" unicode="&#x161;" horiz-adv-x="814" 
d="M427 -15h-55c-324 0 -359 121 -359 191v7h277c0 -20 10 -66 111 -66h2c96 0 111 22 111 45v2c0 26 -14 41 -103 44l-114 3c-227 8 -278 89 -278 169v6c0 88 56 167 353 167h53c289 0 353 -82 353 -167v-7h-272c-3 18 -10 50 -108 50h-1c-88 0 -105 -13 -105 -37v-1
c0 -21 17 -37 100 -40l113 -3c243 -8 293 -64 293 -171v-7c0 -99 -55 -185 -371 -185zM260 583l-153 161h236l58 -65l58 65h234l-152 -161h-281z" />
    <glyph glyph-name="Zcaron" unicode="&#x17d;" horiz-adv-x="954" 
d="M35 744h885v-151l-488 -390h493v-203h-896v152l474 396h-468v196zM337 789l-165 155h244l62 -58l61 58h241l-161 -155h-282z" />
    <glyph glyph-name="zcaron" unicode="&#x17e;" horiz-adv-x="752" 
d="M730 0h-708v146l358 233h-358v159h707v-143l-369 -230h370v-165zM238 583l-153 161h236l58 -65l58 65h234l-152 -161h-281z" />
    <glyph glyph-name="minus" unicode="&#x2212;" horiz-adv-x="585" 
d="M30 385h525v-153h-525v153z" />
    <glyph glyph-name="Dcroat" unicode="&#x110;" horiz-adv-x="1148" 
d="M63 0v296h-61v157h61v291h528c429 0 537 -177 537 -352v-30c0 -169 -93 -362 -536 -362h-529zM347 549v-96h301v-157h-301v-99h211c248 0 275 109 275 174v6c0 65 -27 172 -275 172h-211z" />
    <glyph glyph-name="Eng" unicode="&#x14a;" horiz-adv-x="1128" 
d="M1080 744v-721c0 -146 -75 -211 -171 -211h-215v171h79c13 0 20 5 20 14s-7 15 -30 38l-433 416v-451h-282v744h318l432 -423v423h282z" />
    <glyph glyph-name="IJ" unicode="&#x132;" horiz-adv-x="1321" 
d="M331 744v-744h-283v744h283zM855 -11h-61c-353 0 -414 207 -414 335v6h279c3 -29 16 -128 164 -128h8c120 0 165 71 165 167v375h284v-381c0 -155 -57 -374 -425 -374z" />
    <glyph glyph-name="dcroat" unicode="&#x111;" horiz-adv-x="932" 
d="M350 585v110h611v-110h-611zM620 269v5c0 60 -55 124 -169 124h-5c-118 0 -151 -64 -151 -124v-5c0 -59 40 -127 152 -127h4c116 0 169 67 169 127zM620 744h272v-744h-271v78c-18 -20 -91 -88 -259 -88h-17c-235 0 -326 129 -326 272v21c0 137 84 265 318 265h19
c166 0 239 -59 264 -78v274z" />
    <glyph glyph-name="eng" unicode="&#x14b;" horiz-adv-x="897" 
d="M858 346v-388c0 -108 -53 -148 -110 -148h-256v171h59c25 0 34 8 34 39v237c0 72 -37 124 -130 124c-92 0 -143 -55 -143 -131v-250h-272v538h270v-95c27 25 110 107 278 107h6c201 0 264 -119 264 -204z" />
    <glyph glyph-name="ij" unicode="&#x133;" horiz-adv-x="697" 
d="M312 744v-161h-272v161h272zM312 538v-538h-272v538h272zM657 744v-161h-272v161h272zM317 -27h36c24 0 32 6 32 37v528h272v-578c0 -110 -52 -148 -112 -148h-228v161z" />
    <glyph glyph-name="Abreve" unicode="&#x102;" horiz-adv-x="1107" 
d="M663 306l-125 256l-122 -256h247zM812 0l-58 120h-425l-57 -120h-288l368 744h382l389 -744h-311zM564 782h-40c-195 0 -226 117 -226 170v2h183c0 -12 9 -49 64 -49c54 0 62 37 62 49h180v-2c0 -53 -45 -170 -223 -170z" />
    <glyph glyph-name="Amacron" unicode="&#x100;" horiz-adv-x="1107" 
d="M663 306l-125 256l-122 -256h247zM812 0l-58 120h-425l-57 -120h-288l368 744h382l389 -744h-311zM308 797v132h469v-132h-469z" />
    <glyph glyph-name="Aogonek" unicode="&#x104;" horiz-adv-x="1107" 
d="M663 306l-125 256l-122 -256h247zM812 0l-58 120h-425l-57 -120h-288l368 744h382l389 -744h-311zM815 -116v3c0 55 69 84 193 113h114c-35 -23 -60 -41 -60 -61c0 -14 11 -21 33 -21h27v-106h-160c-104 0 -147 25 -147 72z" />
    <glyph glyph-name="Aringacute" unicode="&#x1fa;" horiz-adv-x="1107" 
d="M663 306l-125 256l-122 -256h247zM812 0l-58 120h-425l-57 -120h-288l368 744h382l389 -744h-311zM427 1040l89 161h268l-111 -161h-246zM346 898c0 65 45 119 200 119s197 -54 197 -119c0 -66 -42 -119 -197 -119c-157 0 -200 54 -200 119zM469 899c0 -28 22 -46 77 -46
c53 0 75 18 75 46c0 27 -22 44 -75 44c-55 0 -77 -17 -77 -44z" />
    <glyph glyph-name="AEacute" unicode="&#x1fc;" horiz-adv-x="1516" 
d="M862 789l79 155h279l-101 -155h-257zM668 302v266l-191 -266h191zM668 0v116h-325l-83 -116h-286l540 744h960v-182h-526v-93h516v-181h-516v-102h534v-186h-814z" />
    <glyph glyph-name="Cacute" unicode="&#x106;" horiz-adv-x="1126" 
d="M439 792l79 152h279l-101 -152h-257zM588 -14h-39c-457 0 -526 233 -526 374v29c0 142 62 369 526 369h39c452 0 518 -205 518 -301v-13h-295c-6 20 -29 114 -245 114c-205 0 -249 -91 -249 -174v-12c0 -80 50 -185 250 -185c219 0 241 105 245 122h294v-16
c0 -97 -70 -307 -518 -307z" />
    <glyph glyph-name="Ccaron" unicode="&#x10c;" horiz-adv-x="1126" 
d="M423 792l-162 152h245l62 -58l61 58h242l-159 -152h-289zM588 -14h-39c-457 0 -526 233 -526 374v29c0 142 62 369 526 369h39c452 0 518 -205 518 -301v-13h-295c-6 20 -29 114 -245 114c-205 0 -249 -91 -249 -174v-12c0 -80 50 -185 250 -185c219 0 241 105 245 122
h294v-16c0 -97 -70 -307 -518 -307z" />
    <glyph glyph-name="Ccircumflex" unicode="&#x108;" horiz-adv-x="1126" 
d="M709 944l161 -153h-243l-62 58l-62 -58h-241l159 153h288zM588 -14h-39c-457 0 -526 233 -526 374v29c0 142 62 369 526 369h39c452 0 518 -205 518 -301v-13h-295c-6 20 -29 114 -245 114c-205 0 -249 -91 -249 -174v-12c0 -80 50 -185 250 -185c219 0 241 105 245 122
h294v-16c0 -97 -70 -307 -518 -307z" />
    <glyph glyph-name="Cdotaccent" unicode="&#x10a;" horiz-adv-x="1126" 
d="M705 947v-155h-273v155h273zM588 -14h-39c-457 0 -526 233 -526 374v29c0 142 62 369 526 369h39c452 0 518 -205 518 -301v-13h-295c-6 20 -29 114 -245 114c-205 0 -249 -91 -249 -174v-12c0 -80 50 -185 250 -185c219 0 241 105 245 122h294v-16
c0 -97 -70 -307 -518 -307z" />
    <glyph glyph-name="Dcaron" unicode="&#x10e;" horiz-adv-x="1133" 
d="M48 0v744h528c429 0 537 -177 537 -352v-30c0 -169 -93 -362 -536 -362h-529zM332 549v-352h211c248 0 275 109 275 174v6c0 65 -27 172 -275 172h-211zM344 789l-165 155h244l62 -58l61 58h241l-161 -155h-282z" />
    <glyph glyph-name="Ebreve" unicode="&#x114;" horiz-adv-x="913" 
d="M48 744h823v-182h-543v-93h532v-181h-532v-102h551v-186h-831v744zM492 782h-40c-195 0 -226 117 -226 170v2h183c0 -12 9 -49 64 -49c54 0 62 37 62 49h180v-2c0 -53 -45 -170 -223 -170z" />
    <glyph glyph-name="Ecaron" unicode="&#x11a;" horiz-adv-x="913" 
d="M48 744h823v-182h-543v-93h532v-181h-532v-102h551v-186h-831v744zM331 789l-165 155h244l62 -58l61 58h241l-161 -155h-282z" />
    <glyph glyph-name="Edotaccent" unicode="&#x116;" horiz-adv-x="913" 
d="M48 744h823v-182h-543v-93h532v-181h-532v-102h551v-186h-831v744zM605 950v-161h-271v161h271z" />
    <glyph glyph-name="Emacron" unicode="&#x112;" horiz-adv-x="913" 
d="M48 744h823v-182h-543v-93h532v-181h-532v-102h551v-186h-831v744zM234 797v132h469v-132h-469z" />
    <glyph glyph-name="Eogonek" unicode="&#x118;" horiz-adv-x="913" 
d="M463 -116v3c0 55 68 84 193 113h114c-35 -23 -61 -41 -61 -61c0 -14 11 -21 34 -21h30v-106h-163c-104 0 -147 25 -147 72zM48 744h823v-182h-543v-93h532v-181h-532v-102h551v-186h-831v744z" />
    <glyph glyph-name="Gbreve" unicode="&#x11e;" horiz-adv-x="1159" 
d="M548 -14h-23c-407 0 -502 218 -502 375v28c0 160 88 369 527 369h39c456 0 518 -183 522 -287v-1h-296c-5 19 -31 94 -241 94c-200 0 -257 -86 -257 -184v-11c0 -95 71 -188 255 -188c192 0 254 69 254 93h-261v145h551v-419h-179c-5 24 -21 76 -35 103
c-29 -32 -122 -117 -354 -117zM597 784h-40c-195 0 -226 117 -226 170v2h183c0 -12 9 -49 64 -49c54 0 62 37 62 49h180v-2c0 -53 -45 -170 -223 -170z" />
    <glyph glyph-name="Gcircumflex" unicode="&#x11c;" horiz-adv-x="1159" 
d="M718 944l161 -153h-243l-62 58l-62 -58h-241l159 153h288zM548 -14h-23c-407 0 -502 218 -502 375v28c0 160 88 369 527 369h39c456 0 518 -183 522 -287v-1h-296c-5 19 -31 94 -241 94c-200 0 -257 -86 -257 -184v-11c0 -95 71 -188 255 -188c192 0 254 69 254 93h-261
v145h551v-419h-179c-5 24 -21 76 -35 103c-29 -32 -122 -117 -354 -117z" />
    <glyph glyph-name="uni0122" unicode="&#x122;" horiz-adv-x="1159" 
d="M615 -299h-130c15 28 30 65 35 92h-113v159h258v-125c0 -41 -31 -96 -50 -126zM548 -14h-23c-407 0 -502 218 -502 375v28c0 160 88 369 527 369h39c456 0 518 -183 522 -287v-1h-296c-5 19 -31 94 -241 94c-200 0 -257 -86 -257 -184v-11c0 -95 71 -188 255 -188
c192 0 254 69 254 93h-261v145h551v-419h-179c-5 24 -21 76 -35 103c-29 -32 -122 -117 -354 -117z" />
    <glyph glyph-name="Gdotaccent" unicode="&#x120;" horiz-adv-x="1159" 
d="M712 947v-155h-273v155h273zM548 -14h-23c-407 0 -502 218 -502 375v28c0 160 88 369 527 369h39c456 0 518 -183 522 -287v-1h-296c-5 19 -31 94 -241 94c-200 0 -257 -86 -257 -184v-11c0 -95 71 -188 255 -188c192 0 254 69 254 93h-261v145h551v-419h-179
c-5 24 -21 76 -35 103c-29 -32 -122 -117 -354 -117z" />
    <glyph glyph-name="Hbar" unicode="&#x126;" horiz-adv-x="1159" 
d="M-3 554v125h1165v-125h-1165zM63 0v744h284v-263h465v263h283v-744h-283v283h-465v-283h-284z" />
    <glyph glyph-name="Hcircumflex" unicode="&#x124;" horiz-adv-x="1128" 
d="M48 0v744h284v-263h465v263h283v-744h-283v283h-465v-283h-284zM704 944l164 -155h-244l-62 58l-61 -58h-241l162 155h282z" />
    <glyph glyph-name="Ibreve" unicode="&#x12c;" horiz-adv-x="379" 
d="M331 744v-744h-283v744h283zM212 782h-40c-195 0 -226 117 -226 170v2h183c0 -12 9 -49 64 -49c54 0 62 37 62 49h180v-2c0 -53 -45 -170 -223 -170z" />
    <glyph glyph-name="Idotaccent" unicode="&#x130;" horiz-adv-x="379" 
d="M331 744v-744h-283v744h283zM325 950v-161h-271v161h271z" />
    <glyph glyph-name="Imacron" unicode="&#x12a;" horiz-adv-x="379" 
d="M-25 797v132h429v-132h-429zM331 744v-744h-283v744h283z" />
    <glyph glyph-name="Iogonek" unicode="&#x12e;" horiz-adv-x="379" 
d="M331 744v-744h-283v744h283zM25 -116v3c0 55 69 84 193 113h114c-35 -23 -60 -41 -60 -61c0 -14 11 -21 33 -21h27v-106h-160c-104 0 -147 25 -147 72z" />
    <glyph glyph-name="Itilde" unicode="&#x128;" horiz-adv-x="379" 
d="M331 744v-744h-283v744h283zM322 793h-5c-45 0 -70 7 -135 29c-31 11 -45 15 -60 15s-18 -10 -18 -21v-29h-161v85c0 41 18 98 113 98h4c46 0 73 -10 137 -29c27 -9 44 -15 59 -15c11 0 17 9 17 20v29h161v-79c0 -43 -13 -103 -112 -103z" />
    <glyph glyph-name="Jcircumflex" unicode="&#x134;" horiz-adv-x="948" 
d="M482 -11h-61c-353 0 -414 207 -414 335v6h279c3 -29 16 -128 164 -128h8c120 0 165 71 165 167v375h284v-381c0 -155 -57 -374 -425 -374zM902 944l164 -155h-244l-62 58l-61 -58h-241l162 155h282z" />
    <glyph glyph-name="uni0136" unicode="&#x136;" horiz-adv-x="1046" 
d="M581 -296h-130c15 28 30 65 35 92h-113v159h258v-125c0 -41 -31 -96 -50 -126zM332 0h-284v744h284v-294l366 294h353l-433 -338l447 -406h-370l-363 333v-333z" />
    <glyph glyph-name="Lacute" unicode="&#x139;" horiz-adv-x="875" 
d="M48 744h284v-531h516v-213h-800v744zM66 789l79 155h279l-101 -155h-257z" />
    <glyph glyph-name="Lcaron" unicode="&#x13d;" horiz-adv-x="875" 
d="M48 744h284v-531h516v-213h-800v744zM358 575l14 169h205l-28 -169h-191z" />
    <glyph glyph-name="uni013B" unicode="&#x13b;" horiz-adv-x="875" 
d="M529 -296h-130c15 28 30 65 35 92h-113v159h258v-125c0 -41 -31 -96 -50 -126zM48 744h284v-531h516v-213h-800v744z" />
    <glyph glyph-name="Ldot" unicode="&#x13f;" horiz-adv-x="871" 
d="M48 744h284v-531h516v-213h-800v744zM779 524v-195h-281v195h281z" />
    <glyph glyph-name="Nacute" unicode="&#x143;" horiz-adv-x="1128" 
d="M48 744h318l432 -423v423h282v-744h-284l-466 451v-451h-282v744zM437 789l79 155h279l-101 -155h-257z" />
    <glyph glyph-name="Ncaron" unicode="&#x147;" horiz-adv-x="1128" 
d="M48 744h318l432 -423v423h282v-744h-284l-466 451v-451h-282v744zM424 789l-165 155h244l62 -58l61 58h241l-161 -155h-282z" />
    <glyph glyph-name="uni0145" unicode="&#x145;" horiz-adv-x="1128" 
d="M641 -296h-130c15 28 30 65 35 92h-113v159h258v-125c0 -41 -31 -96 -50 -126zM48 744h318l432 -423v423h282v-744h-284l-466 451v-451h-282v744z" />
    <glyph glyph-name="Obreve" unicode="&#x14e;" horiz-adv-x="1176" 
d="M566 758h45c480 0 542 -229 542 -369v-30c0 -139 -61 -373 -542 -373h-45c-482 0 -543 234 -543 373v30c0 140 61 369 543 369zM859 368v14c0 79 -51 176 -271 176c-224 0 -271 -97 -271 -176v-12c0 -78 51 -183 271 -183s271 101 271 181zM610 784h-40
c-195 0 -226 117 -226 170v2h183c0 -12 9 -49 64 -49c54 0 62 37 62 49h180v-2c0 -53 -45 -170 -223 -170z" />
    <glyph glyph-name="Ohungarumlaut" unicode="&#x150;" horiz-adv-x="1176" 
d="M617 792l59 152h245l-65 -152h-239zM335 792l52 152h245l-58 -152h-239zM566 758h45c480 0 542 -229 542 -369v-30c0 -139 -61 -373 -542 -373h-45c-482 0 -543 234 -543 373v30c0 140 61 369 543 369zM859 368v14c0 79 -51 176 -271 176c-224 0 -271 -97 -271 -176v-12
c0 -78 51 -183 271 -183s271 101 271 181z" />
    <glyph glyph-name="Omacron" unicode="&#x14c;" horiz-adv-x="1176" 
d="M566 758h45c480 0 542 -229 542 -369v-30c0 -139 -61 -373 -542 -373h-45c-482 0 -543 234 -543 373v30c0 140 61 369 543 369zM859 368v14c0 79 -51 176 -271 176c-224 0 -271 -97 -271 -176v-12c0 -78 51 -183 271 -183s271 101 271 181zM353 799v132h469v-132h-469z
" />
    <glyph glyph-name="Oslashacute" unicode="&#x1fe;" horiz-adv-x="1181" 
d="M462 792l79 152h279l-101 -152h-257zM614 -13h-46c-125 0 -224 16 -300 47l-44 -34h-230c13 11 28 22 44 34c27 20 61 47 96 74c-83 71 -112 159 -112 250v30c0 142 61 369 546 369h46c124 0 218 -17 294 -46l43 33h231l-138 -107c81 -68 115 -154 115 -249v-30
c0 -139 -64 -371 -545 -371zM313 383v-13c0 -35 8 -69 31 -100l364 285c-32 4 -71 6 -118 6c-227 0 -277 -94 -277 -178zM590 185c223 0 278 98 278 184v14c0 33 -8 68 -29 97l-369 -288c33 -4 73 -7 120 -7z" />
    <glyph glyph-name="Racute" unicode="&#x154;" horiz-adv-x="1070" 
d="M332 563v-128h326c63 0 86 28 86 64v1c0 35 -22 63 -86 63h-326zM332 255v-255h-284v744h676c217 0 313 -70 313 -191v-11c0 -108 -94 -153 -150 -166c92 -21 153 -81 153 -177v-110c0 -52 7 -71 14 -84v-5h-290c-7 8 -9 18 -9 39v87c0 85 -39 129 -151 129h-272z
M390 789l79 155h279l-101 -155h-257z" />
    <glyph glyph-name="Rcaron" unicode="&#x158;" horiz-adv-x="1070" 
d="M332 563v-128h326c63 0 86 28 86 64v1c0 35 -22 63 -86 63h-326zM332 255v-255h-284v744h676c217 0 313 -70 313 -191v-11c0 -108 -94 -153 -150 -166c92 -21 153 -81 153 -177v-110c0 -52 7 -71 14 -84v-5h-290c-7 8 -9 18 -9 39v87c0 85 -39 129 -151 129h-272z
M377 789l-165 155h244l62 -58l61 58h241l-161 -155h-282z" />
    <glyph glyph-name="uni0156" unicode="&#x156;" horiz-adv-x="1070" 
d="M622 -296h-130c15 28 30 65 35 92h-113v159h258v-125c0 -41 -31 -96 -50 -126zM332 563v-128h326c63 0 86 28 86 64v1c0 35 -22 63 -86 63h-326zM332 255v-255h-284v744h676c217 0 313 -70 313 -191v-11c0 -108 -94 -153 -150 -166c92 -21 153 -81 153 -177v-110
c0 -52 7 -71 14 -84v-5h-290c-7 8 -9 18 -9 39v87c0 85 -39 129 -151 129h-272z" />
    <glyph glyph-name="Sacute" unicode="&#x15a;" horiz-adv-x="1036" 
d="M383 792l79 152h279l-101 -152h-257zM559 -14h-91c-411 0 -454 167 -454 264v10h312c3 -40 24 -105 186 -105h9c159 0 182 34 182 70v1c0 38 -19 62 -175 67l-138 4c-288 8 -365 109 -365 224v9c0 121 81 227 428 227h89c368 0 452 -117 452 -235v-8h-309
c-3 27 -19 79 -180 79h-10c-149 0 -164 -26 -164 -55v-1c0 -30 22 -54 162 -57l134 -3c283 -8 393 -74 393 -224v-14c0 -125 -70 -253 -461 -253z" />
    <glyph glyph-name="uni015E" unicode="&#x15e;" horiz-adv-x="1036" 
d="M559 -14h-91c-411 0 -454 167 -454 264v10h312c3 -40 24 -105 186 -105h9c159 0 182 34 182 70v1c0 38 -19 62 -175 67l-138 4c-288 8 -365 109 -365 224v9c0 121 81 227 428 227h89c368 0 452 -117 452 -235v-8h-309c-3 27 -19 79 -180 79h-10c-149 0 -164 -26 -164 -55
v-1c0 -30 22 -54 162 -57l134 -3c283 -8 393 -74 393 -224v-14c0 -125 -70 -253 -461 -253zM351 -259v92h109c28 0 36 9 36 22c0 12 -8 22 -36 22h-71v123h138v-49c160 0 192 -40 192 -102v-3c0 -57 -34 -105 -193 -105h-175z" />
    <glyph glyph-name="Scircumflex" unicode="&#x15c;" horiz-adv-x="1036" 
d="M657 944l161 -153h-243l-62 58l-62 -58h-240l158 153h288zM559 -14h-91c-411 0 -454 167 -454 264v10h312c3 -40 24 -105 186 -105h9c159 0 182 34 182 70v1c0 38 -19 62 -175 67l-138 4c-288 8 -365 109 -365 224v9c0 121 81 227 428 227h89c368 0 452 -117 452 -235v-8
h-309c-3 27 -19 79 -180 79h-10c-149 0 -164 -26 -164 -55v-1c0 -30 22 -54 162 -57l134 -3c283 -8 393 -74 393 -224v-14c0 -125 -70 -253 -461 -253z" />
    <glyph glyph-name="uni0218" unicode="&#x218;" horiz-adv-x="1036" 
d="M593 -299h-130c15 28 30 65 35 92h-113v159h258v-125c0 -41 -31 -96 -50 -126zM559 -14h-91c-411 0 -454 167 -454 264v10h312c3 -40 24 -105 186 -105h9c159 0 182 34 182 70v1c0 38 -19 62 -175 67l-138 4c-288 8 -365 109 -365 224v9c0 121 81 227 428 227h89
c368 0 452 -117 452 -235v-8h-309c-3 27 -19 79 -180 79h-10c-149 0 -164 -26 -164 -55v-1c0 -30 22 -54 162 -57l134 -3c283 -8 393 -74 393 -224v-14c0 -125 -70 -253 -461 -253z" />
    <glyph glyph-name="Tcaron" unicode="&#x164;" horiz-adv-x="977" 
d="M346 0v541h-321v203h926v-203h-321v-541h-284zM349 789l-165 155h244l62 -58l61 58h241l-161 -155h-282z" />
    <glyph glyph-name="Tcommaaccent" unicode="&#x162;" horiz-adv-x="977" 
d="M567 -296h-130c15 28 30 65 35 92h-113v159h258v-125c0 -41 -31 -96 -50 -126zM346 0v541h-321v203h926v-203h-321v-541h-284z" />
    <glyph glyph-name="uni021A" unicode="&#x21a;" horiz-adv-x="977" 
d="M567 -296h-130c15 28 30 65 35 92h-113v159h258v-125c0 -41 -31 -96 -50 -126zM346 0v541h-321v203h926v-203h-321v-541h-284z" />
    <glyph glyph-name="Tbar" unicode="&#x166;" horiz-adv-x="977" 
d="M865 284h-753v142h753v-142zM346 0v541h-321v203h926v-203h-321v-541h-284z" />
    <glyph glyph-name="Ubreve" unicode="&#x16c;" horiz-adv-x="1104" 
d="M40 389v355h285v-333c0 -91 40 -200 228 -200c185 0 227 109 227 200v333h284v-355c0 -144 -69 -401 -490 -401h-40c-433 0 -494 257 -494 401zM573 782h-40c-195 0 -226 117 -226 170v2h183c0 -12 9 -49 64 -49c54 0 62 37 62 49h180v-2c0 -53 -45 -170 -223 -170z" />
    <glyph glyph-name="Uhungarumlaut" unicode="&#x170;" horiz-adv-x="1104" 
d="M40 389v355h285v-333c0 -91 40 -200 228 -200c185 0 227 109 227 200v333h284v-355c0 -144 -69 -401 -490 -401h-40c-433 0 -494 257 -494 401zM574 789l59 155h245l-65 -155h-239zM292 789l53 155h245l-59 -155h-239z" />
    <glyph glyph-name="Umacron" unicode="&#x16a;" horiz-adv-x="1104" 
d="M40 389v355h285v-333c0 -91 40 -200 228 -200c185 0 227 109 227 200v333h284v-355c0 -144 -69 -401 -490 -401h-40c-433 0 -494 257 -494 401zM317 797v132h469v-132h-469z" />
    <glyph glyph-name="Uogonek" unicode="&#x172;" horiz-adv-x="1104" 
d="M807 -188h-165c-104 0 -147 25 -147 72v3c0 53 68 80 185 108c-35 -5 -70 -7 -106 -7h-40c-433 0 -494 257 -494 401v355h285v-333c0 -91 40 -200 228 -200c185 0 227 109 227 200v333h284v-355c0 -153 -69 -284 -242 -381c-49 -27 -81 -45 -81 -69c0 -14 11 -21 34 -21
h32v-106z" />
    <glyph glyph-name="Uring" unicode="&#x16e;" horiz-adv-x="1104" 
d="M40 389v355h285v-333c0 -91 40 -200 228 -200c185 0 227 109 227 200v333h284v-355c0 -144 -69 -401 -490 -401h-40c-433 0 -494 257 -494 401zM353 889c0 65 45 119 200 119s197 -54 197 -119c0 -66 -42 -119 -197 -119c-157 0 -200 54 -200 119zM476 890
c0 -28 22 -46 77 -46c53 0 75 18 75 46c0 27 -22 44 -75 44c-55 0 -77 -17 -77 -44z" />
    <glyph glyph-name="Utilde" unicode="&#x168;" horiz-adv-x="1104" 
d="M40 389v355h285v-333c0 -91 40 -200 228 -200c185 0 227 109 227 200v333h284v-355c0 -144 -69 -401 -490 -401h-40c-433 0 -494 257 -494 401zM684 793h-5c-45 0 -70 7 -135 29c-31 11 -45 15 -60 15s-18 -10 -18 -21v-29h-161v85c0 41 18 98 113 98h4
c46 0 73 -10 137 -29c27 -9 44 -15 59 -15c11 0 17 9 17 20v29h161v-79c0 -43 -13 -103 -112 -103z" />
    <glyph glyph-name="Wacute" unicode="&#x1e82;" horiz-adv-x="1535" 
d="M624 0h-346l-290 744h316l169 -491l149 491h320l151 -483l164 483h291l-290 -744h-329l-155 470zM654 789l79 155h279l-101 -155h-257z" />
    <glyph glyph-name="Wcircumflex" unicode="&#x174;" horiz-adv-x="1535" 
d="M624 0h-346l-290 744h316l169 -491l149 491h320l151 -483l164 483h291l-290 -744h-329l-155 470zM917 944l164 -155h-244l-62 58l-61 -58h-241l162 155h282z" />
    <glyph glyph-name="Wdieresis" unicode="&#x1e84;" horiz-adv-x="1535" 
d="M624 0h-346l-290 744h316l169 -491l149 491h320l151 -483l164 483h291l-290 -744h-329l-155 470zM1047 944v-155h-245v155h245zM754 944v-155h-246v155h246z" />
    <glyph glyph-name="Wgrave" unicode="&#x1e80;" horiz-adv-x="1535" 
d="M624 0h-346l-290 744h316l169 -491l149 491h320l151 -483l164 483h291l-290 -744h-329l-155 470zM827 944l79 -155h-257l-101 155h279z" />
    <glyph glyph-name="Ycircumflex" unicode="&#x176;" horiz-adv-x="1049" 
d="M387 0v280l-407 464h340l217 -257l221 257h311l-398 -466v-278h-284zM675 944l164 -155h-244l-62 58l-61 -58h-241l162 155h282z" />
    <glyph glyph-name="Ygrave" unicode="&#x1ef2;" horiz-adv-x="1049" 
d="M387 0v280l-407 464h340l217 -257l221 257h311l-398 -466v-278h-284zM591 944l79 -155h-257l-101 155h279z" />
    <glyph glyph-name="Zacute" unicode="&#x179;" horiz-adv-x="954" 
d="M35 744h885v-151l-488 -390h493v-203h-896v152l474 396h-468v196zM330 789l79 155h279l-101 -155h-257z" />
    <glyph glyph-name="Zdotaccent" unicode="&#x17b;" horiz-adv-x="954" 
d="M35 744h885v-151l-488 -390h493v-203h-896v152l474 396h-468v196zM612 950v-161h-271v161h271z" />
    <glyph glyph-name="abreve" unicode="&#x103;" horiz-adv-x="846" 
d="M424 578h-40c-190 0 -223 112 -223 164v2h181c0 -13 10 -47 63 -47c51 0 62 34 62 47h178v-2c0 -52 -48 -164 -221 -164zM521 231v23l-180 -32c-47 -8 -66 -19 -66 -46v-1c0 -25 18 -55 85 -55c100 0 161 55 161 111zM526 72c-26 -26 -95 -82 -252 -82h-11
c-180 0 -249 85 -249 173v12c0 90 58 143 218 156l259 23c23 3 30 11 30 26c0 20 -11 41 -117 41h-4c-115 0 -118 -38 -121 -55h-252v6c0 72 22 180 345 180h56c336 0 359 -100 359 -173v-199c0 -15 4 -23 23 -23h29v-157h-226c-47 0 -79 25 -87 72z" />
    <glyph glyph-name="amacron" unicode="&#x101;" horiz-adv-x="846" 
d="M521 231v23l-180 -32c-47 -8 -66 -19 -66 -46v-1c0 -25 18 -55 85 -55c100 0 161 55 161 111zM526 72c-26 -26 -95 -82 -252 -82h-11c-180 0 -249 85 -249 173v12c0 90 58 143 218 156l259 23c23 3 30 11 30 26c0 20 -11 41 -117 41h-4c-115 0 -118 -38 -121 -55h-252v6
c0 72 22 180 345 180h56c336 0 359 -100 359 -173v-199c0 -15 4 -23 23 -23h29v-157h-226c-47 0 -79 25 -87 72zM176 594v129h452v-129h-452z" />
    <glyph glyph-name="aogonek" unicode="&#x105;" horiz-adv-x="846" 
d="M521 231v23l-180 -32c-47 -8 -66 -19 -66 -46v-1c0 -25 18 -55 85 -55c100 0 161 55 161 111zM526 72c-26 -26 -95 -82 -252 -82h-11c-180 0 -249 85 -249 173v12c0 90 58 143 218 156l259 23c23 3 30 11 30 26c0 20 -11 41 -117 41h-4c-115 0 -118 -38 -121 -55h-252v6
c0 72 22 180 345 180h56c336 0 359 -100 359 -173v-199c0 -15 4 -23 23 -23h29v-157h-226c-47 0 -79 25 -87 72zM532 -116v3c0 55 69 84 193 113h114c-35 -23 -60 -41 -60 -61c0 -14 11 -21 33 -21h27v-106h-160c-104 0 -147 25 -147 72z" />
    <glyph glyph-name="aringacute" unicode="&#x1fb;" horiz-adv-x="846" 
d="M521 231v23l-180 -32c-47 -8 -66 -19 -66 -46v-1c0 -25 18 -55 85 -55c100 0 161 55 161 111zM526 72c-26 -26 -95 -82 -252 -82h-11c-180 0 -249 85 -249 173v12c0 90 58 143 218 156l259 23c23 3 30 11 30 26c0 20 -11 41 -117 41h-4c-115 0 -118 -38 -121 -55h-252v6
c0 72 22 180 345 180h56c336 0 359 -100 359 -173v-199c0 -15 4 -23 23 -23h29v-157h-226c-47 0 -79 25 -87 72zM284 839l89 161h268l-111 -161h-246zM205 696c0 64 46 118 198 118s195 -54 195 -118c0 -66 -43 -119 -195 -119c-156 0 -198 54 -198 119zM328 696
c0 -27 23 -45 75 -45c51 0 73 18 73 45s-22 44 -73 44c-52 0 -75 -17 -75 -44z" />
    <glyph glyph-name="aeacute" unicode="&#x1fd;" horiz-adv-x="1381" 
d="M553 583l89 161h268l-111 -161h-246zM941 421h-2c-103 0 -142 -33 -154 -81h310c-11 51 -53 81 -154 81zM359 119c98 0 158 55 158 112v23l-178 -31c-44 -8 -65 -19 -65 -46v-1c0 -27 20 -57 85 -57zM1362 196v-2c0 -75 -44 -208 -393 -208h-55c-189 0 -287 50 -342 113
c-30 -33 -106 -109 -282 -109h-11c-199 0 -265 85 -265 173v12c0 91 60 144 217 157l263 23c19 3 23 11 23 26v1c0 18 -12 38 -116 38h-5c-112 0 -117 -37 -117 -54h-251v6c0 68 15 180 341 180h55c147 0 215 -26 250 -50c36 23 109 50 237 50h57c353 0 396 -164 396 -292
v-30h-582c8 -56 53 -99 162 -99h1c131 0 151 54 151 65h266z" />
    <glyph glyph-name="cacute" unicode="&#x107;" horiz-adv-x="887" 
d="M322 585l88 159h268l-110 -159h-246zM475 -15h-60c-345 0 -396 166 -396 278v18c0 111 50 272 395 272h62c359 0 396 -166 396 -240v-3h-278c-3 20 -21 93 -149 93h-4c-116 0 -146 -64 -146 -125v-5c0 -65 32 -136 146 -136h4c127 0 146 76 149 97h278v-2
c0 -73 -29 -247 -397 -247z" />
    <glyph glyph-name="ccaron" unicode="&#x10d;" horiz-adv-x="887" 
d="M302 585l-151 159h238l58 -65l58 65h235l-150 -159h-288zM475 -15h-60c-345 0 -396 166 -396 278v18c0 111 50 272 395 272h62c359 0 396 -166 396 -240v-3h-278c-3 20 -21 93 -149 93h-4c-116 0 -146 -64 -146 -125v-5c0 -65 32 -136 146 -136h4c127 0 146 76 149 97
h278v-2c0 -73 -29 -247 -397 -247z" />
    <glyph glyph-name="ccircumflex" unicode="&#x109;" horiz-adv-x="887" 
d="M585 744l153 -160h-237l-57 64l-58 -64h-234l152 160h281zM475 -15h-60c-345 0 -396 166 -396 278v18c0 111 50 272 395 272h62c359 0 396 -166 396 -240v-3h-278c-3 20 -21 93 -149 93h-4c-116 0 -146 -64 -146 -125v-5c0 -65 32 -136 146 -136h4c127 0 146 76 149 97
h278v-2c0 -73 -29 -247 -397 -247z" />
    <glyph glyph-name="cdotaccent" unicode="&#x10b;" horiz-adv-x="887" 
d="M581 744v-159h-272v159h272zM475 -15h-60c-345 0 -396 166 -396 278v18c0 111 50 272 395 272h62c359 0 396 -166 396 -240v-3h-278c-3 20 -21 93 -149 93h-4c-116 0 -146 -64 -146 -125v-5c0 -65 32 -136 146 -136h4c127 0 146 76 149 97h278v-2
c0 -73 -29 -247 -397 -247z" />
    <glyph glyph-name="dcaron" unicode="&#x10f;" horiz-adv-x="932" 
d="M620 269v5c0 60 -55 124 -169 124h-5c-118 0 -151 -64 -151 -124v-5c0 -59 40 -127 152 -127h4c116 0 169 67 169 127zM620 744h272v-744h-271v78c-18 -20 -91 -88 -259 -88h-17c-235 0 -326 129 -326 272v21c0 137 84 265 318 265h19c166 0 239 -59 264 -78v274z
M919 575l14 169h205l-28 -169h-191z" />
    <glyph glyph-name="ebreve" unicode="&#x115;" horiz-adv-x="888" 
d="M467 579h-40c-190 0 -223 111 -223 163v2h181c0 -12 10 -46 63 -46c52 0 60 34 62 46h178v-2c0 -52 -48 -163 -221 -163zM444 421c-103 0 -142 -33 -155 -81h310c-11 51 -52 81 -155 81zM869 196v-2c0 -75 -46 -209 -397 -209h-53c-331 0 -400 151 -400 277v20
c0 124 64 271 397 271h55c351 0 400 -164 400 -293v-30h-585c8 -56 54 -99 163 -99h1c129 0 149 53 151 65h268z" />
    <glyph glyph-name="ecaron" unicode="&#x11b;" horiz-adv-x="888" 
d="M302 585l-151 159h239l57 -65l58 65h236l-150 -159h-289zM444 421c-103 0 -142 -33 -155 -81h310c-11 51 -52 81 -155 81zM869 196v-2c0 -75 -46 -209 -397 -209h-53c-331 0 -400 151 -400 277v20c0 124 64 271 397 271h55c351 0 400 -164 400 -293v-30h-585
c8 -56 54 -99 163 -99h1c129 0 149 53 151 65h268z" />
    <glyph glyph-name="edotaccent" unicode="&#x117;" horiz-adv-x="888" 
d="M582 744v-159h-272v159h272zM444 421c-103 0 -142 -33 -155 -81h310c-11 51 -52 81 -155 81zM869 196v-2c0 -75 -46 -209 -397 -209h-53c-331 0 -400 151 -400 277v20c0 124 64 271 397 271h55c351 0 400 -164 400 -293v-30h-585c8 -56 54 -99 163 -99h1
c129 0 149 53 151 65h268z" />
    <glyph glyph-name="emacron" unicode="&#x113;" horiz-adv-x="888" 
d="M444 421c-103 0 -142 -33 -155 -81h310c-11 51 -52 81 -155 81zM869 196v-2c0 -75 -46 -209 -397 -209h-53c-331 0 -400 151 -400 277v20c0 124 64 271 397 271h55c351 0 400 -164 400 -293v-30h-585c8 -56 54 -99 163 -99h1c129 0 149 53 151 65h268zM220 595v129h452
v-129h-452z" />
    <glyph glyph-name="eogonek" unicode="&#x119;" horiz-adv-x="888" 
d="M735 -82v-106h-164c-104 0 -146 25 -146 72v3c0 51 58 77 182 106c-35 -4 -84 -8 -135 -8h-53c-331 0 -400 151 -400 277v20c0 124 64 271 397 271h55c351 0 400 -164 400 -293v-30h-585c8 -56 54 -99 163 -99h1c129 0 149 53 151 65h268v-2c0 -77 -46 -131 -138 -192
c-33 -24 -60 -42 -60 -63c0 -14 11 -21 33 -21h31zM444 421c-103 0 -142 -33 -155 -81h310c-11 51 -52 81 -155 81z" />
    <glyph glyph-name="gbreve" unicode="&#x11f;" horiz-adv-x="942" 
d="M456 396h-6c-120 0 -156 -55 -156 -108v-5c0 -56 39 -114 156 -114h6c120 0 172 58 172 114v3c0 57 -52 110 -172 110zM506 -195h-77c-336 0 -377 136 -377 192v3h273c3 -13 16 -45 140 -45h3c132 0 163 69 163 137v11c-24 -24 -91 -80 -262 -80h-16
c-247 0 -334 125 -334 256v18c0 125 79 251 316 251h22c175 0 244 -55 273 -79v69h272v-448c0 -109 -59 -285 -396 -285zM686 744v-2c0 -54 -47 -165 -221 -165h-40c-191 0 -223 111 -223 165v2h181c0 -13 8 -48 63 -48c52 0 62 35 62 48h178z" />
    <glyph glyph-name="gcircumflex" unicode="&#x11d;" horiz-adv-x="942" 
d="M456 396h-6c-120 0 -156 -55 -156 -108v-5c0 -56 39 -114 156 -114h6c120 0 172 58 172 114v3c0 57 -52 110 -172 110zM506 -195h-77c-336 0 -377 136 -377 192v3h273c3 -13 16 -45 140 -45h3c132 0 163 69 163 137v11c-24 -24 -91 -80 -262 -80h-16
c-247 0 -334 125 -334 256v18c0 125 79 251 316 251h22c175 0 244 -55 273 -79v69h272v-448c0 -109 -59 -285 -396 -285zM586 744l153 -162h-237l-58 66l-58 -66h-233l152 162h281z" />
    <glyph glyph-name="uni0123" unicode="&#x123;" horiz-adv-x="942" 
d="M456 396h-6c-120 0 -156 -55 -156 -108v-5c0 -56 39 -114 156 -114h6c120 0 172 58 172 114v3c0 57 -52 110 -172 110zM506 -195h-77c-336 0 -377 136 -377 192v3h273c3 -13 16 -45 140 -45h3c132 0 163 69 163 137v11c-24 -24 -91 -80 -262 -80h-16
c-247 0 -334 125 -334 256v18c0 125 79 251 316 251h22c175 0 244 -55 273 -79v69h272v-448c0 -109 -59 -285 -396 -285zM363 834h130c-15 -28 -30 -65 -35 -92h113v-159h-258v125c0 40 29 97 50 126z" />
    <glyph glyph-name="gdotaccent" unicode="&#x121;" horiz-adv-x="942" 
d="M456 396h-6c-120 0 -156 -55 -156 -108v-5c0 -56 39 -114 156 -114h6c120 0 172 58 172 114v3c0 57 -52 110 -172 110zM506 -195h-77c-336 0 -377 136 -377 192v3h273c3 -13 16 -45 140 -45h3c132 0 163 69 163 137v11c-24 -24 -91 -80 -262 -80h-16
c-247 0 -334 125 -334 256v18c0 125 79 251 316 251h22c175 0 244 -55 273 -79v69h272v-448c0 -109 -59 -285 -396 -285zM579 744v-161h-271v161h271z" />
    <glyph glyph-name="hbar" unicode="&#x127;" horiz-adv-x="897" 
d="M-29 695h591v-110h-591v110zM40 0v744h272v-300c23 23 109 106 276 106h6c201 0 264 -119 264 -204v-346h-273v257c0 72 -37 124 -130 124c-92 0 -143 -55 -143 -131v-250h-272z" />
    <glyph glyph-name="hcircumflex" unicode="&#x125;" horiz-adv-x="897" 
d="M40 0v744h272v-300c23 23 109 106 276 106h6c201 0 264 -119 264 -204v-346h-273v257c0 72 -37 124 -130 124c-92 0 -143 -55 -143 -131v-250h-272zM557 944l164 -155h-244l-62 58l-61 -58h-241l162 155h282z" />
    <glyph glyph-name="ibreve" unicode="&#x12d;" horiz-adv-x="352" 
d="M378 744v-2c0 -58 -31 -166 -194 -166h-14c-170 0 -197 108 -197 166v2h157c0 -16 8 -44 47 -44c36 0 45 28 45 44h156zM312 538v-538h-272v538h272z" />
    <glyph glyph-name="idotaccent" horiz-adv-x="352" 
d="M312 744v-161h-272v161h272zM312 538v-538h-272v538h272z" />
    <glyph glyph-name="imacron" unicode="&#x12b;" horiz-adv-x="352" 
d="M-14 593v129h380v-129h-380zM312 538v-538h-272v538h272z" />
    <glyph glyph-name="iogonek" unicode="&#x12f;" horiz-adv-x="352" 
d="M312 744v-161h-272v161h272zM312 538v-538h-272v538h272zM5 -116v3c0 55 69 84 193 113h114c-35 -23 -60 -41 -60 -61c0 -14 11 -21 33 -21h27v-106h-160c-104 0 -147 25 -147 72z" />
    <glyph glyph-name="itilde" unicode="&#x129;" horiz-adv-x="352" 
d="M281 585h-4c-30 0 -51 8 -107 29c-21 9 -36 14 -45 14c-11 0 -13 -9 -13 -21v-27h-132v78c0 41 15 98 91 98h3c32 0 54 -6 109 -30c21 -8 32 -13 43 -13c9 0 12 9 12 20v28h133v-73c0 -43 -12 -103 -90 -103zM312 538v-538h-272v538h272z" />
    <glyph glyph-name="jcircumflex" unicode="&#x135;" horiz-adv-x="352" 
d="M300 744l110 -161h-193l-43 66l-43 -66h-190l109 161h250zM-28 -27h36c24 0 32 6 32 37v528h272v-578c0 -110 -52 -148 -112 -148h-228v161z" />
    <glyph glyph-name="uni0137" unicode="&#x137;" horiz-adv-x="807" 
d="M488 -296h-130c15 28 30 65 35 92h-113v159h258v-125c0 -41 -31 -96 -50 -126zM312 0h-272v744h272v-416l184 210h293l-219 -238l251 -300h-309l-200 242v-242z" />
    <glyph glyph-name="lacute" unicode="&#x13a;" horiz-adv-x="352" 
d="M56 789l83 152h269l-106 -152h-246zM312 744v-744h-272v744h272z" />
    <glyph glyph-name="lcaron" unicode="&#x13e;" horiz-adv-x="352" 
d="M312 744v-744h-272v744h272zM338 575l14 169h205l-28 -169h-191z" />
    <glyph glyph-name="uni013C" unicode="&#x13c;" horiz-adv-x="352" 
d="M255 -296h-130c15 28 30 65 35 92h-113v159h258v-125c0 -41 -31 -96 -50 -126zM312 744v-744h-272v744h272z" />
    <glyph glyph-name="ldot" unicode="&#x140;" horiz-adv-x="632" 
d="M625 482v-195h-272v195h272zM312 744v-744h-272v744h272z" />
    <glyph glyph-name="nacute" unicode="&#x144;" horiz-adv-x="897" 
d="M40 0v538h270v-95c27 25 110 107 278 107h6c201 0 264 -119 264 -204v-346h-273v257c0 72 -37 124 -130 124c-92 0 -143 -55 -143 -131v-250h-272zM327 583l89 161h268l-111 -161h-246z" />
    <glyph glyph-name="napostrophe" unicode="&#x149;" horiz-adv-x="1148" 
d="M291 0v538h270v-95c27 25 110 107 278 107h6c201 0 264 -119 264 -204v-346h-273v257c0 72 -37 124 -130 124c-92 0 -143 -55 -143 -131v-250h-272zM215 475h-140c17 31 36 75 40 104h-111v165h267v-134c0 -45 -32 -103 -56 -135z" />
    <glyph glyph-name="ncaron" unicode="&#x148;" horiz-adv-x="897" 
d="M40 0v538h270v-95c27 25 110 107 278 107h6c201 0 264 -119 264 -204v-346h-273v257c0 72 -37 124 -130 124c-92 0 -143 -55 -143 -131v-250h-272zM311 583l-153 161h236l58 -65l58 65h234l-152 -161h-281z" />
    <glyph glyph-name="uni0146" unicode="&#x146;" horiz-adv-x="897" 
d="M528 -296h-130c15 28 30 65 35 92h-113v159h258v-125c0 -41 -31 -96 -50 -126zM40 0v538h270v-95c27 25 110 107 278 107h6c201 0 264 -119 264 -204v-346h-273v257c0 72 -37 124 -130 124c-92 0 -143 -55 -143 -131v-250h-272z" />
    <glyph glyph-name="obreve" unicode="&#x14f;" horiz-adv-x="927" 
d="M485 579h-40c-190 0 -223 111 -223 163v2h181c0 -12 10 -46 63 -46c52 0 60 34 62 46h178v-2c0 -52 -48 -163 -221 -163zM501 -15h-74c-344 0 -408 163 -408 279v16c0 114 62 273 407 273h76c357 0 406 -160 406 -272v-18c0 -115 -45 -278 -407 -278zM465 401h-1
c-134 0 -169 -67 -169 -126v-4c0 -59 34 -133 169 -133h1c133 0 168 77 168 133v4c0 59 -35 126 -168 126z" />
    <glyph glyph-name="ohungarumlaut" unicode="&#x151;" horiz-adv-x="927" 
d="M494 585l62 159h237l-68 -159h-231zM221 585l55 159h236l-61 -159h-230zM501 -15h-74c-344 0 -408 163 -408 279v16c0 114 62 273 407 273h76c357 0 406 -160 406 -272v-18c0 -115 -45 -278 -407 -278zM465 401h-1c-134 0 -169 -67 -169 -126v-4c0 -59 34 -133 169 -133
h1c133 0 168 77 168 133v4c0 59 -35 126 -168 126z" />
    <glyph glyph-name="omacron" unicode="&#x14d;" horiz-adv-x="927" 
d="M501 -15h-74c-344 0 -408 163 -408 279v16c0 114 62 273 407 273h76c357 0 406 -160 406 -272v-18c0 -115 -45 -278 -407 -278zM465 401h-1c-134 0 -169 -67 -169 -126v-4c0 -59 34 -133 169 -133h1c133 0 168 77 168 133v4c0 59 -35 126 -168 126zM237 595v129h452v-129
h-452z" />
    <glyph glyph-name="oslashacute" unicode="&#x1ff;" horiz-adv-x="927" 
d="M339 585l87 159h268l-109 -159h-246zM499 -15h-74c-92 0 -170 16 -225 39l-37 -24h-177l118 82c-56 43 -85 106 -85 182v16c0 114 64 273 409 273h75c100 0 175 -19 223 -38l34 23h180l-115 -79c55 -46 83 -105 83 -178v-18c0 -115 -48 -278 -409 -278zM289 275v-4
c0 -19 3 -38 10 -55l254 176c-23 7 -52 12 -88 12h-2c-140 0 -174 -69 -174 -129zM464 136h1c140 0 174 77 174 135v4c0 16 -1 33 -8 49l-253 -176c23 -8 51 -12 86 -12z" />
    <glyph glyph-name="racute" unicode="&#x155;" horiz-adv-x="790" 
d="M310 538v-99c21 31 91 111 225 111h12c178 0 226 -123 226 -238v-54h-264v19c0 60 -26 110 -97 110c-64 0 -100 -48 -100 -116v-271h-272v538h270zM267 583l89 161h268l-111 -161h-246z" />
    <glyph glyph-name="rcaron" unicode="&#x159;" horiz-adv-x="790" 
d="M310 538v-99c21 31 91 111 225 111h12c178 0 226 -123 226 -238v-54h-264v19c0 60 -26 110 -97 110c-64 0 -100 -48 -100 -116v-271h-272v538h270zM247 583l-153 161h236l58 -65l58 65h234l-152 -161h-281z" />
    <glyph glyph-name="uni0157" unicode="&#x157;" horiz-adv-x="790" 
d="M254 -296h-130c15 28 30 65 35 92h-113v159h258v-125c0 -41 -31 -96 -50 -126zM310 538v-99c21 31 91 111 225 111h12c178 0 226 -123 226 -238v-54h-264v19c0 60 -26 110 -97 110c-64 0 -100 -48 -100 -116v-271h-272v538h270z" />
    <glyph glyph-name="sacute" unicode="&#x15b;" horiz-adv-x="814" 
d="M277 585l87 159h269l-110 -159h-246zM427 -15h-55c-324 0 -359 121 -359 191v7h277c0 -20 10 -66 111 -66h2c96 0 111 22 111 45v2c0 26 -14 41 -103 44l-114 3c-227 8 -278 89 -278 169v6c0 88 56 167 353 167h53c289 0 353 -82 353 -167v-7h-272c-3 18 -10 50 -108 50
h-1c-88 0 -105 -13 -105 -37v-1c0 -21 17 -37 100 -40l113 -3c243 -8 293 -64 293 -171v-7c0 -99 -55 -185 -371 -185z" />
    <glyph glyph-name="uni015F" unicode="&#x15f;" horiz-adv-x="814" 
d="M427 -15h-55c-324 0 -359 121 -359 191v7h277c0 -20 10 -66 111 -66h2c96 0 111 22 111 45v2c0 26 -14 41 -103 44l-114 3c-227 8 -278 89 -278 169v6c0 88 56 167 353 167h53c289 0 353 -82 353 -167v-7h-272c-3 18 -10 50 -108 50h-1c-88 0 -105 -13 -105 -37v-1
c0 -21 17 -37 100 -40l113 -3c243 -8 293 -64 293 -171v-7c0 -99 -55 -185 -371 -185zM221 -259v92h109c28 0 36 9 36 22c0 12 -8 22 -36 22h-71v123h138v-49c160 0 192 -40 192 -102v-3c0 -57 -34 -105 -193 -105h-175z" />
    <glyph glyph-name="scircumflex" unicode="&#x15d;" horiz-adv-x="814" 
d="M541 744l153 -159h-236l-58 63l-58 -63h-233l152 159h280zM427 -15h-55c-324 0 -359 121 -359 191v7h277c0 -20 10 -66 111 -66h2c96 0 111 22 111 45v2c0 26 -14 41 -103 44l-114 3c-227 8 -278 89 -278 169v6c0 88 56 167 353 167h53c289 0 353 -82 353 -167v-7h-272
c-3 18 -10 50 -108 50h-1c-88 0 -105 -13 -105 -37v-1c0 -21 17 -37 100 -40l113 -3c243 -8 293 -64 293 -171v-7c0 -99 -55 -185 -371 -185z" />
    <glyph glyph-name="uni0219" unicode="&#x219;" horiz-adv-x="814" 
d="M484 -298h-130c15 28 30 65 35 92h-113v159h258v-125c0 -41 -31 -96 -50 -126zM427 -15h-55c-324 0 -359 121 -359 191v7h277c0 -20 10 -66 111 -66h2c96 0 111 22 111 45v2c0 26 -14 41 -103 44l-114 3c-227 8 -278 89 -278 169v6c0 88 56 167 353 167h53
c289 0 353 -82 353 -167v-7h-272c-3 18 -10 50 -108 50h-1c-88 0 -105 -13 -105 -37v-1c0 -21 17 -37 100 -40l113 -3c243 -8 293 -64 293 -171v-7c0 -99 -55 -185 -371 -185z" />
    <glyph glyph-name="tbar" unicode="&#x167;" horiz-adv-x="514" 
d="M489 161v-161h-230c-93 0 -143 50 -143 153v70h-103v117h103v46h-103v152h103v157h270v-157h103v-152h-103v-46h103v-117h-103v-14c0 -33 6 -48 45 -48h58z" />
    <glyph glyph-name="tcaron" unicode="&#x165;" horiz-adv-x="514" 
d="M489 0h-230c-93 0 -143 50 -143 153v220h-103v165h103v157h270v-157h103v-165h-103v-159c0 -33 6 -47 45 -47h58v-167zM413 575l14 169h205l-28 -169h-191z" />
    <glyph glyph-name="tcommaaccent" unicode="&#x163;" horiz-adv-x="514" 
d="M404 -296h-130c15 28 30 65 35 92h-113v159h258v-125c0 -41 -31 -96 -50 -126zM489 0h-230c-93 0 -143 50 -143 153v220h-103v165h103v157h270v-157h103v-165h-103v-159c0 -33 6 -47 45 -47h58v-167z" />
    <glyph glyph-name="uni021B" unicode="&#x21b;" horiz-adv-x="514" 
d="M404 -296h-130c15 28 30 65 35 92h-113v159h258v-125c0 -41 -31 -96 -50 -126zM489 0h-230c-93 0 -143 50 -143 153v220h-103v165h103v157h270v-157h103v-165h-103v-159c0 -33 6 -47 45 -47h58v-167z" />
    <glyph glyph-name="ubreve" unicode="&#x16d;" horiz-adv-x="887" 
d="M847 538v-538h-270v96c-26 -26 -108 -108 -273 -108h-7c-200 0 -258 123 -258 210v340h273v-257c0 -69 33 -124 124 -124s140 58 140 131v250h271zM685 744v-2c0 -54 -47 -165 -221 -165h-40c-191 0 -223 111 -223 165v2h181c0 -13 8 -48 63 -48c52 0 62 35 62 48h178z
" />
    <glyph glyph-name="uhungarumlaut" unicode="&#x171;" horiz-adv-x="887" 
d="M847 538v-538h-270v96c-26 -26 -108 -108 -273 -108h-7c-200 0 -258 123 -258 210v340h273v-257c0 -69 33 -124 124 -124s140 58 140 131v250h271zM464 583l63 161h237l-69 -161h-231zM191 583l56 161h236l-62 -161h-230z" />
    <glyph glyph-name="umacron" unicode="&#x16b;" horiz-adv-x="887" 
d="M847 538v-538h-270v96c-26 -26 -108 -108 -273 -108h-7c-200 0 -258 123 -258 210v340h273v-257c0 -69 33 -124 124 -124s140 58 140 131v250h271zM217 593v129h452v-129h-452z" />
    <glyph glyph-name="uogonek" unicode="&#x173;" horiz-adv-x="887" 
d="M540 -116v3c0 55 69 84 193 113h114c-35 -23 -60 -41 -60 -61c0 -14 11 -21 33 -21h27v-106h-160c-104 0 -147 25 -147 72zM847 538v-538h-270v96c-26 -26 -108 -108 -273 -108h-7c-200 0 -258 123 -258 210v340h273v-257c0 -69 33 -124 124 -124s140 58 140 131v250h271
z" />
    <glyph glyph-name="uring" unicode="&#x16f;" horiz-adv-x="887" 
d="M847 538v-538h-270v96c-26 -26 -108 -108 -273 -108h-7c-200 0 -258 123 -258 210v340h273v-257c0 -69 33 -124 124 -124s140 58 140 131v250h271zM246 695c0 64 46 118 198 118s195 -54 195 -118c0 -66 -43 -119 -195 -119c-156 0 -198 54 -198 119zM369 695
c0 -27 23 -45 75 -45c51 0 73 18 73 45s-22 44 -73 44c-52 0 -75 -17 -75 -44z" />
    <glyph glyph-name="utilde" unicode="&#x169;" horiz-adv-x="887" 
d="M847 538v-538h-270v96c-26 -26 -108 -108 -273 -108h-7c-200 0 -258 123 -258 210v340h273v-257c0 -69 33 -124 124 -124s140 58 140 131v250h271zM571 585h-4c-40 0 -68 8 -132 29c-29 9 -43 14 -56 14s-16 -9 -16 -21v-27h-159v81c0 41 17 97 110 97h4
c44 0 67 -7 133 -28c27 -9 40 -15 55 -15c11 0 15 9 15 20v29h160v-76c0 -43 -13 -103 -110 -103z" />
    <glyph glyph-name="wacute" unicode="&#x1e83;" horiz-adv-x="1219" 
d="M509 0h-307l-212 538h283l105 -339l103 339h280l105 -338l103 338h260l-200 -538h-304l-108 326zM502 583l89 161h268l-111 -161h-246z" />
    <glyph glyph-name="wcircumflex" unicode="&#x175;" horiz-adv-x="1219" 
d="M509 0h-307l-212 538h283l105 -339l103 339h280l105 -338l103 338h260l-200 -538h-304l-108 326zM761 744l153 -162h-237l-58 66l-58 -66h-233l152 162h281z" />
    <glyph glyph-name="wdieresis" unicode="&#x1e85;" horiz-adv-x="1219" 
d="M509 0h-307l-212 538h283l105 -339l103 339h280l105 -338l103 338h260l-200 -538h-304l-108 326zM880 744v-161h-238v161h238zM596 744v-161h-237v161h237z" />
    <glyph glyph-name="wgrave" unicode="&#x1e81;" horiz-adv-x="1219" 
d="M509 0h-307l-212 538h283l105 -339l103 339h280l105 -338l103 338h260l-200 -538h-304l-108 326zM739 583h-247l-111 161h270z" />
    <glyph glyph-name="ycircumflex" unicode="&#x177;" horiz-adv-x="827" 
d="M119 -188v166h122c20 0 25 8 25 17v1c0 11 -8 26 -23 54l-254 488h290l150 -346l139 346h270l-259 -561c-52 -113 -110 -165 -207 -165h-253zM565 744l153 -162h-237l-58 66l-58 -66h-233l152 162h281z" />
    <glyph glyph-name="ygrave" unicode="&#x1ef3;" horiz-adv-x="827" 
d="M119 -188v166h122c20 0 25 8 25 17v1c0 11 -8 26 -23 54l-254 488h290l150 -346l139 346h270l-259 -561c-52 -113 -110 -165 -207 -165h-253zM550 583h-247l-111 161h270z" />
    <glyph glyph-name="zacute" unicode="&#x17a;" horiz-adv-x="752" 
d="M730 0h-708v146l358 233h-358v159h707v-143l-369 -230h370v-165zM244 583l89 161h268l-111 -161h-246z" />
    <glyph glyph-name="zdotaccent" unicode="&#x17c;" horiz-adv-x="752" 
d="M730 0h-708v146l358 233h-358v159h707v-143l-369 -230h370v-165zM511 744v-161h-271v161h271z" />
    <glyph glyph-name="space_uni0326" 
d="M432 -296h-130c15 28 30 65 35 92h-113v159h258v-125c0 -41 -31 -96 -50 -126z" />
    <glyph glyph-name="oneeighth" unicode="&#x215b;" horiz-adv-x="1118" 
d="M115 580h-100v93c81 3 116 32 132 71h154v-368h-186v204zM772 744h195l-820 -744h-189zM1097 277v-6c0 -42 -44 -68 -91 -76c55 -8 101 -36 101 -83v-8c0 -42 -24 -111 -264 -111h-24c-242 0 -265 69 -265 111v8c0 47 46 75 101 83c-48 8 -91 33 -91 76v6
c0 42 23 98 255 98h24c232 0 254 -56 254 -98zM908 261v2c0 13 -9 26 -78 26c-68 0 -77 -13 -77 -26v-2c0 -14 9 -27 77 -27c69 0 78 13 78 27zM917 120v1c0 16 -12 30 -87 30s-86 -14 -86 -30v-1c0 -16 13 -31 86 -31c75 0 87 15 87 31z" />
    <glyph glyph-name="onethird" unicode="&#x2153;" horiz-adv-x="1105" 
d="M115 580h-100v93c81 3 116 32 132 71h154v-368h-186v204zM772 744h195l-820 -744h-189zM830 -7h-33c-231 0 -253 98 -253 139v5h184c0 -9 7 -40 86 -40c78 0 87 15 87 28v2c0 13 -8 21 -43 21h-112v90h107c33 0 41 8 41 17v2c0 11 -9 22 -84 22c-78 0 -82 -24 -82 -31
h-178v5c0 29 12 123 241 123h34c230 0 256 -50 256 -94v-4c0 -36 -34 -59 -77 -64c52 -8 93 -38 93 -90v-4c0 -60 -38 -127 -267 -127z" />
    <glyph glyph-name="threeeighths" unicode="&#x215c;" horiz-adv-x="1310" 
d="M962 744h195l-820 -744h-189zM294 370h-33c-231 0 -253 98 -253 139v5h184c0 -9 7 -40 86 -40c78 0 87 15 87 28v2c0 13 -8 21 -43 21h-112v90h107c33 0 41 8 41 17v2c0 11 -9 22 -84 22c-78 0 -82 -24 -82 -31h-178v5c0 29 12 123 241 123h34c230 0 256 -50 256 -94v-4
c0 -36 -34 -59 -77 -64c52 -8 93 -38 93 -90v-4c0 -60 -38 -127 -267 -127zM1289 277v-6c0 -42 -44 -68 -91 -76c55 -8 101 -36 101 -83v-8c0 -42 -24 -111 -264 -111h-24c-242 0 -265 69 -265 111v8c0 47 46 75 101 83c-48 8 -91 33 -91 76v6c0 42 23 98 255 98h24
c232 0 254 -56 254 -98zM1100 261v2c0 13 -9 26 -78 26c-68 0 -77 -13 -77 -26v-2c0 -14 9 -27 77 -27c69 0 78 13 78 27zM1109 120v1c0 16 -12 30 -87 30s-86 -14 -86 -30v-1c0 -16 13 -31 86 -31c75 0 87 15 87 31z" />
    <glyph glyph-name="fiveeighths" unicode="&#x215d;" horiz-adv-x="1282" 
d="M934 744h195l-820 -744h-189zM296 369h-35c-229 0 -241 86 -241 121v3h182c0 -4 9 -26 76 -26c61 0 74 17 74 36v3c0 17 -14 35 -74 35c-67 0 -76 -21 -76 -25h-175v228h482v-95h-306v-56c9 6 43 32 139 32h3c157 0 192 -51 192 -116v-4c0 -65 -33 -136 -241 -136z
M1261 277v-6c0 -42 -44 -68 -91 -76c55 -8 101 -36 101 -83v-8c0 -42 -24 -111 -264 -111h-24c-242 0 -265 69 -265 111v8c0 47 46 75 101 83c-48 8 -91 33 -91 76v6c0 42 23 98 255 98h24c232 0 254 -56 254 -98zM1072 261v2c0 13 -9 26 -78 26c-68 0 -77 -13 -77 -26v-2
c0 -14 9 -27 77 -27c69 0 78 13 78 27zM1081 120v1c0 16 -12 30 -87 30s-86 -14 -86 -30v-1c0 -16 13 -31 86 -31c75 0 87 15 87 31z" />
    <glyph glyph-name="twothirds" unicode="&#x2154;" horiz-adv-x="1329" 
d="M537 376h-524v47c0 72 21 138 254 178c71 11 83 22 83 33v1c0 11 -10 22 -70 22c-71 0 -79 -28 -79 -43h-182v4c0 45 18 134 249 134h19c212 0 251 -54 251 -118v-5c0 -72 -66 -95 -236 -114c-80 -11 -123 -14 -134 -29h369v-110zM996 744h195l-820 -744h-189zM1053 -7
h-33c-231 0 -253 98 -253 139v5h184c0 -9 7 -40 86 -40c78 0 87 15 87 28v2c0 13 -8 21 -43 21h-112v90h107c33 0 41 8 41 17v2c0 11 -9 22 -84 22c-78 0 -82 -24 -82 -31h-178v5c0 29 12 123 241 123h34c230 0 256 -50 256 -94v-4c0 -36 -34 -59 -77 -64
c52 -8 93 -38 93 -90v-4c0 -60 -38 -127 -267 -127z" />
    <glyph glyph-name="seveneighths" unicode="&#x215e;" horiz-adv-x="1210" 
d="M17 744h519v-94c-13 -15 -50 -52 -87 -99c-53 -66 -56 -102 -56 -171v-4h-210v45c0 54 24 83 97 145c59 47 84 65 84 76h-170v-72h-177v174zM862 744h195l-820 -744h-189zM1189 277v-6c0 -42 -44 -68 -91 -76c55 -8 101 -36 101 -83v-8c0 -42 -24 -111 -264 -111h-24
c-242 0 -265 69 -265 111v8c0 47 46 75 101 83c-48 8 -91 33 -91 76v6c0 42 23 98 255 98h24c232 0 254 -56 254 -98zM1000 261v2c0 13 -9 26 -78 26c-68 0 -77 -13 -77 -26v-2c0 -14 9 -27 77 -27c69 0 78 13 78 27zM1009 120v1c0 16 -12 30 -87 30s-86 -14 -86 -30v-1
c0 -16 13 -31 86 -31c75 0 87 15 87 31z" />
    <glyph glyph-name="uni2032" unicode="&#x2032;" horiz-adv-x="289" 
d="M277 744l-52 -262h-213l52 262h213z" />
    <glyph glyph-name="uni2033" unicode="&#x2033;" horiz-adv-x="541" 
d="M276 744l-52 -262h-212l52 262h212zM477 482h-212l52 262h212z" />
    <glyph glyph-name="uni24C5" unicode="&#x24c5;" horiz-adv-x="1185" 
d="M1162 387v-28c0 -193 -114 -371 -558 -371h-23c-444 0 -558 179 -558 371v28c0 188 112 369 557 369h24c446 0 558 -182 558 -369zM582 82h21c331 0 425 129 425 282v17c0 164 -94 282 -425 282h-21c-331 0 -425 -118 -425 -282v-17c0 -153 94 -282 425 -282zM684 267
h-153v-109h-207v432h360c198 0 243 -68 243 -156v-10c0 -88 -48 -157 -243 -157zM531 473v-90h129c39 0 59 15 59 44v3c0 29 -20 43 -59 43h-129z" />
    <glyph glyph-name="zero.num" unicode="&#xe416;" horiz-adv-x="627" 
d="M303 752h23c250 0 285 -112 285 -184v-15c0 -69 -33 -184 -285 -184h-23c-253 0 -286 115 -286 184v15c0 72 33 184 286 184zM418 560v6c0 33 -20 76 -104 76s-104 -43 -104 -76v-6c0 -35 20 -80 104 -80s104 45 104 80z" />
    <glyph glyph-name="one.num" unicode="&#xe417;" horiz-adv-x="334" 
d="M115 580h-100v93c81 3 116 32 132 71h154v-368h-186v204z" />
    <glyph glyph-name="two.num" unicode="&#xe418;" horiz-adv-x="554" 
d="M537 376h-524v47c0 72 21 138 254 178c71 11 83 22 83 33v1c0 11 -10 22 -70 22c-71 0 -79 -28 -79 -43h-182v4c0 45 18 134 249 134h19c212 0 251 -54 251 -118v-5c0 -72 -66 -95 -236 -114c-80 -11 -123 -14 -134 -29h369v-110z" />
    <glyph glyph-name="three.num" unicode="&#xe419;" horiz-adv-x="569" 
d="M294 369h-33c-231 0 -253 98 -253 139v5h184c0 -9 7 -40 86 -40c78 0 87 15 87 28v2c0 13 -8 21 -43 21h-112v90h107c33 0 41 8 41 17v2c0 11 -9 22 -84 22c-78 0 -82 -24 -82 -31h-178v5c0 29 12 123 241 123h34c230 0 256 -50 256 -94v-4c0 -36 -34 -59 -77 -64
c52 -8 93 -38 93 -90v-4c0 -60 -38 -127 -267 -127z" />
    <glyph glyph-name="four.num" unicode="&#xe41a;" horiz-adv-x="556" 
d="M12 543l256 202h201v-190h75v-107h-75v-72h-185v72h-272v95zM157 555h127v100z" />
    <glyph glyph-name="five.num" unicode="&#xe41b;" horiz-adv-x="551" 
d="M296 369h-35c-229 0 -241 86 -241 121v3h182c0 -4 9 -26 76 -26c61 0 74 17 74 36v3c0 17 -14 35 -74 35c-67 0 -76 -21 -76 -25h-175v228h482v-95h-306v-56c9 6 43 32 139 32h3c157 0 192 -51 192 -116v-4c0 -65 -33 -136 -241 -136z" />
    <glyph glyph-name="six.num" unicode="&#xe41c;" horiz-adv-x="594" 
d="M318 369h-33c-239 0 -268 114 -268 186v12c0 73 32 185 264 185h27c219 0 258 -73 258 -122v-2h-181c-2 4 -9 26 -82 26c-89 0 -100 -52 -100 -76v-2c11 8 49 35 160 35h7c180 0 213 -48 213 -107v-5c0 -56 -28 -130 -265 -130zM215 499v-2c0 -14 12 -33 90 -33
c80 0 88 18 88 33v2c0 15 -11 33 -88 33c-78 0 -90 -17 -90 -33z" />
    <glyph glyph-name="seven.num" unicode="&#xe41d;" horiz-adv-x="550" 
d="M17 744h519v-94c-13 -15 -50 -52 -87 -99c-53 -66 -56 -102 -56 -171v-4h-210v45c0 54 24 83 97 145c59 47 84 65 84 76h-170v-72h-177v174z" />
    <glyph glyph-name="eight.num" unicode="&#xe41e;" horiz-adv-x="573" 
d="M553 653v-6c0 -42 -44 -68 -91 -76c55 -8 101 -36 101 -83v-8c0 -42 -24 -111 -264 -111h-24c-242 0 -265 69 -265 111v8c0 47 46 75 101 83c-48 8 -91 33 -91 76v6c0 42 23 98 255 98h24c232 0 254 -56 254 -98zM364 637v2c0 13 -9 26 -78 26c-68 0 -77 -13 -77 -26v-2
c0 -14 9 -27 77 -27c69 0 78 13 78 27zM373 496v1c0 16 -12 30 -87 30s-86 -14 -86 -30v-1c0 -16 13 -31 86 -31c75 0 87 15 87 31z" />
    <glyph glyph-name="nine.num" unicode="&#xe41f;" horiz-adv-x="595" 
d="M379 621v2c0 15 -12 33 -89 33c-80 0 -90 -18 -90 -33v-1c0 -15 12 -33 90 -33c77 0 89 17 89 32zM313 369h-28c-221 0 -256 77 -256 122v1h181c0 -4 10 -26 82 -26c88 0 98 52 98 76v2c-10 -8 -50 -34 -155 -34h-6c-180 0 -217 53 -217 110v5c0 55 24 127 260 127h33
c239 0 272 -111 272 -183v-13c0 -72 -33 -187 -264 -187z" />
    <glyph glyph-name="zero.den" unicode="&#xe402;" horiz-adv-x="627" 
d="M303 376h23c250 0 285 -112 285 -184v-15c0 -69 -33 -184 -285 -184h-23c-253 0 -286 115 -286 184v15c0 72 33 184 286 184zM418 184v6c0 33 -20 76 -104 76s-104 -43 -104 -76v-6c0 -35 20 -80 104 -80s104 45 104 80z" />
    <glyph glyph-name="one.den" unicode="&#xe403;" horiz-adv-x="334" 
d="M115 204h-100v93c81 3 116 32 132 71h154v-368h-186v204z" />
    <glyph glyph-name="two.den" unicode="&#xe404;" horiz-adv-x="554" 
d="M537 0h-524v47c0 72 21 138 254 178c71 11 83 22 83 33v1c0 11 -10 22 -70 22c-71 0 -79 -28 -79 -43h-182v4c0 45 18 134 249 134h19c212 0 251 -54 251 -118v-5c0 -72 -66 -95 -236 -114c-80 -11 -123 -14 -134 -29h369v-110z" />
    <glyph glyph-name="three.den" unicode="&#xe405;" horiz-adv-x="569" 
d="M294 -7h-33c-231 0 -253 98 -253 139v5h184c0 -9 7 -40 86 -40c78 0 87 15 87 28v2c0 13 -8 21 -43 21h-112v90h107c33 0 41 8 41 17v2c0 11 -9 22 -84 22c-78 0 -82 -24 -82 -31h-178v5c0 29 12 123 241 123h34c230 0 256 -50 256 -94v-4c0 -36 -34 -59 -77 -64
c52 -8 93 -38 93 -90v-4c0 -60 -38 -127 -267 -127z" />
    <glyph glyph-name="four.den" unicode="&#xe406;" horiz-adv-x="556" 
d="M12 167l256 202h201v-190h75v-107h-75v-72h-185v72h-272v95zM157 179h127v100z" />
    <glyph glyph-name="five.den" unicode="&#xe407;" horiz-adv-x="551" 
d="M296 -7h-35c-229 0 -241 86 -241 121v3h182c0 -4 9 -26 76 -26c61 0 74 17 74 36v3c0 17 -14 35 -74 35c-67 0 -76 -21 -76 -25h-175v228h482v-95h-306v-56c9 6 43 32 139 32h3c157 0 192 -51 192 -116v-4c0 -65 -33 -136 -241 -136z" />
    <glyph glyph-name="six.den" unicode="&#xe408;" horiz-adv-x="594" 
d="M318 -7h-33c-239 0 -268 114 -268 186v12c0 73 32 185 264 185h27c219 0 258 -73 258 -122v-2h-181c-2 4 -9 26 -82 26c-89 0 -100 -52 -100 -76v-2c11 8 49 35 160 35h7c180 0 213 -48 213 -107v-5c0 -56 -28 -130 -265 -130zM215 123v-2c0 -14 12 -33 90 -33
c80 0 88 18 88 33v2c0 15 -11 33 -88 33c-78 0 -90 -17 -90 -33z" />
    <glyph glyph-name="seven.den" unicode="&#xe409;" horiz-adv-x="550" 
d="M17 368h519v-94c-13 -15 -50 -52 -87 -99c-53 -66 -56 -102 -56 -171v-4h-210v45c0 54 24 83 97 145c59 47 84 65 84 76h-170v-72h-177v174z" />
    <glyph glyph-name="eight.den" unicode="&#xe40a;" horiz-adv-x="573" 
d="M553 277v-6c0 -42 -44 -68 -91 -76c55 -8 101 -36 101 -83v-8c0 -42 -24 -111 -264 -111h-24c-242 0 -265 69 -265 111v8c0 47 46 75 101 83c-48 8 -91 33 -91 76v6c0 42 23 98 255 98h24c232 0 254 -56 254 -98zM364 261v2c0 13 -9 26 -78 26c-68 0 -77 -13 -77 -26v-2
c0 -14 9 -27 77 -27c69 0 78 13 78 27zM373 120v1c0 16 -12 30 -87 30s-86 -14 -86 -30v-1c0 -16 13 -31 86 -31c75 0 87 15 87 31z" />
    <glyph glyph-name="nine.den" unicode="&#xe40b;" horiz-adv-x="595" 
d="M379 245v2c0 15 -12 33 -89 33c-80 0 -90 -18 -90 -33v-1c0 -15 12 -33 90 -33c77 0 89 17 89 32zM313 -7h-28c-221 0 -256 77 -256 122v1h181c0 -4 10 -26 82 -26c88 0 98 52 98 76v2c-10 -8 -50 -34 -155 -34h-6c-180 0 -217 53 -217 110v5c0 55 24 127 260 127h33
c239 0 272 -111 272 -183v-13c0 -72 -33 -187 -264 -187z" />
    <glyph glyph-name="zero.sub" unicode="&#x2080;" horiz-adv-x="627" 
d="M303 282h23c250 0 285 -112 285 -184v-15c0 -69 -33 -184 -285 -184h-23c-253 0 -286 115 -286 184v15c0 72 33 184 286 184zM418 90v6c0 33 -20 76 -104 76s-104 -43 -104 -76v-6c0 -35 20 -80 104 -80s104 45 104 80z" />
    <glyph glyph-name="one.sub" unicode="&#x2081;" horiz-adv-x="334" 
d="M115 110h-100v93c81 3 116 32 132 71h154v-368h-186v204z" />
    <glyph glyph-name="two.sub" unicode="&#x2082;" horiz-adv-x="554" 
d="M537 -94h-524v47c0 72 21 138 254 178c71 11 83 22 83 33v1c0 11 -10 22 -70 22c-71 0 -79 -28 -79 -43h-182v4c0 45 18 134 249 134h19c212 0 251 -54 251 -118v-5c0 -72 -66 -95 -236 -114c-80 -11 -123 -14 -134 -29h369v-110z" />
    <glyph glyph-name="three.sub" unicode="&#x2083;" horiz-adv-x="569" 
d="M294 -101h-33c-231 0 -253 98 -253 139v5h184c0 -9 7 -40 86 -40c78 0 87 15 87 28v2c0 13 -8 21 -43 21h-112v90h107c33 0 41 8 41 17v2c0 11 -9 22 -84 22c-78 0 -82 -24 -82 -31h-178v5c0 29 12 123 241 123h34c230 0 256 -50 256 -94v-4c0 -36 -34 -59 -77 -64
c52 -8 93 -38 93 -90v-4c0 -60 -38 -127 -267 -127z" />
    <glyph glyph-name="four.sub" unicode="&#x2084;" horiz-adv-x="556" 
d="M12 73l256 202h201v-190h75v-107h-75v-72h-185v72h-272v95zM157 85h127v100z" />
    <glyph glyph-name="five.sub" unicode="&#x2085;" horiz-adv-x="551" 
d="M296 -101h-35c-229 0 -241 86 -241 121v3h182c0 -4 9 -26 76 -26c61 0 74 17 74 36v3c0 17 -14 35 -74 35c-67 0 -76 -21 -76 -25h-175v228h482v-95h-306v-56c9 6 43 32 139 32h3c157 0 192 -51 192 -116v-4c0 -65 -33 -136 -241 -136z" />
    <glyph glyph-name="six.sub" unicode="&#x2086;" horiz-adv-x="594" 
d="M318 -101h-33c-239 0 -268 114 -268 186v12c0 73 32 185 264 185h27c219 0 258 -73 258 -122v-2h-181c-2 4 -9 26 -82 26c-89 0 -100 -52 -100 -76v-2c11 8 49 35 160 35h7c180 0 213 -48 213 -107v-5c0 -56 -28 -130 -265 -130zM215 29v-2c0 -14 12 -33 90 -33
c80 0 88 18 88 33v2c0 15 -11 33 -88 33c-78 0 -90 -17 -90 -33z" />
    <glyph glyph-name="seven.sub" unicode="&#x2087;" horiz-adv-x="550" 
d="M17 274h519v-94c-13 -15 -50 -52 -87 -99c-53 -66 -56 -102 -56 -171v-4h-210v45c0 54 24 83 97 145c59 47 84 65 84 76h-170v-72h-177v174z" />
    <glyph glyph-name="eight.sub" unicode="&#x2088;" horiz-adv-x="573" 
d="M553 183v-6c0 -42 -44 -68 -91 -76c55 -8 101 -36 101 -83v-8c0 -42 -24 -111 -264 -111h-24c-242 0 -265 69 -265 111v8c0 47 46 75 101 83c-48 8 -91 33 -91 76v6c0 42 23 98 255 98h24c232 0 254 -56 254 -98zM364 167v2c0 13 -9 26 -78 26c-68 0 -77 -13 -77 -26v-2
c0 -14 9 -27 77 -27c69 0 78 13 78 27zM373 26v1c0 16 -12 30 -87 30s-86 -14 -86 -30v-1c0 -16 13 -31 86 -31c75 0 87 15 87 31z" />
    <glyph glyph-name="nine.sub" unicode="&#x2089;" horiz-adv-x="595" 
d="M379 151v2c0 15 -12 33 -89 33c-80 0 -90 -18 -90 -33v-1c0 -15 12 -33 90 -33c77 0 89 17 89 32zM313 -101h-28c-221 0 -256 77 -256 122v1h181c0 -4 10 -26 82 -26c88 0 98 52 98 76v2c-10 -8 -50 -34 -155 -34h-6c-180 0 -217 53 -217 110v5c0 55 24 127 260 127h33
c239 0 272 -111 272 -183v-13c0 -72 -33 -187 -264 -187z" />
    <glyph glyph-name="zero.sup" unicode="&#x2070;" horiz-adv-x="627" 
d="M303 752h23c250 0 285 -112 285 -184v-15c0 -69 -33 -184 -285 -184h-23c-253 0 -286 115 -286 184v15c0 72 33 184 286 184zM418 560v6c0 33 -20 76 -104 76s-104 -43 -104 -76v-6c0 -35 20 -80 104 -80s104 45 104 80z" />
    <glyph glyph-name="one.sup" unicode="&#xb9;" horiz-adv-x="334" 
d="M115 580h-100v93c81 3 116 32 132 71h154v-368h-186v204z" />
    <glyph glyph-name="two.sup" unicode="&#xb2;" horiz-adv-x="554" 
d="M537 376h-524v47c0 72 21 138 254 178c71 11 83 22 83 33v1c0 11 -10 22 -70 22c-71 0 -79 -28 -79 -43h-182v4c0 45 18 134 249 134h19c212 0 251 -54 251 -118v-5c0 -72 -66 -95 -236 -114c-80 -11 -123 -14 -134 -29h369v-110z" />
    <glyph glyph-name="three.sup" unicode="&#xb3;" horiz-adv-x="569" 
d="M294 369h-33c-231 0 -253 98 -253 139v5h184c0 -9 7 -40 86 -40c78 0 87 15 87 28v2c0 13 -8 21 -43 21h-112v90h107c33 0 41 8 41 17v2c0 11 -9 22 -84 22c-78 0 -82 -24 -82 -31h-178v5c0 29 12 123 241 123h34c230 0 256 -50 256 -94v-4c0 -36 -34 -59 -77 -64
c52 -8 93 -38 93 -90v-4c0 -60 -38 -127 -267 -127z" />
    <glyph glyph-name="four.sup" unicode="&#x2074;" horiz-adv-x="556" 
d="M12 543l256 202h201v-190h75v-107h-75v-72h-185v72h-272v95zM157 555h127v100z" />
    <glyph glyph-name="five.sup" unicode="&#x2075;" horiz-adv-x="551" 
d="M296 369h-35c-229 0 -241 86 -241 121v3h182c0 -4 9 -26 76 -26c61 0 74 17 74 36v3c0 17 -14 35 -74 35c-67 0 -76 -21 -76 -25h-175v228h482v-95h-306v-56c9 6 43 32 139 32h3c157 0 192 -51 192 -116v-4c0 -65 -33 -136 -241 -136z" />
    <glyph glyph-name="six.sup" unicode="&#x2076;" horiz-adv-x="594" 
d="M318 369h-33c-239 0 -268 114 -268 186v12c0 73 32 185 264 185h27c219 0 258 -73 258 -122v-2h-181c-2 4 -9 26 -82 26c-89 0 -100 -52 -100 -76v-2c11 8 49 35 160 35h7c180 0 213 -48 213 -107v-5c0 -56 -28 -130 -265 -130zM215 499v-2c0 -14 12 -33 90 -33
c80 0 88 18 88 33v2c0 15 -11 33 -88 33c-78 0 -90 -17 -90 -33z" />
    <glyph glyph-name="seven.sup" unicode="&#x2077;" horiz-adv-x="550" 
d="M17 744h519v-94c-13 -15 -50 -52 -87 -99c-53 -66 -56 -102 -56 -171v-4h-210v45c0 54 24 83 97 145c59 47 84 65 84 76h-170v-72h-177v174z" />
    <glyph glyph-name="eight.sup" unicode="&#x2078;" horiz-adv-x="573" 
d="M553 653v-6c0 -42 -44 -68 -91 -76c55 -8 101 -36 101 -83v-8c0 -42 -24 -111 -264 -111h-24c-242 0 -265 69 -265 111v8c0 47 46 75 101 83c-48 8 -91 33 -91 76v6c0 42 23 98 255 98h24c232 0 254 -56 254 -98zM364 637v2c0 13 -9 26 -78 26c-68 0 -77 -13 -77 -26v-2
c0 -14 9 -27 77 -27c69 0 78 13 78 27zM373 496v1c0 16 -12 30 -87 30s-86 -14 -86 -30v-1c0 -16 13 -31 86 -31c75 0 87 15 87 31z" />
    <glyph glyph-name="nine.sup" unicode="&#x2079;" horiz-adv-x="595" 
d="M379 621v2c0 15 -12 33 -89 33c-80 0 -90 -18 -90 -33v-1c0 -15 12 -33 90 -33c77 0 89 17 89 32zM313 369h-28c-221 0 -256 77 -256 122v1h181c0 -4 10 -26 82 -26c88 0 98 52 98 76v2c-10 -8 -50 -34 -155 -34h-6c-180 0 -217 53 -217 110v5c0 55 24 127 260 127h33
c239 0 272 -111 272 -183v-13c0 -72 -33 -187 -264 -187z" />
    <glyph glyph-name="J.alt" horiz-adv-x="534" 
d="M26 0v212h95c63 0 90 26 90 105v427h284v-489c0 -173 -82 -255 -253 -255h-216z" />
    <glyph glyph-name="IJ.alt" horiz-adv-x="908" 
d="M331 744v-744h-283v744h283zM399 0v212h95c63 0 90 26 90 105v427h284v-489c0 -173 -82 -255 -253 -255h-216z" />
    <glyph glyph-name="a.alt" horiz-adv-x="826" 
d="M521 231v23l-180 -32c-47 -8 -66 -19 -66 -46v-1c0 -25 18 -55 85 -55c100 0 161 55 161 111zM526 72c-26 -26 -95 -82 -252 -82h-11c-180 0 -249 85 -249 173v12c0 90 58 143 218 156l259 23c23 3 30 11 30 26c0 20 -11 41 -117 41h-4c-115 0 -118 -38 -121 -55h-252v6
c0 72 22 180 345 180h56c336 0 359 -97 359 -180v-190c0 -117 6 -153 14 -177v-5h-263c-5 9 -12 33 -12 72z" />
    <glyph glyph-name="a.alt2" horiz-adv-x="910" 
d="M598 269v5c0 59 -57 124 -158 124h-5c-106 0 -140 -65 -140 -124v-5c0 -56 41 -127 142 -127h5c102 0 156 68 156 127zM598 538h272v-538h-271v79c-19 -24 -94 -89 -248 -89h-16c-220 0 -316 130 -316 272v21c0 134 94 265 307 265h18c152 0 231 -55 254 -78v68z" />
    <glyph glyph-name="r.alt" horiz-adv-x="589" 
d="M312 208v-208h-272v538h270v-128c32 60 98 140 252 140v-246c-15 3 -45 11 -102 11c-107 0 -148 -42 -148 -107z" />
    <glyph glyph-name="Jcircumflex.alt" horiz-adv-x="534" 
d="M490 944l164 -155h-244l-62 58l-61 -58h-241l162 155h282zM26 0v212h95c63 0 90 26 90 105v427h284v-489c0 -173 -82 -255 -253 -255h-216z" />
    <glyph glyph-name="aacute.alt" horiz-adv-x="826" 
d="M278 585l87 159h269l-111 -159h-245zM521 231v23l-180 -32c-47 -8 -66 -19 -66 -46v-1c0 -25 18 -55 85 -55c100 0 161 55 161 111zM526 72c-26 -26 -95 -82 -252 -82h-11c-180 0 -249 85 -249 173v12c0 90 58 143 218 156l259 23c23 3 30 11 30 26c0 20 -11 41 -117 41
h-4c-115 0 -118 -38 -121 -55h-252v6c0 72 22 180 345 180h56c336 0 359 -97 359 -180v-190c0 -117 6 -153 14 -177v-5h-263c-5 9 -12 33 -12 72z" />
    <glyph glyph-name="aacute.alt2" horiz-adv-x="910" 
d="M311 583l89 161h268l-111 -161h-246zM598 269v5c0 59 -57 124 -158 124h-5c-106 0 -140 -65 -140 -124v-5c0 -56 41 -127 142 -127h5c102 0 156 68 156 127zM598 538h272v-538h-271v79c-19 -24 -94 -89 -248 -89h-16c-220 0 -316 130 -316 272v21c0 134 94 265 307 265
h18c152 0 231 -55 254 -78v68z" />
    <glyph glyph-name="abreve.alt" horiz-adv-x="826" 
d="M424 578h-40c-190 0 -223 112 -223 164v2h181c0 -13 10 -47 63 -47c51 0 62 34 62 47h178v-2c0 -52 -48 -164 -221 -164zM521 231v23l-180 -32c-47 -8 -66 -19 -66 -46v-1c0 -25 18 -55 85 -55c100 0 161 55 161 111zM526 72c-26 -26 -95 -82 -252 -82h-11
c-180 0 -249 85 -249 173v12c0 90 58 143 218 156l259 23c23 3 30 11 30 26c0 20 -11 41 -117 41h-4c-115 0 -118 -38 -121 -55h-252v6c0 72 22 180 345 180h56c336 0 359 -97 359 -180v-190c0 -117 6 -153 14 -177v-5h-263c-5 9 -12 33 -12 72z" />
    <glyph glyph-name="abreve.alt2" horiz-adv-x="910" 
d="M598 269v5c0 59 -57 124 -158 124h-5c-106 0 -140 -65 -140 -124v-5c0 -56 41 -127 142 -127h5c102 0 156 68 156 127zM598 538h272v-538h-271v79c-19 -24 -94 -89 -248 -89h-16c-220 0 -316 130 -316 272v21c0 134 94 265 307 265h18c152 0 231 -55 254 -78v68zM674 744
v-2c0 -54 -47 -165 -221 -165h-40c-191 0 -223 111 -223 165v2h181c0 -13 8 -48 63 -48c52 0 62 35 62 48h178z" />
    <glyph glyph-name="acircumflex.alt" horiz-adv-x="826" 
d="M541 744l153 -160h-236l-58 64l-58 -64h-234l153 160h280zM521 231v23l-180 -32c-47 -8 -66 -19 -66 -46v-1c0 -25 18 -55 85 -55c100 0 161 55 161 111zM526 72c-26 -26 -95 -82 -252 -82h-11c-180 0 -249 85 -249 173v12c0 90 58 143 218 156l259 23c23 3 30 11 30 26
c0 20 -11 41 -117 41h-4c-115 0 -118 -38 -121 -55h-252v6c0 72 22 180 345 180h56c336 0 359 -97 359 -180v-190c0 -117 6 -153 14 -177v-5h-263c-5 9 -12 33 -12 72z" />
    <glyph glyph-name="acircumflex.alt2" horiz-adv-x="910" 
d="M573 744l153 -162h-237l-58 66l-58 -66h-233l152 162h281zM598 269v5c0 59 -57 124 -158 124h-5c-106 0 -140 -65 -140 -124v-5c0 -56 41 -127 142 -127h5c102 0 156 68 156 127zM598 538h272v-538h-271v79c-19 -24 -94 -89 -248 -89h-16c-220 0 -316 130 -316 272v21
c0 134 94 265 307 265h18c152 0 231 -55 254 -78v68z" />
    <glyph glyph-name="adieresis.alt" horiz-adv-x="826" 
d="M663 744v-159h-239v159h239zM378 744v-159h-238v159h238zM521 231v23l-180 -32c-47 -8 -66 -19 -66 -46v-1c0 -25 18 -55 85 -55c100 0 161 55 161 111zM526 72c-26 -26 -95 -82 -252 -82h-11c-180 0 -249 85 -249 173v12c0 90 58 143 218 156l259 23c23 3 30 11 30 26
c0 20 -11 41 -117 41h-4c-115 0 -118 -38 -121 -55h-252v6c0 72 22 180 345 180h56c336 0 359 -97 359 -180v-190c0 -117 6 -153 14 -177v-5h-263c-5 9 -12 33 -12 72z" />
    <glyph glyph-name="adieresis.alt2" horiz-adv-x="910" 
d="M694 744v-161h-238v161h238zM410 744v-161h-237v161h237zM598 269v5c0 59 -57 124 -158 124h-5c-106 0 -140 -65 -140 -124v-5c0 -56 41 -127 142 -127h5c102 0 156 68 156 127zM598 538h272v-538h-271v79c-19 -24 -94 -89 -248 -89h-16c-220 0 -316 130 -316 272v21
c0 134 94 265 307 265h18c152 0 231 -55 254 -78v68z" />
    <glyph glyph-name="agrave.alt" horiz-adv-x="826" 
d="M530 585h-247l-111 159h270zM521 231v23l-180 -32c-47 -8 -66 -19 -66 -46v-1c0 -25 18 -55 85 -55c100 0 161 55 161 111zM526 72c-26 -26 -95 -82 -252 -82h-11c-180 0 -249 85 -249 173v12c0 90 58 143 218 156l259 23c23 3 30 11 30 26c0 20 -11 41 -117 41h-4
c-115 0 -118 -38 -121 -55h-252v6c0 72 22 180 345 180h56c336 0 359 -97 359 -180v-190c0 -117 6 -153 14 -177v-5h-263c-5 9 -12 33 -12 72z" />
    <glyph glyph-name="agrave.alt2" horiz-adv-x="910" 
d="M598 269v5c0 59 -57 124 -158 124h-5c-106 0 -140 -65 -140 -124v-5c0 -56 41 -127 142 -127h5c102 0 156 68 156 127zM598 538h272v-538h-271v79c-19 -24 -94 -89 -248 -89h-16c-220 0 -316 130 -316 272v21c0 134 94 265 307 265h18c152 0 231 -55 254 -78v68zM558 583
h-247l-111 161h270z" />
    <glyph glyph-name="amacron.alt" horiz-adv-x="826" 
d="M521 231v23l-180 -32c-47 -8 -66 -19 -66 -46v-1c0 -25 18 -55 85 -55c100 0 161 55 161 111zM526 72c-26 -26 -95 -82 -252 -82h-11c-180 0 -249 85 -249 173v12c0 90 58 143 218 156l259 23c23 3 30 11 30 26c0 20 -11 41 -117 41h-4c-115 0 -118 -38 -121 -55h-252v6
c0 72 22 180 345 180h56c336 0 359 -97 359 -180v-190c0 -117 6 -153 14 -177v-5h-263c-5 9 -12 33 -12 72zM176 594v129h452v-129h-452z" />
    <glyph glyph-name="amacron.alt2" horiz-adv-x="910" 
d="M209 593v129h452v-129h-452zM598 269v5c0 59 -57 124 -158 124h-5c-106 0 -140 -65 -140 -124v-5c0 -56 41 -127 142 -127h5c102 0 156 68 156 127zM598 538h272v-538h-271v79c-19 -24 -94 -89 -248 -89h-16c-220 0 -316 130 -316 272v21c0 134 94 265 307 265h18
c152 0 231 -55 254 -78v68z" />
    <glyph glyph-name="aogonek.alt" horiz-adv-x="826" 
d="M521 231v23l-180 -32c-47 -8 -66 -19 -66 -46v-1c0 -25 18 -55 85 -55c100 0 161 55 161 111zM526 72c-26 -26 -95 -82 -252 -82h-11c-180 0 -249 85 -249 173v12c0 90 58 143 218 156l259 23c23 3 30 11 30 26c0 20 -11 41 -117 41h-4c-115 0 -118 -38 -121 -55h-252v6
c0 72 22 180 345 180h56c336 0 359 -97 359 -180v-190c0 -117 6 -153 14 -177v-5h-263c-5 9 -12 33 -12 72zM493 -116v3c0 55 69 84 193 113h114c-35 -23 -60 -41 -60 -61c0 -14 11 -21 33 -21h27v-106h-160c-104 0 -147 25 -147 72z" />
    <glyph glyph-name="aogonek.alt2" horiz-adv-x="910" 
d="M562 -116v3c0 55 69 84 193 113h114c-35 -23 -60 -41 -60 -61c0 -14 11 -21 33 -21h27v-106h-160c-104 0 -147 25 -147 72zM598 269v5c0 59 -57 124 -158 124h-5c-106 0 -140 -65 -140 -124v-5c0 -56 41 -127 142 -127h5c102 0 156 68 156 127zM598 538h272v-538h-271v79
c-19 -24 -94 -89 -248 -89h-16c-220 0 -316 130 -316 272v21c0 134 94 265 307 265h18c152 0 231 -55 254 -78v68z" />
    <glyph glyph-name="aring.alt" horiz-adv-x="826" 
d="M203 696c0 64 46 118 198 118s195 -54 195 -118c0 -66 -43 -119 -195 -119c-156 0 -198 54 -198 119zM326 696c0 -27 23 -45 75 -45c51 0 73 18 73 45s-22 44 -73 44c-52 0 -75 -17 -75 -44zM521 231v23l-180 -32c-47 -8 -66 -19 -66 -46v-1c0 -25 18 -55 85 -55
c100 0 161 55 161 111zM526 72c-26 -26 -95 -82 -252 -82h-11c-180 0 -249 85 -249 173v12c0 90 58 143 218 156l259 23c23 3 30 11 30 26c0 20 -11 41 -117 41h-4c-115 0 -118 -38 -121 -55h-252v6c0 72 22 180 345 180h56c336 0 359 -97 359 -180v-190
c0 -117 6 -153 14 -177v-5h-263c-5 9 -12 33 -12 72z" />
    <glyph glyph-name="aring.alt2" horiz-adv-x="910" 
d="M235 695c0 64 46 118 198 118s195 -54 195 -118c0 -66 -43 -119 -195 -119c-156 0 -198 54 -198 119zM358 695c0 -27 23 -45 75 -45c51 0 73 18 73 45s-22 44 -73 44c-52 0 -75 -17 -75 -44zM598 269v5c0 59 -57 124 -158 124h-5c-106 0 -140 -65 -140 -124v-5
c0 -56 41 -127 142 -127h5c102 0 156 68 156 127zM598 538h272v-538h-271v79c-19 -24 -94 -89 -248 -89h-16c-220 0 -316 130 -316 272v21c0 134 94 265 307 265h18c152 0 231 -55 254 -78v68z" />
    <glyph glyph-name="aringacute.alt" horiz-adv-x="826" 
d="M284 839l89 161h268l-111 -161h-246zM205 696c0 64 46 118 198 118s195 -54 195 -118c0 -66 -43 -119 -195 -119c-156 0 -198 54 -198 119zM328 696c0 -27 23 -45 75 -45c51 0 73 18 73 45s-22 44 -73 44c-52 0 -75 -17 -75 -44zM521 231v23l-180 -32
c-47 -8 -66 -19 -66 -46v-1c0 -25 18 -55 85 -55c100 0 161 55 161 111zM526 72c-26 -26 -95 -82 -252 -82h-11c-180 0 -249 85 -249 173v12c0 90 58 143 218 156l259 23c23 3 30 11 30 26c0 20 -11 41 -117 41h-4c-115 0 -118 -38 -121 -55h-252v6c0 72 22 180 345 180h56
c336 0 359 -97 359 -180v-190c0 -117 6 -153 14 -177v-5h-263c-5 9 -12 33 -12 72z" />
    <glyph glyph-name="aringacute.alt2" horiz-adv-x="910" 
d="M314 837l89 161h268l-111 -161h-246zM235 695c0 64 46 118 198 118s195 -54 195 -118c0 -66 -43 -119 -195 -119c-156 0 -198 54 -198 119zM358 695c0 -27 23 -45 75 -45c51 0 73 18 73 45s-22 44 -73 44c-52 0 -75 -17 -75 -44zM598 269v5c0 59 -57 124 -158 124h-5
c-106 0 -140 -65 -140 -124v-5c0 -56 41 -127 142 -127h5c102 0 156 68 156 127zM598 538h272v-538h-271v79c-19 -24 -94 -89 -248 -89h-16c-220 0 -316 130 -316 272v21c0 134 94 265 307 265h18c152 0 231 -55 254 -78v68z" />
    <glyph glyph-name="atilde.alt" horiz-adv-x="826" 
d="M521 231v23l-180 -32c-47 -8 -66 -19 -66 -46v-1c0 -25 18 -55 85 -55c100 0 161 55 161 111zM526 72c-26 -26 -95 -82 -252 -82h-11c-180 0 -249 85 -249 173v12c0 90 58 143 218 156l259 23c23 3 30 11 30 26c0 20 -11 41 -117 41h-4c-115 0 -118 -38 -121 -55h-252v6
c0 72 22 180 345 180h56c336 0 359 -97 359 -180v-190c0 -117 6 -153 14 -177v-5h-263c-5 9 -12 33 -12 72zM529 587h-4c-40 0 -68 8 -132 29c-29 9 -43 14 -56 14s-16 -9 -16 -21v-27h-159v81c0 41 17 97 110 97h4c44 0 67 -7 133 -28c27 -9 40 -15 55 -15c11 0 15 9 15 20
v29h160v-76c0 -43 -13 -103 -110 -103z" />
    <glyph glyph-name="atilde.alt2" horiz-adv-x="910" 
d="M598 269v5c0 59 -57 124 -158 124h-5c-106 0 -140 -65 -140 -124v-5c0 -56 41 -127 142 -127h5c102 0 156 68 156 127zM598 538h272v-538h-271v79c-19 -24 -94 -89 -248 -89h-16c-220 0 -316 130 -316 272v21c0 134 94 265 307 265h18c152 0 231 -55 254 -78v68zM572 585
h-4c-40 0 -68 8 -132 29c-29 9 -43 14 -56 14s-16 -9 -16 -21v-27h-159v81c0 41 17 97 110 97h4c44 0 67 -7 133 -28c27 -9 40 -15 55 -15c11 0 15 9 15 20v29h160v-76c0 -43 -13 -103 -110 -103z" />
    <glyph glyph-name="racute.alt" horiz-adv-x="589" 
d="M188 583l89 161h268l-111 -161h-246zM312 208v-208h-272v538h270v-128c32 60 98 140 252 140v-246c-15 3 -45 11 -102 11c-107 0 -148 -42 -148 -107z" />
    <glyph glyph-name="rcaron.alt" horiz-adv-x="589" 
d="M169 583l-153 161h236l58 -65l58 65h234l-152 -161h-281zM312 208v-208h-272v538h270v-128c32 60 98 140 252 140v-246c-15 3 -45 11 -102 11c-107 0 -148 -42 -148 -107z" />
    <glyph glyph-name="rcommaaccent.alt" horiz-adv-x="589" 
d="M256 -296h-130c15 28 30 65 35 92h-113v159h258v-125c0 -41 -31 -96 -50 -126zM312 208v-208h-272v538h270v-128c32 60 98 140 252 140v-246c-15 3 -45 11 -102 11c-107 0 -148 -42 -148 -107z" />
    <glyph glyph-name="space_uni0326.alt" 
d="M274 834h130c-15 -28 -30 -65 -35 -92h113v-159h-258v125c0 40 29 97 50 126z" />
    <glyph glyph-name="ordfeminine.alt" horiz-adv-x="588" 
d="M261 471c64 0 101 35 101 72v11l-111 -20c-29 -6 -43 -17 -43 -32c0 -17 14 -31 53 -31zM372 436c-20 -20 -68 -57 -176 -57h-8c-133 0 -174 57 -174 115v7c0 61 49 94 166 105l161 14c16 3 21 6 21 17c0 13 -9 25 -72 25h-6c-68 0 -73 -22 -73 -33h-188v4
c0 45 9 118 244 118h39c232 0 251 -65 251 -118v-128c0 -74 4 -99 9 -115v-4h-186c-3 7 -8 22 -8 50z" />
    <glyph glyph-name="ordfeminine.alt2" horiz-adv-x="643" 
d="M407 564v4c0 39 -32 75 -99 75h-3c-68 0 -88 -37 -88 -76v-3c0 -37 25 -78 89 -78h4c67 0 97 39 97 78zM410 744h202v-359h-201v49c-16 -16 -65 -56 -166 -56h-13c-156 0 -218 88 -218 182v14c0 89 61 176 212 176h14c104 0 149 -33 170 -49v43z" />
    <glyph glyph-name="caron.alt" 
d="M243 575l14 169h205l-28 -169h-191z" />
    <glyph glyph-name="plus.uc" horiz-adv-x="626" 
d="M596 276h-192v-176h-183v176h-191v151h191v175h183v-175h192v-151z" />
    <glyph glyph-name="minus.uc" horiz-adv-x="585" 
d="M30 428h525v-153h-525v153z" />
    <glyph glyph-name="multiply.uc" horiz-adv-x="551" 
d="M431 104l-156 139l-154 -139l-109 118l143 129l-142 126l106 120l155 -139l154 139l110 -118l-144 -129l144 -129z" />
    <glyph glyph-name="divide.uc" horiz-adv-x="614" 
d="M407 635v-160h-200v160h200zM30 427h554v-151h-554v151zM407 226v-160h-200v160h200z" />
    <glyph glyph-name="equal.uc" horiz-adv-x="593" 
d="M34 521h525v-140h-525v140zM34 323h525v-139h-525v139z" />
    <glyph glyph-name="less.uc" horiz-adv-x="548" 
d="M516 106l-486 155v170l486 156v-162l-319 -80l319 -78v-161z" />
    <glyph glyph-name="greater.uc" horiz-adv-x="541" 
d="M32 106v161l315 78l-315 80v162l479 -156v-170z" />
    <glyph glyph-name="questiondown.uc" horiz-adv-x="907" 
d="M359 495h272v-67c0 -71 -18 -115 -156 -147l-99 -23c-74 -16 -88 -34 -88 -54c0 -24 9 -45 150 -45c168 0 170 55 173 86h275v-12c0 -92 -10 -243 -418 -243h-53c-350 0 -406 112 -406 212v7c0 90 47 162 189 197l101 24c53 13 60 28 60 60v5zM352 549v195h281v-195h-281
z" />
    <glyph glyph-name="exclamdown.uc" horiz-adv-x="381" 
d="M365 0h-349l91 504h166zM332 744v-195h-283v195h283z" />
    <glyph glyph-name="hyphen.uc" horiz-adv-x="396" 
d="M33 433h330v-186h-330v186z" />
    <glyph glyph-name="endash.uc" horiz-adv-x="920" 
d="M33 412h854v-142h-854v142z" />
    <glyph glyph-name="emdash.uc" horiz-adv-x="1373" 
d="M33 412h1307v-142h-1307v142z" />
    <glyph glyph-name="guilsinglleft.uc" horiz-adv-x="351" 
d="M334 135h-196l-127 173l128 170h198l-124 -170z" />
    <glyph glyph-name="guilsinglright.uc" horiz-adv-x="351" 
d="M214 135h-197l121 173l-124 170h198l128 -170z" />
    <glyph glyph-name="guillemotleft.uc" horiz-adv-x="570" 
d="M201 308l116 -173h-185l-121 173l121 170h187zM442 308l110 -173h-185l-116 173l119 170h186z" />
    <glyph glyph-name="guillemotright.uc" horiz-adv-x="570" 
d="M128 308l-114 170h186l119 -170l-116 -173h-185zM438 135h-185l116 173l-118 170h187l121 -170z" />
    <glyph glyph-name="parenleft.uc" horiz-adv-x="361" 
d="M27 371c0 199 104 347 205 445h136c-69 -111 -131 -267 -131 -445c0 -180 64 -337 131 -452h-136c-104 102 -205 249 -205 452z" />
    <glyph glyph-name="parenright.uc" horiz-adv-x="361" 
d="M334 371c0 -203 -101 -350 -205 -452h-135c67 115 130 272 130 452c0 178 -63 333 -130 445h135c101 -98 205 -246 205 -445z" />
    <glyph glyph-name="bracketleft.uc" horiz-adv-x="374" 
d="M48 -81v898h312v-119h-111v-661h111v-118h-312z" />
    <glyph glyph-name="bracketright.uc" horiz-adv-x="374" 
d="M14 -81v118h111v661h-111v119h312v-898h-312z" />
    <glyph glyph-name="braceleft.uc" horiz-adv-x="393" 
d="M380 -80h-159c-116 0 -176 30 -176 110c0 75 86 192 86 239c0 29 -15 43 -44 43h-67v117h67c31 0 44 15 44 36c0 50 -86 156 -86 237c0 73 53 115 176 115h159v-119h-84c-31 0 -46 -11 -46 -34c0 -39 66 -136 66 -189c0 -56 -28 -87 -105 -104c77 -15 105 -42 105 -89
c0 -61 -66 -165 -66 -205c0 -24 15 -40 52 -40h78v-117z" />
    <glyph glyph-name="braceright.uc" horiz-adv-x="393" 
d="M173 -80h-159v117h78c36 0 51 16 51 40c0 40 -65 144 -65 205c0 47 27 74 104 89c-77 17 -104 48 -104 104c0 53 65 150 65 189c0 23 -15 34 -46 34h-83v119h159c123 0 175 -42 175 -115c0 -81 -85 -187 -85 -237c0 -21 12 -36 43 -36h67v-117h-67c-31 0 -43 -15 -43 -43
c0 -47 85 -164 85 -239c0 -80 -60 -110 -175 -110z" />
    <glyph glyph-name="slash.uc" horiz-adv-x="491" 
d="M506 816l-325 -897h-201l323 897h203z" />
    <glyph glyph-name="backslash.uc" horiz-adv-x="491" 
d="M511 -81h-201l-324 897h202z" />
    <glyph glyph-name="bar.uc" horiz-adv-x="370" 
d="M279 816v-897h-187v897h187z" />
    <glyph glyph-name="at.uc" horiz-adv-x="1333" 
d="M675 -105c-552 0 -651 232 -651 448v12c0 223 110 438 640 438h14c613 0 633 -239 633 -386v-11c0 -139 -68 -306 -335 -306h-17c-137 0 -174 48 -190 77c-21 -21 -88 -77 -225 -77h-14c-212 0 -263 139 -247 256l7 54c11 86 69 194 241 194h15c147 0 213 -54 242 -80
l9 71h265l-46 -358c-3 -25 7 -37 32 -37c69 0 126 76 126 212v3c0 132 -7 286 -496 286h-14c-422 0 -495 -155 -495 -338v-11c0 -166 73 -344 506 -344c332 0 450 59 504 86l41 -103c-48 -24 -180 -86 -545 -86zM766 332l2 16c9 71 -31 106 -110 106
c-76 0 -100 -46 -105 -91l-3 -23c-8 -53 16 -108 94 -108c86 0 114 46 122 100z" />
    <glyph glyph-name="grave.uc" 
d="M453 944l79 -155h-257l-101 155h279z" />
    <glyph glyph-name="dieresis.uc" 
d="M622 944v-155h-245v155h245zM329 944v-155h-246v155h246z" />
    <glyph glyph-name="macron.uc" 
d="M118 797v132h469v-132h-469z" />
    <glyph glyph-name="acute.uc" 
d="M174 789l79 155h279l-101 -155h-257z" />
    <glyph glyph-name="circumflex.uc" 
d="M493 944l164 -155h-244l-62 58l-61 -58h-241l162 155h282z" />
    <glyph glyph-name="caron.uc" 
d="M214 789l-165 155h244l62 -58l61 58h241l-161 -155h-282z" />
    <glyph glyph-name="breve.uc" 
d="M374 782h-40c-195 0 -226 117 -226 170v2h183c0 -12 9 -49 64 -49c54 0 62 37 62 49h180v-2c0 -53 -45 -170 -223 -170z" />
    <glyph glyph-name="dotaccent.uc" 
d="M488 950v-161h-271v161h271z" />
    <glyph glyph-name="ring.uc" 
d="M155 899c0 65 45 119 200 119s197 -54 197 -119c0 -66 -42 -119 -197 -119c-157 0 -200 54 -200 119zM278 900c0 -28 22 -46 77 -46c53 0 75 18 75 46c0 27 -22 44 -75 44c-55 0 -77 -17 -77 -44z" />
    <glyph glyph-name="tilde.uc" 
d="M486 793h-5c-45 0 -70 7 -135 29c-31 11 -45 15 -60 15s-18 -10 -18 -21v-29h-161v85c0 41 18 98 113 98h4c46 0 73 -10 137 -29c27 -9 44 -15 59 -15c11 0 17 9 17 20v29h161v-79c0 -43 -13 -103 -112 -103z" />
    <glyph glyph-name="hungarumlaut.uc" 
d="M342 789l59 155h245l-65 -155h-239zM60 789l53 155h245l-59 -155h-239z" />
    <glyph glyph-name="emdash.altuc" horiz-adv-x="2680" 
d="M2647 411v-142h-2614v142h2614z" />
    <glyph glyph-name="f.short" horiz-adv-x="527" 
d="M507 744v-144h-81c-31 0 -37 -12 -37 -39v-23h118v-165h-118v-373h-270v373h-106v165h106v53c0 85 45 153 197 153h191z" />
    <glyph glyph-name="f_f.short" horiz-adv-x="969" 
d="M389 0h-270v373h-106v165h106v53c0 85 45 153 197 153h193v-144h-83c-31 0 -37 -12 -37 -39v-23h172v53c0 85 45 153 197 153h191v-144h-81c-31 0 -37 -12 -37 -39v-23h118v-165h-118v-373h-270v373h-172v-373z" />
    <glyph glyph-name="j.short" horiz-adv-x="352" 
d="M312 744v-161h-272v161h272zM-16 -27h24c24 0 32 6 32 37v528h272v-578c0 -110 -52 -148 -112 -148h-216v161z" />
    <glyph glyph-name="uni0237" unicode="&#x237;" horiz-adv-x="352" 
d="M-28 -27h36c24 0 32 6 32 37v528h272v-578c0 -110 -52 -148 -112 -148h-228v161z" />
    <glyph glyph-name="uni02BC" unicode="&#x2bc;" horiz-adv-x="322" 
d="M242 475h-140c17 31 36 75 40 104h-111v165h267v-134c0 -45 -32 -103 -56 -135z" />
    <glyph glyph-name="uni0402" unicode="&#x402;" horiz-adv-x="1144" 
d="M22 541v203h926v-203h-421v-102c40 7 103 14 182 14h25c263 0 394 -91 394 -272v-13c0 -201 -150 -292 -443 -292h-56v183h24c160 0 186 51 186 106v3c0 56 -42 95 -151 95h-18c-68 0 -110 -5 -143 -9v-254h-284v541h-221z" />
    <glyph glyph-name="uni0403" unicode="&#x403;" horiz-adv-x="854" 
d="M311 789l79 155h279l-101 -155h-257zM45 0v744h786v-198h-502v-546h-284z" />
    <glyph glyph-name="uni0404" unicode="&#x404;" horiz-adv-x="1120" 
d="M1103 307v-14c0 -97 -70 -307 -518 -307h-39c-457 0 -526 233 -526 374v29c0 142 62 369 526 369h39c453 0 518 -205 518 -301v-11h-295c-5 19 -29 119 -245 119c-145 0 -211 -42 -238 -99h390v-175h-390c26 -60 96 -111 239 -111c219 0 241 110 245 127h294z" />
    <glyph glyph-name="uni0405" unicode="&#x405;" horiz-adv-x="1030" 
d="M559 -14h-91c-411 0 -454 167 -454 264v10h312c3 -40 24 -105 186 -105h9c159 0 182 34 182 70v1c0 38 -19 62 -175 67l-138 4c-288 8 -365 109 -365 224v9c0 121 81 227 428 227h89c368 0 452 -117 452 -235v-8h-309c-3 27 -19 79 -180 79h-10c-149 0 -164 -26 -164 -55
v-1c0 -30 22 -54 162 -57l134 -3c283 -8 393 -74 393 -224v-14c0 -125 -70 -253 -461 -253z" />
    <glyph glyph-name="uni0406" unicode="&#x406;" horiz-adv-x="373" 
d="M331 744v-744h-283v744h283z" />
    <glyph glyph-name="uni0408" unicode="&#x408;" horiz-adv-x="942" 
d="M482 -11h-61c-353 0 -414 207 -414 335v6h279c3 -29 16 -128 164 -128h8c120 0 165 71 165 167v375h284v-381c0 -155 -57 -374 -425 -374z" />
    <glyph glyph-name="uni0408.alt" horiz-adv-x="528" 
d="M26 0v212h95c63 0 90 26 90 105v427h284v-489c0 -173 -82 -255 -253 -255h-216z" />
    <glyph glyph-name="uni0409" unicode="&#x409;" horiz-adv-x="1551" 
d="M121 0h-101v212h15c40 0 63 6 80 27c28 36 38 118 38 505h766v-219h244c300 0 376 -114 376 -253v-16c0 -139 -76 -256 -377 -256h-526v553h-225c0 -297 -23 -388 -60 -454c-38 -62 -94 -99 -230 -99zM919 185h208c92 0 118 37 118 77v3c0 42 -26 75 -118 75h-208v-155z
" />
    <glyph glyph-name="uni040A" unicode="&#x40a;" horiz-adv-x="1584" 
d="M671 0v297h-342v-297h-284v744h284v-249h342v249h283v-249h241c300 0 376 -105 376 -240v-8c0 -136 -76 -247 -377 -247h-523zM954 181h207c91 0 116 28 116 67v3c0 39 -25 66 -116 66h-207v-136z" />
    <glyph glyph-name="uni040B" unicode="&#x40b;" horiz-adv-x="1163" 
d="M948 541h-421v-108c31 7 103 20 183 20h21c276 0 399 -90 399 -302v-151h-284v123c0 104 -46 140 -159 140h-17c-65 0 -112 -7 -143 -14v-249h-284v541h-221v203h926v-203z" />
    <glyph glyph-name="uni040C" unicode="&#x40c;" horiz-adv-x="1040" 
d="M332 0h-284v744h284v-294l366 294h353l-433 -338l447 -406h-370l-363 333v-333zM378 789l79 155h279l-101 -155h-257z" />
    <glyph glyph-name="uni040E" unicode="&#x40e;" horiz-adv-x="993" 
d="M1014 744l-380 -575c-85 -128 -119 -169 -284 -169h-149v199h131c20 0 26 6 26 17v1c0 9 -4 20 -13 31l-366 496h329l219 -323l198 323h289zM555 782h-40c-195 0 -226 117 -226 170v2h183c0 -12 9 -49 64 -49c54 0 62 37 62 49h180v-2c0 -53 -45 -170 -223 -170z" />
    <glyph glyph-name="uni040F" unicode="&#x40f;" horiz-adv-x="1088" 
d="M45 0v744h284v-546h431v546h283v-744h-365v-130h-267v130h-366z" />
    <glyph glyph-name="uni0410" unicode="&#x410;" horiz-adv-x="1101" 
d="M663 306l-125 256l-122 -256h247zM812 0l-58 120h-425l-57 -120h-288l368 744h382l389 -744h-311z" />
    <glyph glyph-name="uni0411" unicode="&#x411;" horiz-adv-x="1043" 
d="M45 0v744h915v-175h-631v-89h326c301 0 376 -99 376 -230v-9c0 -133 -75 -241 -376 -241h-610zM329 180h295c89 0 113 31 113 66v3c0 36 -24 63 -113 63h-295v-132z" />
    <glyph glyph-name="uni0412" unicode="&#x412;" horiz-adv-x="1072" 
d="M48 0v744h700c217 0 275 -84 275 -169v-11c0 -93 -79 -135 -128 -146c66 -16 171 -60 171 -191v-12c0 -117 -71 -215 -314 -215h-704zM662 575h-330v-105h330c59 0 76 24 76 52v2c0 29 -17 51 -76 51zM680 303h-348v-128h348c74 0 88 35 88 64v3c0 32 -15 61 -88 61z" />
    <glyph glyph-name="uni0413" unicode="&#x413;" horiz-adv-x="854" 
d="M45 0v744h786v-198h-502v-546h-284z" />
    <glyph glyph-name="uni0414" unicode="&#x414;" horiz-adv-x="1145" 
d="M5 198h98c43 82 52 218 52 546h865v-546h120v-328h-267v130h-601v-130h-267v328zM366 198h370v348h-325c0 -149 -13 -285 -45 -348z" />
    <glyph glyph-name="uni0414.bgr" horiz-adv-x="1133" 
d="M272 0v-130h-267v328h103l260 546h377l280 -546h103v-328h-266v130h-590zM393 198h320l-165 334z" />
    <glyph glyph-name="uni0415" unicode="&#x415;" horiz-adv-x="907" 
d="M48 744h823v-182h-543v-93h532v-181h-532v-102h551v-186h-831v744z" />
    <glyph glyph-name="uni0416" unicode="&#x416;" horiz-adv-x="1611" 
d="M664 0v317l-310 -317h-368l411 404l-401 340h355l313 -277v277h284v-277l313 277h353l-399 -339l413 -405h-370l-310 317v-317h-284z" />
    <glyph glyph-name="uni0416.bgr" horiz-adv-x="1611" 
d="M664 0v317l-310 -317h-368l411 404l-401 340h355l313 -277v277h284v-277l313 277h353l-399 -339l413 -405h-370l-310 317v-317h-284z" />
    <glyph glyph-name="uni0417" unicode="&#x417;" horiz-adv-x="1071" 
d="M1053 237v-10c0 -127 -103 -238 -486 -238h-47c-324 0 -496 97 -496 280v15h294c3 -72 73 -111 233 -111c149 0 205 25 205 66v3c0 41 -53 58 -161 58h-219v170h219c100 0 146 13 146 48v3c0 36 -58 55 -195 55c-131 0 -223 -25 -226 -100h-294v16c0 141 149 262 489 262
h45c368 0 469 -90 469 -191v-9c0 -75 -63 -137 -183 -149c133 -13 207 -80 207 -168z" />
    <glyph glyph-name="uni0418" unicode="&#x418;" horiz-adv-x="1125" 
d="M796 0v467l-467 -467h-284v744h284v-468l467 468h284v-744h-284z" />
    <glyph glyph-name="uni0419" unicode="&#x419;" horiz-adv-x="1125" 
d="M796 0v467l-467 -467h-284v744h284v-468l467 468h284v-744h-284zM589 782h-40c-195 0 -226 117 -226 170v2h183c0 -12 9 -49 64 -49c54 0 62 37 62 49h180v-2c0 -53 -45 -170 -223 -170z" />
    <glyph glyph-name="uni041A" unicode="&#x41a;" horiz-adv-x="1040" 
d="M692 0l-363 333v-333h-284v744h284v-294l366 294h353l-433 -338l447 -406h-370z" />
    <glyph glyph-name="uni041A.bgr" horiz-adv-x="1040" 
d="M332 0h-284v744h284v-294l366 294h353l-433 -338l447 -406h-370l-363 333v-333z" />
    <glyph glyph-name="uni041B" unicode="&#x41b;" horiz-adv-x="1048" 
d="M719 0v553h-308c0 -296 -20 -390 -60 -454c-40 -67 -103 -99 -239 -99h-92v212h15c40 0 63 4 80 27c28 36 38 118 38 505h850v-744h-284z" />
    <glyph glyph-name="uni041B.bgr" horiz-adv-x="1067" 
d="M329 744h377l376 -744h-322l-250 519l-235 -519h-295z" />
    <glyph glyph-name="uni041C" unicode="&#x41c;" horiz-adv-x="1314" 
d="M48 0v744h390l228 -418l232 418h374v-744h-281v464l-261 -464h-145l-260 464v-464h-277z" />
    <glyph glyph-name="uni041D" unicode="&#x41d;" horiz-adv-x="1122" 
d="M45 0v744h284v-263h465v263h283v-744h-283v283h-465v-283h-284z" />
    <glyph glyph-name="uni041E" unicode="&#x41e;" horiz-adv-x="1170" 
d="M566 758h45c480 0 542 -229 542 -369v-30c0 -139 -61 -373 -542 -373h-45c-482 0 -543 234 -543 373v30c0 140 61 369 543 369zM859 368v14c0 79 -51 176 -271 176c-224 0 -271 -97 -271 -176v-12c0 -78 51 -183 271 -183s271 101 271 181z" />
    <glyph glyph-name="uni041F" unicode="&#x41f;" horiz-adv-x="1088" 
d="M45 0v744h998v-744h-283v546h-431v-546h-284z" />
    <glyph glyph-name="uni0420" unicode="&#x420;" horiz-adv-x="1031" 
d="M668 233h-336v-233h-284v744h620c275 0 353 -109 353 -246v-16c0 -135 -81 -249 -353 -249zM332 558v-139h302c65 0 94 27 94 68v3c0 43 -27 68 -94 68h-302z" />
    <glyph glyph-name="uni0421" unicode="&#x421;" horiz-adv-x="1120" 
d="M588 -14h-39c-457 0 -526 233 -526 374v29c0 142 62 369 526 369h39c452 0 518 -205 518 -301v-13h-295c-6 20 -29 114 -245 114c-205 0 -249 -91 -249 -174v-12c0 -80 50 -185 250 -185c219 0 241 105 245 122h294v-16c0 -97 -70 -307 -518 -307z" />
    <glyph glyph-name="uni0422" unicode="&#x422;" horiz-adv-x="971" 
d="M346 0v541h-321v203h926v-203h-321v-541h-284z" />
    <glyph glyph-name="uni0423" unicode="&#x423;" horiz-adv-x="993" 
d="M1014 744l-380 -575c-85 -128 -119 -169 -284 -169h-149v199h131c20 0 26 6 26 17v1c0 9 -4 20 -13 31l-366 496h329l219 -323l198 323h289z" />
    <glyph glyph-name="uni0424" unicode="&#x424;" horiz-adv-x="1448" 
d="M582 686v68h284v-68h187c235 0 383 -103 383 -291v-16c0 -188 -146 -294 -382 -294h-188v-95h-284v95h-188c-236 0 -382 106 -382 294v16c0 186 148 291 383 291h187zM864 498v-225h130c107 0 154 47 154 111v6c0 63 -47 108 -154 108h-130zM584 498h-130
c-107 0 -154 -45 -154 -108v-6c0 -64 47 -111 154 -111h130v225z" />
    <glyph glyph-name="uni0425" unicode="&#x425;" horiz-adv-x="1077" 
d="M331 0h-342l341 382l-330 362h363l189 -219l190 219h337l-322 -359l337 -385h-349l-208 233z" />
    <glyph glyph-name="uni0426" unicode="&#x426;" horiz-adv-x="1168" 
d="M45 0v744h284v-546h431v546h283v-546h120v-328h-266v130h-852z" />
    <glyph glyph-name="uni0427" unicode="&#x427;" horiz-adv-x="994" 
d="M666 0v258c-53 -11 -127 -20 -235 -20c-273 0 -416 70 -416 295v211h284v-175c0 -113 73 -133 201 -133c56 0 118 4 166 15v293h283v-744h-283z" />
    <glyph glyph-name="uni0428" unicode="&#x428;" horiz-adv-x="1536" 
d="M45 0v744h290v-546h288v546h290v-546h288v546h290v-744h-1446z" />
    <glyph glyph-name="uni0429" unicode="&#x429;" horiz-adv-x="1616" 
d="M45 0v744h290v-546h288v546h290v-546h288v546h290v-546h120v-328h-267v130h-1299z" />
    <glyph glyph-name="uni042A" unicode="&#x42a;" horiz-adv-x="1227" 
d="M525 525h313c300 0 376 -114 376 -253v-16c0 -139 -75 -256 -376 -256h-597v538h-229v206h513v-219zM525 185h277c92 0 118 37 118 77v3c0 42 -26 75 -118 75h-277v-155z" />
    <glyph glyph-name="uni042B" unicode="&#x42b;" horiz-adv-x="1401" 
d="M329 525h313c300 0 376 -114 376 -253v-16c0 -139 -75 -256 -376 -256h-597v744h284v-219zM329 185h277c92 0 118 37 118 77v3c0 42 -26 75 -118 75h-277v-155zM1358 744v-744h-283v744h283z" />
    <glyph glyph-name="uni042C" unicode="&#x42c;" horiz-adv-x="1031" 
d="M329 525h313c300 0 376 -114 376 -253v-16c0 -139 -75 -256 -376 -256h-597v744h284v-219zM329 185h277c92 0 118 37 118 77v3c0 42 -26 75 -118 75h-277v-155z" />
    <glyph glyph-name="uni042D" unicode="&#x42d;" horiz-adv-x="1121" 
d="M1101 389v-29c0 -141 -69 -374 -526 -374h-38c-450 0 -519 202 -519 296v15h293c5 -24 34 -117 249 -117c147 0 212 51 238 111h-383v175h383c-27 56 -90 99 -240 99c-208 0 -238 -81 -246 -109h-293v11c0 92 65 291 518 291h38c465 0 526 -227 526 -369z" />
    <glyph glyph-name="uni042E" unicode="&#x42e;" horiz-adv-x="1508" 
d="M1488 389v-30c0 -139 -67 -373 -516 -373h-38c-372 0 -482 162 -506 297h-99v-283h-284v744h284v-263h102c32 131 142 277 503 277h38c449 0 516 -229 516 -369zM1193 368v14c0 79 -52 176 -241 176c-192 0 -240 -97 -240 -176v-12c0 -78 52 -183 240 -183
c189 0 241 101 241 181z" />
    <glyph glyph-name="uni042F" unicode="&#x42f;" horiz-adv-x="1064" 
d="M735 239h-131l-254 -239h-350l283 255c-181 24 -256 115 -256 229v16c0 125 81 244 338 244h654v-744h-284v239zM735 417v141h-324c-65 0 -90 -32 -90 -69v-2c0 -39 26 -70 91 -70h323z" />
    <glyph glyph-name="uni042F.alt" horiz-adv-x="1064" 
d="M736 0v233h-265c-108 0 -147 -40 -147 -129v-65c0 -19 -3 -32 -9 -39h-290v5c7 13 14 32 14 84v65c0 96 46 158 135 177c-59 16 -156 71 -156 183v11c0 137 99 219 316 219h685v-744h-283zM736 411v147h-335c-65 0 -89 -32 -89 -72v-1c0 -43 25 -74 89 -74h335z" />
    <glyph glyph-name="uni0430" unicode="&#x430;" horiz-adv-x="840" 
d="M521 231v23l-180 -32c-47 -8 -66 -19 -66 -46v-1c0 -25 18 -55 85 -55c100 0 161 55 161 111zM526 72c-26 -26 -95 -82 -252 -82h-11c-180 0 -249 85 -249 173v12c0 90 58 143 218 156l259 23c23 3 30 11 30 26c0 20 -11 41 -117 41h-4c-115 0 -118 -38 -121 -55h-252v6
c0 72 22 180 345 180h56c336 0 359 -100 359 -173v-199c0 -15 4 -23 23 -23h29v-157h-226c-47 0 -79 25 -87 72z" />
    <glyph glyph-name="uni0430.alt" horiz-adv-x="820" 
d="M521 231v23l-180 -32c-47 -8 -66 -19 -66 -46v-1c0 -25 18 -55 85 -55c100 0 161 55 161 111zM526 72c-26 -26 -95 -82 -252 -82h-11c-180 0 -249 85 -249 173v12c0 90 58 143 218 156l259 23c23 3 30 11 30 26c0 20 -11 41 -117 41h-4c-115 0 -118 -38 -121 -55h-252v6
c0 72 22 180 345 180h56c336 0 359 -97 359 -180v-190c0 -117 6 -153 14 -177v-5h-263c-5 9 -12 33 -12 72z" />
    <glyph glyph-name="uni0430.alt2" horiz-adv-x="904" 
d="M598 269v5c0 59 -57 124 -158 124h-5c-106 0 -140 -65 -140 -124v-5c0 -56 41 -127 142 -127h5c102 0 156 68 156 127zM598 538h272v-538h-271v79c-19 -24 -94 -89 -248 -89h-16c-220 0 -316 130 -316 272v21c0 134 94 265 307 265h18c152 0 231 -55 254 -78v68z" />
    <glyph glyph-name="uni0431" unicode="&#x431;" horiz-adv-x="901" 
d="M886 264v-19c0 -168 -149 -260 -414 -260h-41c-251 0 -415 95 -415 327v47c0 235 116 374 429 374h106c53 0 58 20 58 24h260c0 -137 -66 -201 -270 -201h-123c-160 0 -221 -45 -221 -141c41 45 139 89 287 89h10c187 0 334 -71 334 -240zM452 138c112 0 158 55 158 111
v7c0 59 -46 106 -158 106s-160 -47 -160 -106v-8c0 -57 46 -110 160 -110z" />
    <glyph glyph-name="uni0431.alt" horiz-adv-x="901" 
d="M886 264v-19c0 -168 -149 -260 -414 -260h-41c-251 0 -415 94 -415 308v66c0 235 116 374 429 374h179c163 0 201 21 211 26v-175c-12 -6 -56 -28 -212 -28h-160c-148 0 -207 -52 -208 -139c44 44 142 87 287 87h10c187 0 334 -71 334 -240zM452 138
c112 0 158 55 158 111v7c0 59 -46 106 -158 106s-160 -47 -160 -106v-8c0 -57 46 -110 160 -110z" />
    <glyph glyph-name="uni0431.locl" horiz-adv-x="921" 
d="M905 255v-14c0 -120 -82 -256 -407 -256h-74c-312 0 -408 136 -408 256v13c0 72 41 150 146 185c-69 23 -103 73 -103 129c0 101 69 165 282 165h210c53 0 58 20 58 24h260c0 -137 -66 -201 -270 -201h-209c-64 0 -87 -4 -87 -27c0 -16 23 -27 108 -27h88
c344 0 406 -137 406 -247zM462 138c119 0 168 49 168 108v3c0 59 -48 106 -169 106c-116 0 -169 -46 -169 -106v-3c0 -60 53 -108 170 -108z" />
    <glyph glyph-name="uni0431.loclalt" horiz-adv-x="921" 
d="M905 255v-14c0 -120 -82 -256 -407 -256h-74c-312 0 -408 136 -408 256v13c0 72 41 150 146 185c-69 23 -103 73 -103 129c0 101 69 165 282 165h283c163 0 201 21 211 26v-175c-12 -6 -56 -28 -212 -28h-233c-64 0 -87 -4 -87 -27c0 -17 22 -27 102 -27h94
c344 0 406 -137 406 -247zM462 138c119 0 168 49 168 108v3c0 59 -48 106 -169 106c-116 0 -169 -46 -169 -106v-3c0 -60 53 -108 170 -108z" />
    <glyph glyph-name="uni0432" unicode="&#x432;" horiz-adv-x="855" 
d="M561 0h-524v538h487c217 0 283 -50 283 -124v-8c0 -60 -51 -95 -122 -110c77 -13 152 -55 152 -134v-8c0 -85 -72 -154 -276 -154zM305 341h151c60 0 79 12 79 36v2c0 24 -20 33 -80 33h-150v-71zM305 129h168c61 0 86 17 86 46v4c0 28 -24 42 -87 42h-167v-92z" />
    <glyph glyph-name="uni0432.bgr" horiz-adv-x="856" 
d="M16 278v157c0 163 71 319 379 319h44c320 0 363 -111 363 -193v-7c0 -76 -63 -141 -131 -154c92 -16 165 -72 165 -162v-12c0 -112 -87 -241 -399 -241h-36c-259 0 -385 112 -385 293zM289 482v-19h147c75 0 100 29 100 68v1c0 37 -22 69 -112 69h-12
c-81 0 -123 -43 -123 -119zM289 293v-35c0 -80 38 -120 141 -120c107 0 132 43 132 83v2c0 40 -26 70 -115 70h-158z" />
    <glyph glyph-name="uni0433" unicode="&#x433;" horiz-adv-x="614" 
d="M37 0v538h558v-164h-286v-374h-272z" />
    <glyph glyph-name="uni0433.bgr" horiz-adv-x="807" 
d="M797 183v-7c0 -70 -35 -191 -359 -191h-55c-316 0 -371 83 -371 176v7c0 108 64 160 292 176l114 8c79 5 96 19 96 40v2c0 21 -17 35 -101 35h-1c-98 0 -105 -32 -108 -50h-272v7c0 85 64 167 353 167h53c293 0 350 -78 350 -163v-6c0 -81 -57 -153 -276 -169l-113 -8
c-90 -5 -103 -20 -103 -46v-2c0 -21 15 -42 111 -42h2c101 0 111 46 111 66h277z" />
    <glyph glyph-name="uni0433.locl" horiz-adv-x="614" 
d="M37 0v538h558v-164h-286v-374h-272z" />
    <glyph glyph-name="uni0434" unicode="&#x434;" horiz-adv-x="978" 
d="M5 -127v291h79c29 58 43 146 46 374h735v-374h106v-291h-249v127h-468v-127h-249zM338 164h259v215h-228c-3 -93 -12 -162 -31 -215z" />
    <glyph glyph-name="uni0434.bgr" horiz-adv-x="937" 
d="M457 396h-6c-120 0 -156 -55 -156 -108v-5c0 -56 39 -114 156 -114h6c120 0 172 58 172 114v3c0 57 -52 110 -172 110zM507 -195h-77c-336 0 -377 136 -377 192v3h273c3 -13 16 -45 140 -45h3c132 0 163 69 163 137v11c-24 -24 -91 -80 -262 -80h-16
c-247 0 -334 125 -334 256v18c0 125 79 251 316 251h22c175 0 244 -55 273 -79v69h272v-448c0 -109 -59 -285 -396 -285z" />
    <glyph glyph-name="uni0434.locl" horiz-adv-x="985" 
d="M5 -127v291h79c29 58 43 146 46 374h735v-374h106v-291h-249v127h-468v-127h-249zM338 164h259v215h-228c-3 -93 -12 -162 -31 -215z" />
    <glyph glyph-name="uni0435" unicode="&#x435;" horiz-adv-x="882" 
d="M444 421c-103 0 -142 -33 -155 -81h310c-11 51 -52 81 -155 81zM869 196v-2c0 -75 -46 -209 -397 -209h-53c-331 0 -400 151 -400 277v20c0 124 64 271 397 271h55c351 0 400 -164 400 -293v-30h-585c8 -56 54 -99 163 -99h1c129 0 149 53 151 65h268z" />
    <glyph glyph-name="uni0436" unicode="&#x436;" horiz-adv-x="1214" 
d="M469 0v239l-183 -239h-303l231 293l-204 245h292l167 -206v206h272v-207l167 207h289l-201 -241l234 -297h-306l-183 240v-240h-272z" />
    <glyph glyph-name="uni0436.bgr" horiz-adv-x="1214" 
d="M469 0v239l-183 -239h-303l231 293l-204 245h292l167 -206v412h272v-413l167 207h289l-201 -241l234 -297h-306l-183 240v-240h-272z" />
    <glyph glyph-name="uni0437" unicode="&#x437;" horiz-adv-x="843" 
d="M830 160v-8c0 -90 -104 -167 -383 -167h-30c-281 0 -404 103 -404 226v4h270c0 -52 38 -92 148 -92c80 0 120 16 120 49v3c0 35 -40 44 -96 44h-139v116h144c45 0 68 13 68 40v3c0 29 -40 43 -109 43c-103 0 -133 -35 -136 -72h-270v6c0 104 109 198 401 198h33
c232 0 354 -47 354 -135v-8c0 -60 -54 -104 -147 -115c100 -11 176 -59 176 -135z" />
    <glyph glyph-name="uni0437.bgr" horiz-adv-x="850" 
d="M828 46v-9c0 -124 -96 -232 -380 -232h-29c-276 0 -403 110 -403 288v5h270c0 -88 37 -147 144 -147c91 0 119 37 119 89v3c0 47 -36 78 -120 78h-110v142h104c85 0 105 37 105 72v4c0 41 -39 68 -108 68c-104 0 -131 -56 -134 -97v-3h-270v10c0 124 132 236 394 236h26
c244 0 364 -79 364 -187v-8c0 -72 -50 -131 -143 -151c108 -23 171 -72 171 -161z" />
    <glyph glyph-name="uni0438" unicode="&#x438;" horiz-adv-x="913" 
d="M37 0v538h272v-316l292 316h275v-538h-271v316l-293 -316h-275z" />
    <glyph glyph-name="uni0438.bgr" horiz-adv-x="881" 
d="M847 538v-538h-270v96c-26 -26 -108 -108 -273 -108h-7c-200 0 -258 123 -258 210v340h273v-257c0 -69 33 -124 124 -124s140 58 140 131v250h271z" />
    <glyph glyph-name="uni0439" unicode="&#x439;" horiz-adv-x="913" 
d="M37 0v538h272v-316l292 316h275v-538h-271v316l-293 -316h-275zM702 744v-2c0 -54 -47 -165 -221 -165h-40c-191 0 -223 111 -223 165v2h181c0 -13 8 -48 63 -48c52 0 62 35 62 48h178z" />
    <glyph glyph-name="uni043A" unicode="&#x43a;" horiz-adv-x="801" 
d="M509 0l-200 242v-242h-272v538h272v-210l184 210h293l-219 -238l251 -300h-309z" />
    <glyph glyph-name="uni043A.bgr" horiz-adv-x="801" 
d="M312 0h-272v744h272v-416l184 210h293l-219 -238l251 -300h-309l-200 242v-242z" />
    <glyph glyph-name="uni043B" unicode="&#x43b;" horiz-adv-x="841" 
d="M526 0v374h-186c-3 -156 -8 -224 -33 -276c-29 -64 -88 -98 -197 -98h-102v171h12c31 0 51 13 60 48c10 36 17 79 17 319h700v-538h-271z" />
    <glyph glyph-name="uni043B.bgr" horiz-adv-x="831" 
d="M587 538l255 -538h-291l-148 350l-141 -350h-279l245 538h359z" />
    <glyph glyph-name="uni043C" unicode="&#x43c;" horiz-adv-x="1103" 
d="M478 0l-184 294v-294h-257v538h342l176 -282l181 282h330v-538h-271v292l-184 -292h-133z" />
    <glyph glyph-name="uni043D" unicode="&#x43d;" horiz-adv-x="883" 
d="M309 0h-272v538h272v-188h265v188h272v-538h-272v185h-265v-185z" />
    <glyph glyph-name="uni043D.bgr" horiz-adv-x="883" 
d="M309 0h-272v538h272v-188h265v188h272v-538h-272v185h-265v-185z" />
    <glyph glyph-name="uni043E" unicode="&#x43e;" horiz-adv-x="921" 
d="M501 -15h-74c-344 0 -408 163 -408 279v16c0 114 62 273 407 273h76c357 0 406 -160 406 -272v-18c0 -115 -45 -278 -407 -278zM465 401h-1c-134 0 -169 -67 -169 -126v-4c0 -59 34 -133 169 -133h1c133 0 168 77 168 133v4c0 59 -35 126 -168 126z" />
    <glyph glyph-name="uni043F" unicode="&#x43f;" horiz-adv-x="866" 
d="M37 0v538h792v-538h-271v374h-249v-374h-272z" />
    <glyph glyph-name="uni043F.bgr" horiz-adv-x="891" 
d="M40 0v538h270v-95c27 25 110 107 278 107h6c201 0 264 -119 264 -204v-346h-273v257c0 72 -37 124 -130 124c-92 0 -143 -55 -143 -131v-250h-272z" />
    <glyph glyph-name="uni043F.locl" horiz-adv-x="866" 
d="M37 0v538h792v-538h-271v374h-249v-374h-272z" />
    <glyph glyph-name="uni0440" unicode="&#x440;" horiz-adv-x="927" 
d="M312 272v-4c0 -60 50 -128 167 -128h5c121 0 154 70 154 128v4c0 62 -33 127 -154 127h-5c-119 0 -167 -64 -167 -127zM40 538h272v-75c21 19 104 85 262 85h21c247 0 319 -128 319 -263v-21c0 -133 -77 -274 -327 -274h-19c-153 0 -237 59 -256 76v-254h-272v726z" />
    <glyph glyph-name="uni0441" unicode="&#x441;" horiz-adv-x="881" 
d="M475 -15h-60c-345 0 -396 166 -396 278v18c0 111 50 272 395 272h62c359 0 396 -166 396 -240v-3h-278c-3 20 -21 93 -149 93h-4c-116 0 -146 -64 -146 -125v-5c0 -65 32 -136 146 -136h4c127 0 146 76 149 97h278v-2c0 -73 -29 -247 -397 -247z" />
    <glyph glyph-name="uni0442" unicode="&#x442;" horiz-adv-x="751" 
d="M240 0v374h-220v164h711v-164h-220v-374h-271z" />
    <glyph glyph-name="uni0442.bgr" horiz-adv-x="1376" 
d="M312 0h-272v538h270v-96c24 24 104 108 267 108h6c125 0 190 -53 222 -111c43 40 132 111 282 111h7c192 0 249 -120 249 -204v-346h-272v258c0 69 -29 123 -111 123c-85 0 -132 -57 -132 -130v-251h-273v258c0 69 -29 123 -111 123c-85 0 -132 -57 -132 -130v-251z" />
    <glyph glyph-name="uni0442.locl" horiz-adv-x="751" 
d="M240 0v374h-220v164h711v-164h-220v-374h-271z" />
    <glyph glyph-name="uni0443" unicode="&#x443;" horiz-adv-x="821" 
d="M119 -188v166h122c20 0 25 8 25 17v1c0 11 -8 26 -23 54l-254 488h290l150 -346l139 346h270l-259 -561c-52 -113 -110 -165 -207 -165h-253z" />
    <glyph glyph-name="uni0444" unicode="&#x444;" horiz-adv-x="1201" 
d="M770 -15h-34v-173h-271v173h-37c-337 0 -412 165 -412 278v12c0 124 83 278 412 278h37v191h271v-191h34c328 0 415 -154 415 -277v-14c0 -113 -85 -277 -415 -277zM446 138h19v264h-19c-107 0 -154 -63 -154 -132v-3c0 -72 47 -129 154 -129zM755 402h-19v-264h19
c119 0 154 63 154 127v4c0 74 -39 133 -154 133z" />
    <glyph glyph-name="uni0445" unicode="&#x445;" horiz-adv-x="842" 
d="M287 0h-297l248 277l-243 261h309l123 -141l120 141h299l-237 -257l250 -281h-303l-135 158z" />
    <glyph glyph-name="uni0446" unicode="&#x446;" horiz-adv-x="923" 
d="M916 164v-291h-250v127h-629v538h272v-374h229v374h271v-374h107z" />
    <glyph glyph-name="uni0446.bgr" horiz-adv-x="957" 
d="M847 164h104v-291h-250v127h-124v96c-26 -26 -108 -108 -273 -108h-7c-200 0 -258 123 -258 210v340h273v-257c0 -69 33 -124 124 -124s140 58 140 131v250h271v-374z" />
    <glyph glyph-name="uni0447" unicode="&#x447;" horiz-adv-x="829" 
d="M520 538h272v-538h-272v176c-20 -4 -84 -14 -165 -14c-214 0 -340 41 -340 227v149h272v-123c0 -72 40 -88 134 -88c39 0 80 4 99 9v202z" />
    <glyph glyph-name="uni0447.bgr" horiz-adv-x="829" 
d="M520 538h272v-538h-272v176c-20 -4 -84 -14 -165 -14c-214 0 -340 41 -340 227v149h272v-123c0 -72 40 -88 134 -88c39 0 80 4 99 9v202z" />
    <glyph glyph-name="uni0448" unicode="&#x448;" horiz-adv-x="1214" 
d="M37 0v538h272v-374h162v374h272v-374h162v374h271v-538h-1139z" />
    <glyph glyph-name="uni0448.bgr" horiz-adv-x="1376" 
d="M1064 538h272v-538h-270v96c-24 -24 -104 -108 -267 -108h-6c-125 0 -190 53 -222 111c-43 -40 -132 -111 -282 -111h-7c-192 0 -249 120 -249 204v346h272v-258c0 -69 29 -123 111 -123c85 0 132 57 132 130v251h273v-258c0 -69 29 -123 111 -123c85 0 132 57 132 130
v251z" />
    <glyph glyph-name="uni0449" unicode="&#x449;" horiz-adv-x="1290" 
d="M37 0v538h272v-374h162v374h272v-374h162v374h271v-374h107v-291h-250v127h-996z" />
    <glyph glyph-name="uni0449.bgr" horiz-adv-x="1452" 
d="M1064 538h272v-374h110v-291h-250v127h-130v96c-24 -24 -104 -108 -267 -108h-6c-125 0 -190 53 -222 111c-43 -40 -132 -111 -282 -111h-7c-192 0 -249 120 -249 204v346h272v-258c0 -69 29 -123 111 -123c85 0 132 57 132 130v251h273v-258c0 -69 29 -123 111 -123
c85 0 132 57 132 130v251z" />
    <glyph glyph-name="uni044A" unicode="&#x44a;" horiz-adv-x="985" 
d="M13 379v159h448v-134h229c197 0 277 -85 277 -190v-13c0 -105 -80 -201 -277 -201h-501v379h-176zM461 144h161c51 0 70 29 70 56v4c0 31 -19 56 -70 56h-161v-116z" />
    <glyph glyph-name="uni044A.bgr" horiz-adv-x="1010" 
d="M642 -15h-97c-280 0 -358 101 -358 243v151h-175v159h447v-134h230c222 0 303 -88 303 -194v-13c0 -107 -82 -212 -350 -212zM459 260v-32c0 -64 42 -97 137 -97c101 0 120 36 120 66v4c0 29 -19 59 -107 59h-150z" />
    <glyph glyph-name="uni044B" unicode="&#x44b;" horiz-adv-x="1167" 
d="M37 0v538h272v-134h229c197 0 277 -85 277 -190v-13c0 -105 -80 -201 -277 -201h-501zM309 144h161c51 0 70 29 70 56v4c0 31 -19 56 -70 56h-161v-116zM1133 538v-538h-272v538h272z" />
    <glyph glyph-name="uni044C" unicode="&#x44c;" horiz-adv-x="833" 
d="M37 0v538h272v-134h229c197 0 277 -85 277 -190v-13c0 -105 -80 -201 -277 -201h-501zM309 144h161c51 0 70 29 70 56v4c0 31 -19 56 -70 56h-161v-116z" />
    <glyph glyph-name="uni044C.bgr" horiz-adv-x="860" 
d="M492 -15h-97c-280 0 -358 101 -358 243v310h272v-134h230c222 0 303 -88 303 -194v-13c0 -107 -82 -212 -350 -212zM309 260v-32c0 -64 42 -97 137 -97c101 0 120 36 120 66v4c0 29 -19 59 -107 59h-150z" />
    <glyph glyph-name="uni044D" unicode="&#x44d;" horiz-adv-x="881" 
d="M865 281v-18c0 -112 -55 -278 -396 -278h-60c-352 0 -396 164 -396 240v2h277c3 -35 30 -104 151 -104h4c84 0 123 34 139 85h-236v126h237c-15 48 -53 83 -140 83h-4c-124 0 -146 -66 -151 -100h-277v3c0 72 46 233 395 233h62c335 0 395 -161 395 -272z" />
    <glyph glyph-name="uni044E" unicode="&#x44e;" horiz-adv-x="1236" 
d="M1220 281v-18c0 -114 -48 -278 -397 -278h-54c-263 0 -359 102 -388 202h-72v-187h-272v538h272v-190h70c27 100 120 205 389 205h56c344 0 396 -160 396 -272zM797 401h-1c-121 0 -148 -67 -148 -126v-4c0 -59 27 -133 148 -133h1c119 0 148 74 148 133v4
c0 59 -29 126 -148 126z" />
    <glyph glyph-name="uni044E.bgr" horiz-adv-x="1236" 
d="M1220 281v-18c0 -114 -48 -278 -397 -278h-54c-263 0 -359 102 -388 202h-72v-187h-272v744h272v-396h70c27 100 120 205 389 205h56c344 0 396 -160 396 -272zM797 401h-1c-121 0 -148 -67 -148 -126v-4c0 -59 27 -133 148 -133h1c119 0 148 77 148 133v4
c0 59 -29 126 -148 126z" />
    <glyph glyph-name="uni044F" unicode="&#x44f;" horiz-adv-x="860" 
d="M552 147h-88l-151 -147h-300l177 169c-107 24 -157 87 -157 168v10c0 113 86 191 280 191h510v-538h-271v147zM552 394h-169c-64 0 -77 -29 -77 -52v-3c0 -27 14 -51 77 -51h169v106z" />
    <glyph glyph-name="uni044F.alt" horiz-adv-x="849" 
d="M312 86v-25c0 -40 -6 -53 -11 -61h-271v5c5 11 11 24 11 55v61c0 80 47 109 100 120c-76 21 -119 63 -119 126v10c0 108 78 161 268 161h522v-538h-272v154h-168c-59 0 -60 -14 -60 -68zM540 394h-169c-62 0 -76 -29 -76 -52v-3c0 -27 14 -51 77 -51h168v106z" />
    <glyph glyph-name="uni0452" unicode="&#x452;" horiz-adv-x="891" 
d="M855 346v-390c0 -107 -52 -144 -112 -144h-228v161h36c24 0 31 3 31 40v244c0 72 -37 124 -130 124c-92 0 -143 -55 -143 -131v-250h-272v585h-69v110h69v49h272v-49h250v-110h-250v-141c23 23 109 106 276 106h6c201 0 264 -119 264 -204z" />
    <glyph glyph-name="uni0453" unicode="&#x453;" horiz-adv-x="614" 
d="M37 0v538h558v-164h-286v-374h-272zM188 583l89 161h268l-111 -161h-246z" />
    <glyph glyph-name="uni0454" unicode="&#x454;" horiz-adv-x="885" 
d="M868 227v-2c0 -76 -40 -240 -396 -240h-60c-345 0 -396 166 -396 278v18c0 111 50 272 395 272h62c352 0 395 -161 395 -233v-3h-277c-5 31 -24 100 -149 100h-4c-87 0 -126 -36 -141 -83h240v-126h-238c16 -49 55 -85 139 -85h4c122 0 146 70 149 104h277z" />
    <glyph glyph-name="uni0455" unicode="&#x455;" horiz-adv-x="808" 
d="M427 -15h-55c-324 0 -359 121 -359 191v7h277c0 -20 10 -66 111 -66h2c96 0 111 22 111 45v2c0 26 -14 41 -103 44l-114 3c-227 8 -278 89 -278 169v6c0 88 56 167 353 167h53c289 0 353 -82 353 -167v-7h-272c-3 18 -10 50 -108 50h-1c-88 0 -105 -13 -105 -37v-1
c0 -21 17 -37 100 -40l113 -3c243 -8 293 -64 293 -171v-7c0 -99 -55 -185 -371 -185z" />
    <glyph glyph-name="uni0456" unicode="&#x456;" horiz-adv-x="346" 
d="M312 744v-161h-272v161h272zM312 538v-538h-272v538h272z" />
    <glyph glyph-name="uni0457" unicode="&#x457;" horiz-adv-x="346" 
d="M157 744v-161h-151v161h151zM337 744v-161h-151v161h151zM312 538v-538h-272v538h272z" />
    <glyph glyph-name="uni0458" unicode="&#x458;" horiz-adv-x="346" 
d="M312 744v-161h-272v161h272zM-28 -27h36c24 0 32 6 32 37v528h272v-578c0 -110 -52 -148 -112 -148h-228v161z" />
    <glyph glyph-name="uni0458.short" horiz-adv-x="346" 
d="M312 744v-161h-272v161h272zM-16 -27h24c24 0 32 6 32 37v528h272v-578c0 -110 -52 -148 -112 -148h-216v161z" />
    <glyph glyph-name="uni0459" unicode="&#x459;" horiz-adv-x="1299" 
d="M97 538h690v-134h216c198 0 278 -85 278 -190v-13c0 -105 -80 -201 -278 -201h-487v374h-176c-3 -157 -12 -223 -28 -266c-32 -76 -91 -108 -203 -108h-101v171h12c31 0 51 13 60 48c11 37 17 79 17 319zM787 144h148c51 0 70 28 70 56v4c0 31 -19 56 -70 56h-148v-116z
" />
    <glyph glyph-name="uni045A" unicode="&#x45a;" horiz-adv-x="1304" 
d="M309 0h-272v538h272v-168h225v168h272v-168h203c197 0 277 -69 277 -172v-14c0 -103 -80 -184 -277 -184h-475v219h-225v-219zM806 233v-96h136c48 0 68 22 68 47v4c0 27 -20 45 -68 45h-136z" />
    <glyph glyph-name="uni045C" unicode="&#x45c;" horiz-adv-x="801" 
d="M272 583l89 161h268l-111 -161h-246zM509 0l-200 242v-242h-272v538h272v-210l184 210h293l-219 -238l251 -300h-309z" />
    <glyph glyph-name="uni045E" unicode="&#x45e;" horiz-adv-x="821" 
d="M119 -188v166h122c20 0 25 8 25 17v1c0 11 -8 26 -23 54l-254 488h290l150 -346l139 346h270l-259 -561c-52 -113 -110 -165 -207 -165h-253zM668 744v-2c0 -54 -47 -165 -221 -165h-40c-191 0 -223 111 -223 165v2h181c0 -13 8 -48 63 -48c52 0 62 35 62 48h178z" />
    <glyph glyph-name="uni045F" unicode="&#x45f;" horiz-adv-x="866" 
d="M829 0h-271v-127h-249v127h-272v538h272v-374h249v374h271v-538z" />
    <glyph glyph-name="uni0490" unicode="&#x490;" horiz-adv-x="856" 
d="M46 0v744h520v130h266v-328h-502v-546h-284z" />
    <glyph glyph-name="uni0491" unicode="&#x491;" horiz-adv-x="614" 
d="M37 0v538h308v127h250v-291h-286v-374h-272z" />
    <glyph glyph-name="uni0492" unicode="&#x492;" horiz-adv-x="867" 
d="M58 447v297h786v-198h-502v-99h191v-158h-191v-289h-284v289h-59v158h59z" />
    <glyph glyph-name="uni0493" unicode="&#x493;" horiz-adv-x="654" 
d="M77 303v235h558v-164h-286v-71h146v-113h-146v-190h-272v190h-68v113h68z" />
    <glyph glyph-name="uni0496" unicode="&#x496;" horiz-adv-x="1643" 
d="M1628 -130h-267v130h-103l-310 317v-317h-284v317l-310 -317h-368l411 404l-401 340h355l313 -277v277h284v-277l313 277h353l-399 -339l211 -207h202v-328z" />
    <glyph glyph-name="uni0497" unicode="&#x497;" horiz-adv-x="1235" 
d="M469 0v239l-183 -239h-303l231 293l-204 245h292l167 -206v206h272v-207l167 207h289l-201 -241l105 -133h129v-291h-244v127h-62l-183 240v-240h-272z" />
    <glyph glyph-name="uni049A" unicode="&#x49a;" horiz-adv-x="1077" 
d="M1062 -130h-267v130h-103l-363 333v-333h-284v744h284v-294l366 294h353l-433 -338l229 -208h218v-328z" />
    <glyph glyph-name="uni049B" unicode="&#x49b;" horiz-adv-x="824" 
d="M509 0l-200 242v-242h-272v538h272v-210l184 210h293l-219 -238l114 -136h138v-291h-245v127h-65z" />
    <glyph glyph-name="uni04A2" unicode="&#x4a2;" horiz-adv-x="1204" 
d="M1197 -130h-267v130h-136v283h-465v-283h-284v744h284v-263h465v263h283v-546h120v-328z" />
    <glyph glyph-name="uni04A3" unicode="&#x4a3;" horiz-adv-x="959" 
d="M309 0h-272v538h272v-188h265v188h272v-374h106v-291h-250v127h-128v185h-265v-185z" />
    <glyph glyph-name="uni04AE" unicode="&#x4ae;" horiz-adv-x="1043" 
d="M387 0v280l-407 464h340l217 -257l221 257h311l-398 -466v-278h-284z" />
    <glyph glyph-name="uni04AF" unicode="&#x4af;" horiz-adv-x="831" 
d="M556 0v-188h-271v188l-299 538h291l147 -302l142 302h279z" />
    <glyph glyph-name="uni04B0" unicode="&#x4b0;" horiz-adv-x="1043" 
d="M181 280h206l-407 464h340l217 -257l221 257h311l-397 -464h198v-159h-199v-121h-284v121h-206v159z" />
    <glyph glyph-name="uni04B1" unicode="&#x4b1;" horiz-adv-x="831" 
d="M556 -110v-78h-271v78h-174v110h174l-299 538h291l147 -302l142 302h279l-289 -538h174v-110h-174z" />
    <glyph glyph-name="uni04B2" unicode="&#x4b2;" horiz-adv-x="1107" 
d="M1091 -130h-266v130h-80l-208 233l-206 -233h-342l341 382l-330 362h363l189 -219l190 219h337l-322 -359l163 -187h171v-195l3 -3h-3v-130z" />
    <glyph glyph-name="uni04B3" unicode="&#x4b3;" horiz-adv-x="861" 
d="M287 0h-297l248 277l-243 261h309l123 -141l120 141h299l-237 -257l104 -117h143v-161l3 -3h-3v-127h-244v127h-56l-135 158z" />
    <glyph glyph-name="uni04BA" unicode="&#x4ba;" horiz-adv-x="994" 
d="M328 744v-258c53 11 127 20 235 20c273 0 416 -70 416 -295v-211h-284v175c0 113 -73 133 -201 133c-56 0 -118 -4 -166 -15v-293h-283v744h283z" />
    <glyph glyph-name="uni04BB" unicode="&#x4bb;" horiz-adv-x="891" 
d="M40 0v744h272v-300c23 23 109 106 276 106h6c201 0 264 -119 264 -204v-346h-273v257c0 72 -37 124 -130 124c-92 0 -143 -55 -143 -131v-250h-272z" />
    <glyph glyph-name="uni04C0" unicode="&#x4c0;" horiz-adv-x="373" 
d="M331 744v-744h-283v744h283z" />
    <glyph glyph-name="uni04CF" unicode="&#x4cf;" horiz-adv-x="346" 
d="M312 744v-744h-272v744h272z" />
    <glyph glyph-name="uni04D8" unicode="&#x4d8;" horiz-adv-x="1130" 
d="M1110 389v-29c0 -146 -78 -374 -522 -374h-39c-446 0 -529 234 -529 398v60h789c-21 72 -81 122 -242 122c-208 0 -243 -55 -248 -82h-295v8c0 93 65 266 525 266h38c446 0 523 -215 523 -369zM803 288h-470c24 -69 89 -111 231 -111c144 0 212 39 239 111z" />
    <glyph glyph-name="uni04D9" unicode="&#x4d9;" horiz-adv-x="882" 
d="M439 117c103 0 142 33 155 81h-310c11 -51 52 -81 155 -81zM14 342v2c0 75 46 209 397 209h53c331 0 400 -151 400 -277v-20c0 -124 -64 -271 -397 -271h-55c-351 0 -400 164 -400 293v30h585c-8 56 -54 99 -163 99h-1c-129 0 -149 -53 -151 -65h-268z" />
    <glyph glyph-name="uni04E8" unicode="&#x4e8;" horiz-adv-x="1170" 
d="M563 758h45c480 0 542 -229 542 -369v-30c0 -139 -61 -373 -542 -373h-45c-482 0 -543 234 -543 373v30c0 140 61 369 543 369zM585 562c-170 0 -240 -49 -264 -108h527c-27 58 -95 108 -263 108zM585 183c164 0 235 49 262 110h-523c27 -59 99 -110 261 -110z" />
    <glyph glyph-name="uni04E9" unicode="&#x4e9;" horiz-adv-x="921" 
d="M501 -15h-74c-344 0 -408 163 -408 279v16c0 114 62 273 407 273h76c357 0 406 -160 406 -272v-18c0 -115 -45 -278 -407 -278zM329 182c25 -25 67 -44 135 -44h1c67 0 109 20 134 45c9 10 17 21 22 32h-315c5 -12 13 -23 23 -33zM465 401h-1c-67 0 -110 -17 -135 -41
c-10 -9 -18 -19 -23 -30h315c-5 11 -13 21 -22 30c-25 24 -67 41 -134 41z" />
    <glyph glyph-name="uni2009" unicode="&#x2009;" horiz-adv-x="21" 
 />
    <glyph glyph-name="uni20B4" unicode="&#x20b4;" horiz-adv-x="1128" 
d="M1121 498v-88h-1114v88h722c11 9 17 22 17 38v2c0 29 -28 59 -164 59h-10c-161 0 -177 -33 -180 -60h-309v8c0 118 84 212 452 212h89c332 0 428 -96 428 -197v-9c0 -18 -4 -36 -13 -53h82zM1063 237v-10c0 -97 -43 -241 -454 -241h-91c-384 0 -461 125 -461 217v13
c0 20 4 39 12 57h-62v88h1114v-88h-732c-12 -15 -15 -30 -15 -46v-2c0 -36 36 -73 182 -73h9c168 0 183 45 186 85h312z" />
    <glyph glyph-name="uni20B8" unicode="&#x20b8;" horiz-adv-x="971" 
d="M22 656v88h926v-88h-926zM22 405v203h926v-203h-321v-405h-284v405h-321z" />
    <glyph glyph-name="uni20BD" unicode="&#x20bd;" horiz-adv-x="1092" 
d="M1079 498v-16c0 -135 -81 -249 -353 -249h-337v-49h390v-88h-390v-96h-283v96h-100v88h100v49h-100v87h100v424h620c275 0 353 -109 353 -246zM389 558v-163h302c67 0 94 31 94 80v3c0 49 -26 80 -94 80h-302z" />
    <glyph glyph-name="uni2116" unicode="&#x2116;" horiz-adv-x="1768" 
d="M1444 321h-22c-256 0 -297 133 -297 210v16c0 77 42 205 297 205h22c255 0 296 -128 296 -205v-16c0 -77 -41 -210 -296 -210zM1432 453c85 0 115 42 115 82v6c0 43 -27 81 -115 81c-86 0 -114 -38 -114 -81v-5c0 -41 30 -83 114 -83zM1135 158v131h602v-131h-602z
M48 744h318l432 -423v423h282v-744h-284l-466 451v-451h-282v744z" />
    <glyph glyph-name="f_b" horiz-adv-x="1449" 
d="M560 744h272v-279c22 16 103 83 261 83h21c244 0 320 -127 320 -266v-21c0 -138 -85 -271 -330 -271h-20c-150 0 -233 63 -257 81c-7 -19 -11 -48 -14 -71h-253v744zM832 272v-4c0 -61 54 -128 163 -128h6c121 0 157 68 157 128v4c0 64 -36 128 -157 128h-6
c-112 0 -163 -64 -163 -128zM507 744v-144h-81c-31 0 -37 -12 -37 -39v-23h118v-165h-118v-373h-270v373h-106v165h106v53c0 85 45 153 197 153h191z" />
    <glyph glyph-name="f_h" horiz-adv-x="1411" 
d="M560 0v744h272v-300c23 23 109 106 276 106h6c201 0 264 -119 264 -204v-346h-273v257c0 72 -37 124 -130 124c-92 0 -143 -55 -143 -131v-250h-272zM507 744v-144h-81c-31 0 -37 -12 -37 -39v-23h118v-165h-118v-373h-270v373h-106v165h106v53c0 85 45 153 197 153h191z
" />
    <glyph glyph-name="f_j" horiz-adv-x="866" 
d="M832 744v-161h-272v161h272zM492 -27h36c24 0 32 6 32 37v528h272v-578c0 -110 -52 -148 -112 -148h-228v161zM507 744v-144h-81c-31 0 -37 -12 -37 -39v-23h118v-165h-118v-373h-270v373h-106v165h106v53c0 85 45 153 197 153h191z" />
    <glyph glyph-name="f_k" horiz-adv-x="1322" 
d="M832 0h-272v744h272v-416l184 210h293l-219 -238l251 -300h-309l-200 242v-242zM507 744v-144h-81c-31 0 -37 -12 -37 -39v-23h118v-165h-118v-373h-270v373h-106v165h106v53c0 85 45 153 197 153h191z" />
    <glyph glyph-name="f_f_b" horiz-adv-x="1891" 
d="M1002 744h272v-279c22 16 103 83 261 83h21c244 0 320 -127 320 -266v-21c0 -138 -85 -271 -330 -271h-20c-150 0 -233 63 -257 81c-7 -19 -11 -48 -14 -71h-253v744zM1274 272v-4c0 -61 54 -128 163 -128h6c121 0 157 68 157 128v4c0 64 -36 128 -157 128h-6
c-112 0 -163 -64 -163 -128zM389 0h-270v373h-106v165h106v53c0 85 45 153 197 153h193v-144h-83c-31 0 -37 -12 -37 -39v-23h172v53c0 85 45 153 197 153h191v-144h-81c-31 0 -37 -12 -37 -39v-23h118v-165h-118v-373h-270v373h-172v-373z" />
    <glyph glyph-name="f_f_h" horiz-adv-x="1853" 
d="M1002 0v744h272v-300c23 23 109 106 276 106h6c201 0 264 -119 264 -204v-346h-273v257c0 72 -37 124 -130 124c-92 0 -143 -55 -143 -131v-250h-272zM389 0h-270v373h-106v165h106v53c0 85 45 153 197 153h193v-144h-83c-31 0 -37 -12 -37 -39v-23h172v53
c0 85 45 153 197 153h191v-144h-81c-31 0 -37 -12 -37 -39v-23h118v-165h-118v-373h-270v373h-172v-373z" />
    <glyph glyph-name="f_f_k" horiz-adv-x="1764" 
d="M1274 0h-272v744h272v-416l184 210h293l-219 -238l251 -300h-309l-200 242v-242zM389 0h-270v373h-106v165h106v53c0 85 45 153 197 153h193v-144h-83c-31 0 -37 -12 -37 -39v-23h172v53c0 85 45 153 197 153h191v-144h-81c-31 0 -37 -12 -37 -39v-23h118v-165h-118v-373
h-270v373h-172v-373z" />
    <glyph glyph-name="f_f_j" horiz-adv-x="1308" 
d="M1274 744v-161h-272v161h272zM934 -27h36c24 0 32 6 32 37v528h272v-578c0 -110 -52 -148 -112 -148h-228v161zM389 0h-270v373h-106v165h106v53c0 85 45 153 197 153h193v-144h-83c-31 0 -37 -12 -37 -39v-23h172v53c0 85 45 153 197 153h191v-144h-81
c-31 0 -37 -12 -37 -39v-23h118v-165h-118v-373h-270v373h-172v-373z" />
    <glyph glyph-name="f_f_l" unicode="&#xfb04;" horiz-adv-x="1308" 
d="M389 0h-270v373h-106v165h106v53c0 85 45 153 197 153h193v-144h-83c-31 0 -37 -12 -37 -39v-23h172v53c0 85 45 153 197 153h191v-144h-81c-31 0 -37 -12 -37 -39v-23h118v-165h-118v-373h-270v373h-172v-373zM1274 744v-744h-272v744h272z" />
    <glyph glyph-name="f_f_i" unicode="&#xfb03;" horiz-adv-x="1308" 
d="M1274 744v-161h-272v161h272zM1274 538v-538h-272v538h272zM389 0h-270v373h-106v165h106v53c0 85 45 153 197 153h193v-144h-83c-31 0 -37 -12 -37 -39v-23h172v53c0 85 45 153 197 153h191v-144h-81c-31 0 -37 -12 -37 -39v-23h118v-165h-118v-373h-270v373h-172v-373z
" />
    <glyph glyph-name="uni0401" unicode="&#x401;" horiz-adv-x="913" 
d="M48 744h823v-182h-543v-93h532v-181h-532v-102h551v-186h-831v744zM738 944v-155h-245v155h245zM445 944v-155h-246v155h246z" />
    <glyph glyph-name="uni0407" unicode="&#x407;" horiz-adv-x="379" 
d="M331 744v-744h-283v744h283zM459 944v-155h-245v155h245zM166 944v-155h-246v155h246z" />
    <glyph glyph-name="uni0439.bgr" horiz-adv-x="887" 
d="M847 538v-538h-270v96c-26 -26 -108 -108 -273 -108h-7c-200 0 -258 123 -258 210v340h273v-257c0 -69 33 -124 124 -124s140 58 140 131v250h271zM685 744v-2c0 -54 -47 -165 -221 -165h-40c-191 0 -223 111 -223 165v2h181c0 -13 8 -48 63 -48c52 0 62 35 62 48h178z
" />
    <glyph glyph-name="uni0451" unicode="&#x451;" horiz-adv-x="888" 
d="M444 421c-103 0 -142 -33 -155 -81h310c-11 51 -52 81 -155 81zM869 196v-2c0 -75 -46 -209 -397 -209h-53c-331 0 -400 151 -400 277v20c0 124 64 271 397 271h55c351 0 400 -164 400 -293v-30h-585c8 -56 54 -99 163 -99h1c129 0 149 53 151 65h268zM706 744v-161h-238
v161h238zM422 744v-161h-237v161h237z" />
    <glyph glyph-name="uni045B" unicode="&#x45b;" horiz-adv-x="897" 
d="M40 695v49h272v-49h250v-110h-250v-141c23 23 109 106 276 106h6c201 0 264 -119 264 -204v-346h-273v257c0 72 -37 124 -130 124c-92 0 -143 -55 -143 -131v-250h-272v585h-69v110h69z" />
    </font>
</defs>
</svg>
